<?xml version="1.0" standalone="yes"?>

<svg version="1.1" viewBox="0.0 0.0 332.5196850393701 233.03937007874015" fill="none" stroke="none" stroke-linecap="square" stroke-miterlimit="10" xmlns="http://www.w3.org/2000/svg" xmlns:xlink="http://www.w3.org/1999/xlink"><clipPath id="p.0"><path d="m0 0l332.51968 0l0 233.03937l-332.51968 0l0 -233.03937z" clip-rule="nonzero"></path></clipPath><g clip-path="url(#p.0)"><path fill="#000000" fill-opacity="0.0" d="m0 0l332.51968 0l0 233.03937l-332.51968 0z" fill-rule="evenodd"></path><path fill="#efefef" d="m0 -1.9186351l337.32285 0l0 241.85828l-337.32285 0z" fill-rule="evenodd"></path><path fill="#000000" fill-opacity="0.0" d="m6.3569555 -8.0l117.85827 0l0 254.99213l-117.85827 0z" fill-rule="evenodd"></path><path fill="#38761d" d="m16.21633 14.544998l1.6875 -0.140625q0.125 1.015625 0.5625 1.671875q0.4375 0.65625 1.359375 1.0625q0.9375 0.40625 2.09375 0.40625q1.03125 0 1.8125 -0.3125q0.796875 -0.3125 1.1875 -0.84375q0.390625 -0.53125 0.390625 -1.15625q0 -0.640625 -0.375 -1.109375q-0.375 -0.484375 -1.234375 -0.8125q-0.546875 -0.21875 -2.421875 -0.65625q-1.875 -0.453125 -2.625 -0.859375q-0.96875 -0.515625 -1.453125 -1.265625q-0.46875 -0.75 -0.46875 -1.6875q0 -1.03125 0.578125 -1.921875q0.59375 -0.90625 1.703125 -1.359375q1.125 -0.46875 2.5 -0.46875q1.515625 0 2.671875 0.484375q1.15625 0.484375 1.765625 1.4375q0.625 0.9375 0.671875 2.140625l-1.71875 0.125q-0.140625 -1.28125 -0.953125 -1.9375q-0.796875 -0.671875 -2.359375 -0.671875q-1.625 0 -2.375 0.609375q-0.75 0.59375 -0.75 1.4375q0 0.734375 0.53125 1.203125q0.515625 0.46875 2.703125 0.96875q2.203125 0.5 3.015625 0.875q1.1875 0.546875 1.75 1.390625q0.578125 0.828125 0.578125 1.921875q0 1.09375 -0.625 2.0625q-0.625 0.953125 -1.796875 1.484375q-1.15625 0.53125 -2.609375 0.53125q-1.84375 0 -3.09375 -0.53125q-1.25 -0.546875 -1.96875 -1.625q-0.703125 -1.078125 -0.734375 -2.453125zm19.2717 3.15625q-0.9375 0.796875 -1.796875 1.125q-0.859375 0.3125 -1.8437519 0.3125q-1.609375 0 -2.484375 -0.78125q-0.875 -0.796875 -0.875 -2.03125q0 -0.734375 0.328125 -1.328125q0.328125 -0.59375 0.859375 -0.953125q0.53125 -0.359375 1.203125 -0.546875q0.5 -0.140625 1.4843769 -0.25q2.03125 -0.25 2.984375 -0.578125q0 -0.34375 0 -0.4375q0 -1.015625 -0.46875 -1.4375q-0.640625 -0.5625 -1.90625 -0.5625q-1.1718769 0 -1.7343769 0.40625q-0.5625 0.40625 -0.828125 1.46875l-1.640625 -0.234375q0.234375 -1.046875 0.734375 -1.6875q0.515625 -0.640625 1.46875 -0.984375q0.96875 -0.359375 2.250002 -0.359375q1.265625 0 2.046875 0.296875q0.78125 0.296875 1.15625 0.75q0.375 0.453125 0.515625 1.140625q0.09375 0.421875 0.09375 1.53125l0 2.234375q0 2.328125 0.09375 2.953125q0.109375 0.609375 0.4375 1.171875l-1.75 0q-0.265625 -0.515625 -0.328125 -1.21875zm-0.140625 -3.71875q-0.90625 0.359375 -2.734375 0.625q-1.0312519 0.140625 -1.4531269 0.328125q-0.421875 0.1875 -0.65625 0.546875q-0.234375 0.359375 -0.234375 0.796875q0 0.671875 0.5 1.125q0.515625 0.4375 1.4843769 0.4375q0.96875 0 1.71875 -0.421875q0.75 -0.4375 1.109375 -1.15625q0.265625 -0.578125 0.265625 -1.671875l0 -0.609375zm6.813217 4.9375l-3.75 -9.859375l1.765625 0l2.125 5.90625q0.34375 0.953125 0.625 1.984375q0.21875 -0.78125 0.625 -1.875l2.1875 -6.015625l1.71875 0l-3.734375 9.859375l-1.5625 0zm13.34375 -3.171875l1.71875 0.21875q-0.40625 1.5 -1.515625 2.34375q-1.09375 0.828125 -2.8125 0.828125q-2.15625 0 -3.421875 -1.328125q-1.265625 -1.328125 -1.265625 -3.734375q0 -2.484375 1.265625 -3.859375q1.28125 -1.375 3.328125 -1.375q1.984375 0 3.234375 1.34375q1.25 1.34375 1.25 3.796875q0 0.140625 -0.015625 0.4375l-7.34375 0q0.09375 1.625 0.921875 2.484375q0.828125 0.859375 2.0625 0.859375q0.90625 0 1.546875 -0.46875q0.65625 -0.484375 1.046875 -1.546875zm-5.484375 -2.703125l5.5 0q-0.109375 -1.234375 -0.625 -1.859375q-0.796875 -0.96875 -2.078125 -0.96875q-1.140625 0 -1.9375 0.78125q-0.78125 0.765625 -0.859375 2.046875zm13.621521 2.9375l1.65625 -0.265625q0.140625 1.0 0.765625 1.53125q0.640625 0.515625 1.78125 0.515625q1.15625 0 1.703125 -0.46875q0.5625 -0.46875 0.5625 -1.09375q0 -0.5625 -0.484375 -0.890625q-0.34375 -0.21875 -1.703125 -0.5625q-1.84375 -0.46875 -2.5625 -0.796875q-0.703125 -0.34375 -1.078125 -0.9375q-0.359375 -0.609375 -0.359375 -1.328125q0 -0.65625 0.296875 -1.21875q0.3125 -0.5625 0.828125 -0.9375q0.390625 -0.28125 1.0625 -0.484375q0.671875 -0.203125 1.4375 -0.203125q1.171875 0 2.046875 0.34375q0.875 0.328125 1.28125 0.90625q0.421875 0.5625 0.578125 1.515625l-1.625 0.21875q-0.109375 -0.75 -0.65625 -1.171875q-0.53125 -0.4375 -1.5 -0.4375q-1.15625 0 -1.640625 0.390625q-0.484375 0.375 -0.484375 0.875q0 0.328125 0.203125 0.59375q0.203125 0.265625 0.640625 0.4375q0.25 0.09375 1.46875 0.4375q1.765625 0.46875 2.46875 0.765625q0.703125 0.296875 1.09375 0.875q0.40625 0.578125 0.40625 1.4375q0 0.828125 -0.484375 1.578125q-0.484375 0.734375 -1.40625 1.140625q-0.921875 0.390625 -2.078125 0.390625q-1.921875 0 -2.9375 -0.796875q-1.0 -0.796875 -1.28125 -2.359375zm13.65625 1.4375l0.234375 1.484375q-0.703125 0.140625 -1.265625 0.140625q-0.90625 0 -1.40625 -0.28125q-0.5 -0.296875 -0.703125 -0.75q-0.203125 -0.46875 -0.203125 -1.984375l0 -5.65625l-1.234375 0l0 -1.3125l1.234375 0l0 -2.4375l1.65625 -1.0l0 3.4375l1.6875 0l0 1.3125l-1.6875 0l0 5.75q0 0.71875 0.078125 0.921875q0.09375 0.203125 0.296875 0.328125q0.203125 0.125 0.578125 0.125q0.265625 0 0.734375 -0.078125zm7.964554 0.28125q-0.9375 0.796875 -1.796875 1.125q-0.859375 0.3125 -1.84375 0.3125q-1.609375 0 -2.484375 -0.78125q-0.875 -0.796875 -0.875 -2.03125q0 -0.734375 0.328125 -1.328125q0.328125 -0.59375 0.859375 -0.953125q0.53125 -0.359375 1.203125 -0.546875q0.5 -0.140625 1.484375 -0.25q2.03125 -0.25 2.984375 -0.578125q0 -0.34375 0 -0.4375q0 -1.015625 -0.46875 -1.4375q-0.640625 -0.5625 -1.90625 -0.5625q-1.171875 0 -1.734375 0.40625q-0.5625 0.40625 -0.828125 1.46875l-1.640625 -0.234375q0.234375 -1.046875 0.734375 -1.6875q0.515625 -0.640625 1.46875 -0.984375q0.96875 -0.359375 2.25 -0.359375q1.265625 0 2.046875 0.296875q0.78125 0.296875 1.15625 0.75q0.375 0.453125 0.515625 1.140625q0.09375 0.421875 0.09375 1.53125l0 2.234375q0 2.328125 0.09375 2.953125q0.109375 0.609375 0.4375 1.171875l-1.75 0q-0.265625 -0.515625 -0.328125 -1.21875zm-0.140625 -3.71875q-0.90625 0.359375 -2.734375 0.625q-1.03125 0.140625 -1.453125 0.328125q-0.421875 0.1875 -0.65625 0.546875q-0.234375 0.359375 -0.234375 0.796875q0 0.671875 0.5 1.125q0.515625 0.4375 1.484375 0.4375q0.96875 0 1.71875 -0.421875q0.75 -0.4375 1.109375 -1.15625q0.265625 -0.578125 0.265625 -1.671875l0 -0.609375zm7.735092 3.4375l0.234375 1.484375q-0.703125 0.140625 -1.265625 0.140625q-0.90625 0 -1.40625 -0.28125q-0.5 -0.296875 -0.703125 -0.75q-0.203125 -0.46875 -0.203125 -1.984375l0 -5.65625l-1.234375 0l0 -1.3125l1.234375 0l0 -2.4375l1.65625 -1.0l0 3.4375l1.6875 0l0 1.3125l-1.6875 0l0 5.75q0 0.71875 0.078125 0.921875q0.09375 0.203125 0.296875 0.328125q0.203125 0.125 0.578125 0.125q0.265625 0 0.734375 -0.078125zm8.277054 -1.671875l1.71875 0.21875q-0.40625 1.5 -1.515625 2.34375q-1.09375 0.828125 -2.8125 0.828125q-2.15625 0 -3.421875 -1.328125q-1.265625 -1.328125 -1.265625 -3.734375q0 -2.484375 1.265625 -3.859375q1.28125 -1.375 3.328125 -1.375q1.984375 0 3.234375 1.34375q1.25 1.34375 1.25 3.796875q0 0.140625 -0.015625 0.4375l-7.34375 0q0.09375 1.625 0.921875 2.484375q0.828125 0.859375 2.0625 0.859375q0.90625 0 1.546875 -0.46875q0.65625 -0.484375 1.046875 -1.546875zm-5.484375 -2.703125l5.5 0q-0.109375 -1.234375 -0.625 -1.859375q-0.796875 -0.96875 -2.078125 -0.96875q-1.140625 0 -1.9375 0.78125q-0.78125 0.765625 -0.859375 2.046875z" fill-rule="nonzero"></path><path fill="#000000" d="m20.65383 52.92l0 -5.765625l-5.234374 -7.828125l2.187499 0l2.671875 4.09375q0.75 1.15625 1.390625 2.296875q0.609375 -1.0625 1.484375 -2.40625l2.625 -3.984375l2.109375 0l-5.4375 7.828125l0 5.765625l-1.796875 0zm22.361254 -8.0l-8.96875 0l0 -1.5625l8.96875 0l0 1.5625zm0 4.125l-8.96875 0l0 -1.546875l8.96875 0l0 1.546875zm6.1251373 3.875l5.265625 -7.09375l-4.640625 -6.5l2.140625 0l2.46875 3.484375q0.78125 1.078125 1.09375 1.671875q0.453125 -0.75 1.078125 -1.546875l2.734375 -3.609375l1.96875 0l-4.78125 6.40625l5.140625 7.1875l-2.21875 0l-3.421875 -4.859375q-0.296875 -0.40625 -0.59375 -0.90625q-0.453125 0.75 -0.65625 1.03125l-3.40625 4.734375l-2.171875 0zm22.314377 -2.203125l0 -3.71875l-3.703125 0l0 -1.5625l3.703125 0l0 -3.703125l1.578125 0l0 3.703125l3.6875 0l0 1.5625l-3.6875 0l0 3.71875l-1.578125 0zm18.390762 2.203125l-1.671875 0l0 -10.640625q-0.59375 0.578125 -1.578125 1.15625q-0.984375 0.5625 -1.765625 0.859375l0 -1.625q1.40625 -0.65625 2.453125 -1.59375q1.046875 -0.9375 1.484375 -1.8125l1.078125 0l0 13.65625z" fill-rule="nonzero"></path><path fill="#38761d" d="m16.21633 82.545l1.6875 -0.140625q0.125 1.015625 0.5625 1.671875q0.4375 0.65625 1.359375 1.0625q0.9375 0.40625 2.09375 0.40625q1.03125 0 1.8125 -0.3125q0.796875 -0.3125 1.1875 -0.84375q0.390625 -0.53125 0.390625 -1.15625q0 -0.640625 -0.375 -1.109375q-0.375 -0.484375 -1.234375 -0.8125q-0.546875 -0.21875 -2.421875 -0.65625q-1.875 -0.453125 -2.625 -0.859375q-0.96875 -0.515625 -1.453125 -1.265625q-0.46875 -0.75 -0.46875 -1.6875q0 -1.03125 0.578125 -1.921875q0.59375 -0.90625 1.703125 -1.359375q1.125 -0.46875 2.5 -0.46875q1.515625 0 2.671875 0.484375q1.15625 0.484375 1.765625 1.4375q0.625 0.9375 0.671875 2.140625l-1.71875 0.125q-0.140625 -1.28125 -0.953125 -1.9375q-0.796875 -0.671875 -2.359375 -0.671875q-1.625 0 -2.375 0.609375q-0.75 0.59375 -0.75 1.4375q0 0.734375 0.53125 1.203125q0.515625 0.46875 2.703125 0.96875q2.203125 0.5 3.015625 0.875q1.1875 0.546875 1.75 1.390625q0.578125 0.828125 0.578125 1.921875q0 1.09375 -0.625 2.0625q-0.625 0.953125 -1.796875 1.484375q-1.15625 0.53125 -2.609375 0.53125q-1.84375 0 -3.09375 -0.53125q-1.25 -0.546875 -1.96875 -1.625q-0.703125 -1.078125 -0.734375 -2.453125zm19.2717 3.15625q-0.9375 0.796875 -1.796875 1.125q-0.859375 0.3125 -1.8437519 0.3125q-1.609375 0 -2.484375 -0.78125q-0.875 -0.796875 -0.875 -2.03125q0 -0.734375 0.328125 -1.328125q0.328125 -0.59375 0.859375 -0.953125q0.53125 -0.359375 1.203125 -0.546875q0.5 -0.140625 1.4843769 -0.25q2.03125 -0.25 2.984375 -0.578125q0 -0.34375 0 -0.4375q0 -1.015625 -0.46875 -1.4375q-0.640625 -0.5625 -1.90625 -0.5625q-1.1718769 0 -1.7343769 0.40625q-0.5625 0.40625 -0.828125 1.46875l-1.640625 -0.234375q0.234375 -1.046875 0.734375 -1.6875q0.515625 -0.640625 1.46875 -0.984375q0.96875 -0.359375 2.250002 -0.359375q1.265625 0 2.046875 0.296875q0.78125 0.296875 1.15625 0.75q0.375 0.453125 0.515625 1.140625q0.09375 0.421875 0.09375 1.53125l0 2.234375q0 2.328125 0.09375 2.953125q0.109375 0.609375 0.4375 1.171875l-1.75 0q-0.265625 -0.515625 -0.328125 -1.21875zm-0.140625 -3.71875q-0.90625 0.359375 -2.734375 0.625q-1.0312519 0.140625 -1.4531269 0.328125q-0.421875 0.1875 -0.65625 0.546875q-0.234375 0.359375 -0.234375 0.796875q0 0.671875 0.5 1.125q0.515625 0.4375 1.4843769 0.4375q0.96875 0 1.71875 -0.421875q0.75 -0.4375 1.109375 -1.15625q0.265625 -0.578125 0.265625 -1.671875l0 -0.609375zm6.813217 4.9375l-3.75 -9.859375l1.765625 0l2.125 5.90625q0.34375 0.953125 0.625 1.984375q0.21875 -0.78125 0.625 -1.875l2.1875 -6.015625l1.71875 0l-3.734375 9.859375l-1.5625 0zm13.34375 -3.171875l1.71875 0.21875q-0.40625 1.5 -1.515625 2.34375q-1.09375 0.828125 -2.8125 0.828125q-2.15625 0 -3.421875 -1.328125q-1.265625 -1.328125 -1.265625 -3.734375q0 -2.484375 1.265625 -3.859375q1.28125 -1.375 3.328125 -1.375q1.984375 0 3.234375 1.34375q1.25 1.34375 1.25 3.796875q0 0.140625 -0.015625 0.4375l-7.34375 0q0.09375 1.625 0.921875 2.484375q0.828125 0.859375 2.0625 0.859375q0.90625 0 1.546875 -0.46875q0.65625 -0.484375 1.046875 -1.546875zm-5.484375 -2.703125l5.5 0q-0.109375 -1.234375 -0.625 -1.859375q-0.796875 -0.96875 -2.078125 -0.96875q-1.140625 0 -1.9375 0.78125q-0.78125 0.765625 -0.859375 2.046875zm13.621521 2.9375l1.65625 -0.265625q0.140625 1.0 0.765625 1.53125q0.640625 0.515625 1.78125 0.515625q1.15625 0 1.703125 -0.46875q0.5625 -0.46875 0.5625 -1.09375q0 -0.5625 -0.484375 -0.890625q-0.34375 -0.21875 -1.703125 -0.5625q-1.84375 -0.46875 -2.5625 -0.796875q-0.703125 -0.34375 -1.078125 -0.9375q-0.359375 -0.609375 -0.359375 -1.328125q0 -0.65625 0.296875 -1.21875q0.3125 -0.5625 0.828125 -0.9375q0.390625 -0.28125 1.0625 -0.484375q0.671875 -0.203125 1.4375 -0.203125q1.171875 0 2.046875 0.34375q0.875 0.328125 1.28125 0.90625q0.421875 0.5625 0.578125 1.515625l-1.625 0.21875q-0.109375 -0.75 -0.65625 -1.171875q-0.53125 -0.4375 -1.5 -0.4375q-1.15625 0 -1.640625 0.390625q-0.484375 0.375 -0.484375 0.875q0 0.328125 0.203125 0.59375q0.203125 0.265625 0.640625 0.4375q0.25 0.09375 1.46875 0.4375q1.765625 0.46875 2.46875 0.765625q0.703125 0.296875 1.09375 0.875q0.40625 0.578125 0.40625 1.4375q0 0.828125 -0.484375 1.578125q-0.484375 0.734375 -1.40625 1.140625q-0.921875 0.390625 -2.078125 0.390625q-1.921875 0 -2.9375 -0.796875q-1.0 -0.796875 -1.28125 -2.359375zm13.65625 1.4375l0.234375 1.484375q-0.703125 0.140625 -1.265625 0.140625q-0.90625 0 -1.40625 -0.28125q-0.5 -0.296875 -0.703125 -0.75q-0.203125 -0.46875 -0.203125 -1.984375l0 -5.65625l-1.234375 0l0 -1.3125l1.234375 0l0 -2.4375l1.65625 -1.0l0 3.4375l1.6875 0l0 1.3125l-1.6875 0l0 5.75q0 0.71875 0.078125 0.921875q0.09375 0.203125 0.296875 0.328125q0.203125 0.125 0.578125 0.125q0.265625 0 0.734375 -0.078125zm7.964554 0.28125q-0.9375 0.796875 -1.796875 1.125q-0.859375 0.3125 -1.84375 0.3125q-1.609375 0 -2.484375 -0.78125q-0.875 -0.796875 -0.875 -2.03125q0 -0.734375 0.328125 -1.328125q0.328125 -0.59375 0.859375 -0.953125q0.53125 -0.359375 1.203125 -0.546875q0.5 -0.140625 1.484375 -0.25q2.03125 -0.25 2.984375 -0.578125q0 -0.34375 0 -0.4375q0 -1.015625 -0.46875 -1.4375q-0.640625 -0.5625 -1.90625 -0.5625q-1.171875 0 -1.734375 0.40625q-0.5625 0.40625 -0.828125 1.46875l-1.640625 -0.234375q0.234375 -1.046875 0.734375 -1.6875q0.515625 -0.640625 1.46875 -0.984375q0.96875 -0.359375 2.25 -0.359375q1.265625 0 2.046875 0.296875q0.78125 0.296875 1.15625 0.75q0.375 0.453125 0.515625 1.140625q0.09375 0.421875 0.09375 1.53125l0 2.234375q0 2.328125 0.09375 2.953125q0.109375 0.609375 0.4375 1.171875l-1.75 0q-0.265625 -0.515625 -0.328125 -1.21875zm-0.140625 -3.71875q-0.90625 0.359375 -2.734375 0.625q-1.03125 0.140625 -1.453125 0.328125q-0.421875 0.1875 -0.65625 0.546875q-0.234375 0.359375 -0.234375 0.796875q0 0.671875 0.5 1.125q0.515625 0.4375 1.484375 0.4375q0.96875 0 1.71875 -0.421875q0.75 -0.4375 1.109375 -1.15625q0.265625 -0.578125 0.265625 -1.671875l0 -0.609375zm7.735092 3.4375l0.234375 1.484375q-0.703125 0.140625 -1.265625 0.140625q-0.90625 0 -1.40625 -0.28125q-0.5 -0.296875 -0.703125 -0.75q-0.203125 -0.46875 -0.203125 -1.984375l0 -5.65625l-1.234375 0l0 -1.3125l1.234375 0l0 -2.4375l1.65625 -1.0l0 3.4375l1.6875 0l0 1.3125l-1.6875 0l0 5.75q0 0.71875 0.078125 0.921875q0.09375 0.203125 0.296875 0.328125q0.203125 0.125 0.578125 0.125q0.265625 0 0.734375 -0.078125zm8.277054 -1.671875l1.71875 0.21875q-0.40625 1.5 -1.515625 2.34375q-1.09375 0.828125 -2.8125 0.828125q-2.15625 0 -3.421875 -1.328125q-1.265625 -1.328125 -1.265625 -3.734375q0 -2.484375 1.265625 -3.859375q1.28125 -1.375 3.328125 -1.375q1.984375 0 3.234375 1.34375q1.25 1.34375 1.25 3.796875q0 0.140625 -0.015625 0.4375l-7.34375 0q0.09375 1.625 0.921875 2.484375q0.828125 0.859375 2.0625 0.859375q0.90625 0 1.546875 -0.46875q0.65625 -0.484375 1.046875 -1.546875zm-5.484375 -2.703125l5.5 0q-0.109375 -1.234375 -0.625 -1.859375q-0.796875 -0.96875 -2.078125 -0.96875q-1.140625 0 -1.9375 0.78125q-0.78125 0.765625 -0.859375 2.046875z" fill-rule="nonzero"></path><path fill="#000000" d="m15.731956 120.92l0 -1.671875l6.968749 -8.703125q0.75 -0.9375 1.421875 -1.625l-7.59375 0l0 -1.59375l9.734375 0l0 1.59375l-7.625 9.4375l-0.828125 0.953125l8.6875 0l0 1.609375l-10.765624 0zm26.235535 -8.0l-8.96875 0l0 -1.5625l8.96875 0l0 1.5625zm0 4.125l-8.96875 0l0 -1.546875l8.96875 0l0 1.546875zm6.1605835 3.875l0 -5.765625l-5.234375 -7.828125l2.1875 0l2.671875 4.09375q0.75 1.15625 1.390625 2.296875q0.609375 -1.0625 1.484375 -2.40625l2.625 -3.984375l2.109375 0l-5.4375 7.828125l0 5.765625l-1.796875 0zm17.095627 -2.203125l0 -3.71875l-3.703125 0l0 -1.5625l3.703125 0l0 -3.703125l1.578125 0l0 3.703125l3.6875 0l0 1.5625l-3.6875 0l0 3.71875l-1.578125 0zm18.390762 2.203125l-1.671875 0l0 -10.640625q-0.59375 0.578125 -1.578125 1.15625q-0.984375 0.5625 -1.765625 0.859375l0 -1.625q1.40625 -0.65625 2.453125 -1.59375q1.046875 -0.9375 1.484375 -1.8125l1.078125 0l0 13.65625z" fill-rule="nonzero"></path><path fill="#38761d" d="m16.21633 150.545l1.6875 -0.140625q0.125 1.015625 0.5625 1.671875q0.4375 0.65625 1.359375 1.0625q0.9375 0.40625 2.09375 0.40625q1.03125 0 1.8125 -0.3125q0.796875 -0.3125 1.1875 -0.84375q0.390625 -0.53125 0.390625 -1.15625q0 -0.640625 -0.375 -1.109375q-0.375 -0.484375 -1.234375 -0.8125q-0.546875 -0.21875 -2.421875 -0.65625q-1.875 -0.453125 -2.625 -0.859375q-0.96875 -0.515625 -1.453125 -1.265625q-0.46875 -0.75 -0.46875 -1.6875q0 -1.03125 0.578125 -1.921875q0.59375 -0.90625 1.703125 -1.359375q1.125 -0.46875 2.5 -0.46875q1.515625 0 2.671875 0.484375q1.15625 0.484375 1.765625 1.4375q0.625 0.9375 0.671875 2.140625l-1.71875 0.125q-0.140625 -1.28125 -0.953125 -1.9375q-0.796875 -0.671875 -2.359375 -0.671875q-1.625 0 -2.375 0.609375q-0.75 0.59375 -0.75 1.4375q0 0.734375 0.53125 1.203125q0.515625 0.46875 2.703125 0.96875q2.203125 0.5 3.015625 0.875q1.1875 0.546875 1.75 1.390625q0.578125 0.828125 0.578125 1.921875q0 1.09375 -0.625 2.0625q-0.625 0.953125 -1.796875 1.484375q-1.15625 0.53125 -2.609375 0.53125q-1.84375 0 -3.09375 -0.53125q-1.25 -0.546875 -1.96875 -1.625q-0.703125 -1.078125 -0.734375 -2.453125zm19.2717 3.15625q-0.9375 0.796875 -1.796875 1.125q-0.859375 0.3125 -1.8437519 0.3125q-1.609375 0 -2.484375 -0.78125q-0.875 -0.796875 -0.875 -2.03125q0 -0.734375 0.328125 -1.328125q0.328125 -0.59375 0.859375 -0.953125q0.53125 -0.359375 1.203125 -0.546875q0.5 -0.140625 1.4843769 -0.25q2.03125 -0.25 2.984375 -0.578125q0 -0.34375 0 -0.4375q0 -1.015625 -0.46875 -1.4375q-0.640625 -0.5625 -1.90625 -0.5625q-1.1718769 0 -1.7343769 0.40625q-0.5625 0.40625 -0.828125 1.46875l-1.640625 -0.234375q0.234375 -1.046875 0.734375 -1.6875q0.515625 -0.640625 1.46875 -0.984375q0.96875 -0.359375 2.250002 -0.359375q1.265625 0 2.046875 0.296875q0.78125 0.296875 1.15625 0.75q0.375 0.453125 0.515625 1.140625q0.09375 0.421875 0.09375 1.53125l0 2.234375q0 2.328125 0.09375 2.953125q0.109375 0.609375 0.4375 1.171875l-1.75 0q-0.265625 -0.515625 -0.328125 -1.21875zm-0.140625 -3.71875q-0.90625 0.359375 -2.734375 0.625q-1.0312519 0.140625 -1.4531269 0.328125q-0.421875 0.1875 -0.65625 0.546875q-0.234375 0.359375 -0.234375 0.796875q0 0.671875 0.5 1.125q0.515625 0.4375 1.4843769 0.4375q0.96875 0 1.71875 -0.421875q0.75 -0.4375 1.109375 -1.15625q0.265625 -0.578125 0.265625 -1.671875l0 -0.609375zm6.813217 4.9375l-3.75 -9.859375l1.765625 0l2.125 5.90625q0.34375 0.953125 0.625 1.984375q0.21875 -0.78125 0.625 -1.875l2.1875 -6.015625l1.71875 0l-3.734375 9.859375l-1.5625 0zm13.34375 -3.171875l1.71875 0.21875q-0.40625 1.5 -1.515625 2.34375q-1.09375 0.828125 -2.8125 0.828125q-2.15625 0 -3.421875 -1.328125q-1.265625 -1.328125 -1.265625 -3.734375q0 -2.484375 1.265625 -3.859375q1.28125 -1.375 3.328125 -1.375q1.984375 0 3.234375 1.34375q1.25 1.34375 1.25 3.796875q0 0.140625 -0.015625 0.4375l-7.34375 0q0.09375 1.625 0.921875 2.484375q0.828125 0.859375 2.0625 0.859375q0.90625 0 1.546875 -0.46875q0.65625 -0.484375 1.046875 -1.546875zm-5.484375 -2.703125l5.5 0q-0.109375 -1.234375 -0.625 -1.859375q-0.796875 -0.96875 -2.078125 -0.96875q-1.140625 0 -1.9375 0.78125q-0.78125 0.765625 -0.859375 2.046875zm13.621521 2.9375l1.65625 -0.265625q0.140625 1.0 0.765625 1.53125q0.640625 0.515625 1.78125 0.515625q1.15625 0 1.703125 -0.46875q0.5625 -0.46875 0.5625 -1.09375q0 -0.5625 -0.484375 -0.890625q-0.34375 -0.21875 -1.703125 -0.5625q-1.84375 -0.46875 -2.5625 -0.796875q-0.703125 -0.34375 -1.078125 -0.9375q-0.359375 -0.609375 -0.359375 -1.328125q0 -0.65625 0.296875 -1.21875q0.3125 -0.5625 0.828125 -0.9375q0.390625 -0.28125 1.0625 -0.484375q0.671875 -0.203125 1.4375 -0.203125q1.171875 0 2.046875 0.34375q0.875 0.328125 1.28125 0.90625q0.421875 0.5625 0.578125 1.515625l-1.625 0.21875q-0.109375 -0.75 -0.65625 -1.171875q-0.53125 -0.4375 -1.5 -0.4375q-1.15625 0 -1.640625 0.390625q-0.484375 0.375 -0.484375 0.875q0 0.328125 0.203125 0.59375q0.203125 0.265625 0.640625 0.4375q0.25 0.09375 1.46875 0.4375q1.765625 0.46875 2.46875 0.765625q0.703125 0.296875 1.09375 0.875q0.40625 0.578125 0.40625 1.4375q0 0.828125 -0.484375 1.578125q-0.484375 0.734375 -1.40625 1.140625q-0.921875 0.390625 -2.078125 0.390625q-1.921875 0 -2.9375 -0.796875q-1.0 -0.796875 -1.28125 -2.359375zm13.65625 1.4375l0.234375 1.484375q-0.703125 0.140625 -1.265625 0.140625q-0.90625 0 -1.40625 -0.28125q-0.5 -0.296875 -0.703125 -0.75q-0.203125 -0.46875 -0.203125 -1.984375l0 -5.65625l-1.234375 0l0 -1.3125l1.234375 0l0 -2.4375l1.65625 -1.0l0 3.4375l1.6875 0l0 1.3125l-1.6875 0l0 5.75q0 0.71875 0.078125 0.921875q0.09375 0.203125 0.296875 0.328125q0.203125 0.125 0.578125 0.125q0.265625 0 0.734375 -0.078125zm7.964554 0.28125q-0.9375 0.796875 -1.796875 1.125q-0.859375 0.3125 -1.84375 0.3125q-1.609375 0 -2.484375 -0.78125q-0.875 -0.796875 -0.875 -2.03125q0 -0.734375 0.328125 -1.328125q0.328125 -0.59375 0.859375 -0.953125q0.53125 -0.359375 1.203125 -0.546875q0.5 -0.140625 1.484375 -0.25q2.03125 -0.25 2.984375 -0.578125q0 -0.34375 0 -0.4375q0 -1.015625 -0.46875 -1.4375q-0.640625 -0.5625 -1.90625 -0.5625q-1.171875 0 -1.734375 0.40625q-0.5625 0.40625 -0.828125 1.46875l-1.640625 -0.234375q0.234375 -1.046875 0.734375 -1.6875q0.515625 -0.640625 1.46875 -0.984375q0.96875 -0.359375 2.25 -0.359375q1.265625 0 2.046875 0.296875q0.78125 0.296875 1.15625 0.75q0.375 0.453125 0.515625 1.140625q0.09375 0.421875 0.09375 1.53125l0 2.234375q0 2.328125 0.09375 2.953125q0.109375 0.609375 0.4375 1.171875l-1.75 0q-0.265625 -0.515625 -0.328125 -1.21875zm-0.140625 -3.71875q-0.90625 0.359375 -2.734375 0.625q-1.03125 0.140625 -1.453125 0.328125q-0.421875 0.1875 -0.65625 0.546875q-0.234375 0.359375 -0.234375 0.796875q0 0.671875 0.5 1.125q0.515625 0.4375 1.484375 0.4375q0.96875 0 1.71875 -0.421875q0.75 -0.4375 1.109375 -1.15625q0.265625 -0.578125 0.265625 -1.671875l0 -0.609375zm7.735092 3.4375l0.234375 1.484375q-0.703125 0.140625 -1.265625 0.140625q-0.90625 0 -1.40625 -0.28125q-0.5 -0.296875 -0.703125 -0.75q-0.203125 -0.46875 -0.203125 -1.984375l0 -5.65625l-1.234375 0l0 -1.3125l1.234375 0l0 -2.4375l1.65625 -1.0l0 3.4375l1.6875 0l0 1.3125l-1.6875 0l0 5.75q0 0.71875 0.078125 0.921875q0.09375 0.203125 0.296875 0.328125q0.203125 0.125 0.578125 0.125q0.265625 0 0.734375 -0.078125zm8.277054 -1.671875l1.71875 0.21875q-0.40625 1.5 -1.515625 2.34375q-1.09375 0.828125 -2.8125 0.828125q-2.15625 0 -3.421875 -1.328125q-1.265625 -1.328125 -1.265625 -3.734375q0 -2.484375 1.265625 -3.859375q1.28125 -1.375 3.328125 -1.375q1.984375 0 3.234375 1.34375q1.25 1.34375 1.25 3.796875q0 0.140625 -0.015625 0.4375l-7.34375 0q0.09375 1.625 0.921875 2.484375q0.828125 0.859375 2.0625 0.859375q0.90625 0 1.546875 -0.46875q0.65625 -0.484375 1.046875 -1.546875zm-5.484375 -2.703125l5.5 0q-0.109375 -1.234375 -0.625 -1.859375q-0.796875 -0.96875 -2.078125 -0.96875q-1.140625 0 -1.9375 0.78125q-0.78125 0.765625 -0.859375 2.046875z" fill-rule="nonzero"></path><path fill="#000000" d="m15.435081 188.92l5.265624 -7.09375l-4.640625 -6.5l2.140625 0l2.46875 3.484375q0.78125 1.078125 1.09375 1.671875q0.453125 -0.75 1.078125 -1.546875l2.734375 -3.609375l1.96875 0l-4.78125 6.40625l5.140625 7.1875l-2.21875 0l-3.421875 -4.859375q-0.296875 -0.40625 -0.59375 -0.90625q-0.453125 0.75 -0.65625 1.03125l-3.40625 4.734375l-2.171874 0zm27.580002 -8.0l-8.96875 0l0 -1.5625l8.96875 0l0 1.5625zm0 4.125l-8.96875 0l0 -1.546875l8.96875 0l0 1.546875zm6.4220123 3.875l0 -1.671875l6.96875 -8.703125q0.75 -0.9375 1.421875 -1.625l-7.59375 0l0 -1.59375l9.734375 0l0 1.59375l-7.625 9.4375l-0.828125 0.953125l8.6875 0l0 1.609375l-10.765625 0zm20.96991 -2.203125l0 -3.71875l-3.703125 0l0 -1.5625l3.703125 0l0 -3.703125l1.578125 0l0 3.703125l3.6875 0l0 1.5625l-3.6875 0l0 3.71875l-1.578125 0zm18.390762 2.203125l-1.671875 0l0 -10.640625q-0.59375 0.578125 -1.578125 1.15625q-0.984375 0.5625 -1.765625 0.859375l0 -1.625q1.40625 -0.65625 2.453125 -1.59375q1.046875 -0.9375 1.484375 -1.8125l1.078125 0l0 13.65625z" fill-rule="nonzero"></path><path fill="#38761d" d="m16.21633 218.545l1.6875 -0.140625q0.125 1.015625 0.5625 1.671875q0.4375 0.65625 1.359375 1.0625q0.9375 0.40625 2.09375 0.40625q1.03125 0 1.8125 -0.3125q0.796875 -0.3125 1.1875 -0.84375q0.390625 -0.53125 0.390625 -1.15625q0 -0.640625 -0.375 -1.109375q-0.375 -0.484375 -1.234375 -0.8125q-0.546875 -0.21875 -2.421875 -0.65625q-1.875 -0.453125 -2.625 -0.859375q-0.96875 -0.515625 -1.453125 -1.265625q-0.46875 -0.75 -0.46875 -1.6875q0 -1.03125 0.578125 -1.921875q0.59375 -0.90625 1.703125 -1.359375q1.125 -0.46875 2.5 -0.46875q1.515625 0 2.671875 0.484375q1.15625 0.484375 1.765625 1.4375q0.625 0.9375 0.671875 2.140625l-1.71875 0.125q-0.140625 -1.28125 -0.953125 -1.9375q-0.796875 -0.671875 -2.359375 -0.671875q-1.625 0 -2.375 0.609375q-0.75 0.59375 -0.75 1.4375q0 0.734375 0.53125 1.203125q0.515625 0.46875 2.703125 0.96875q2.203125 0.5 3.015625 0.875q1.1875 0.546875 1.75 1.390625q0.578125 0.828125 0.578125 1.921875q0 1.09375 -0.625 2.0625q-0.625 0.953125 -1.796875 1.484375q-1.15625 0.53125 -2.609375 0.53125q-1.84375 0 -3.09375 -0.53125q-1.25 -0.546875 -1.96875 -1.625q-0.703125 -1.078125 -0.734375 -2.453125zm19.2717 3.15625q-0.9375 0.796875 -1.796875 1.125q-0.859375 0.3125 -1.8437519 0.3125q-1.609375 0 -2.484375 -0.78125q-0.875 -0.796875 -0.875 -2.03125q0 -0.734375 0.328125 -1.328125q0.328125 -0.59375 0.859375 -0.953125q0.53125 -0.359375 1.203125 -0.546875q0.5 -0.140625 1.4843769 -0.25q2.03125 -0.25 2.984375 -0.578125q0 -0.34375 0 -0.4375q0 -1.015625 -0.46875 -1.4375q-0.640625 -0.5625 -1.90625 -0.5625q-1.1718769 0 -1.7343769 0.40625q-0.5625 0.40625 -0.828125 1.46875l-1.640625 -0.234375q0.234375 -1.046875 0.734375 -1.6875q0.515625 -0.640625 1.46875 -0.984375q0.96875 -0.359375 2.250002 -0.359375q1.265625 0 2.046875 0.296875q0.78125 0.296875 1.15625 0.75q0.375 0.453125 0.515625 1.140625q0.09375 0.421875 0.09375 1.53125l0 2.234375q0 2.328125 0.09375 2.953125q0.109375 0.609375 0.4375 1.171875l-1.75 0q-0.265625 -0.515625 -0.328125 -1.21875zm-0.140625 -3.71875q-0.90625 0.359375 -2.734375 0.625q-1.0312519 0.140625 -1.4531269 0.328125q-0.421875 0.1875 -0.65625 0.546875q-0.234375 0.359375 -0.234375 0.796875q0 0.671875 0.5 1.125q0.515625 0.4375 1.4843769 0.4375q0.96875 0 1.71875 -0.421875q0.75 -0.4375 1.109375 -1.15625q0.265625 -0.578125 0.265625 -1.671875l0 -0.609375zm6.813217 4.9375l-3.75 -9.859375l1.765625 0l2.125 5.90625q0.34375 0.953125 0.625 1.984375q0.21875 -0.78125 0.625 -1.875l2.1875 -6.015625l1.71875 0l-3.734375 9.859375l-1.5625 0zm13.34375 -3.171875l1.71875 0.21875q-0.40625 1.5 -1.515625 2.34375q-1.09375 0.828125 -2.8125 0.828125q-2.15625 0 -3.421875 -1.328125q-1.265625 -1.328125 -1.265625 -3.734375q0 -2.484375 1.265625 -3.859375q1.28125 -1.375 3.328125 -1.375q1.984375 0 3.234375 1.34375q1.25 1.34375 1.25 3.796875q0 0.140625 -0.015625 0.4375l-7.34375 0q0.09375 1.625 0.921875 2.484375q0.828125 0.859375 2.0625 0.859375q0.90625 0 1.546875 -0.46875q0.65625 -0.484375 1.046875 -1.546875zm-5.484375 -2.703125l5.5 0q-0.109375 -1.234375 -0.625 -1.859375q-0.796875 -0.96875 -2.078125 -0.96875q-1.140625 0 -1.9375 0.78125q-0.78125 0.765625 -0.859375 2.046875zm13.621521 2.9375l1.65625 -0.265625q0.140625 1.0 0.765625 1.53125q0.640625 0.515625 1.78125 0.515625q1.15625 0 1.703125 -0.46875q0.5625 -0.46875 0.5625 -1.09375q0 -0.5625 -0.484375 -0.890625q-0.34375 -0.21875 -1.703125 -0.5625q-1.84375 -0.46875 -2.5625 -0.796875q-0.703125 -0.34375 -1.078125 -0.9375q-0.359375 -0.609375 -0.359375 -1.328125q0 -0.65625 0.296875 -1.21875q0.3125 -0.5625 0.828125 -0.9375q0.390625 -0.28125 1.0625 -0.484375q0.671875 -0.203125 1.4375 -0.203125q1.171875 0 2.046875 0.34375q0.875 0.328125 1.28125 0.90625q0.421875 0.5625 0.578125 1.515625l-1.625 0.21875q-0.109375 -0.75 -0.65625 -1.171875q-0.53125 -0.4375 -1.5 -0.4375q-1.15625 0 -1.640625 0.390625q-0.484375 0.375 -0.484375 0.875q0 0.328125 0.203125 0.59375q0.203125 0.265625 0.640625 0.4375q0.25 0.09375 1.46875 0.4375q1.765625 0.46875 2.46875 0.765625q0.703125 0.296875 1.09375 0.875q0.40625 0.578125 0.40625 1.4375q0 0.828125 -0.484375 1.578125q-0.484375 0.734375 -1.40625 1.140625q-0.921875 0.390625 -2.078125 0.390625q-1.921875 0 -2.9375 -0.796875q-1.0 -0.796875 -1.28125 -2.359375zm13.65625 1.4375l0.234375 1.484375q-0.703125 0.140625 -1.265625 0.140625q-0.90625 0 -1.40625 -0.28125q-0.5 -0.296875 -0.703125 -0.75q-0.203125 -0.46875 -0.203125 -1.984375l0 -5.65625l-1.234375 0l0 -1.3125l1.234375 0l0 -2.4375l1.65625 -1.0l0 3.4375l1.6875 0l0 1.3125l-1.6875 0l0 5.75q0 0.71875 0.078125 0.921875q0.09375 0.203125 0.296875 0.328125q0.203125 0.125 0.578125 0.125q0.265625 0 0.734375 -0.078125zm7.964554 0.28125q-0.9375 0.796875 -1.796875 1.125q-0.859375 0.3125 -1.84375 0.3125q-1.609375 0 -2.484375 -0.78125q-0.875 -0.796875 -0.875 -2.03125q0 -0.734375 0.328125 -1.328125q0.328125 -0.59375 0.859375 -0.953125q0.53125 -0.359375 1.203125 -0.546875q0.5 -0.140625 1.484375 -0.25q2.03125 -0.25 2.984375 -0.578125q0 -0.34375 0 -0.4375q0 -1.015625 -0.46875 -1.4375q-0.640625 -0.5625 -1.90625 -0.5625q-1.171875 0 -1.734375 0.40625q-0.5625 0.40625 -0.828125 1.46875l-1.640625 -0.234375q0.234375 -1.046875 0.734375 -1.6875q0.515625 -0.640625 1.46875 -0.984375q0.96875 -0.359375 2.25 -0.359375q1.265625 0 2.046875 0.296875q0.78125 0.296875 1.15625 0.75q0.375 0.453125 0.515625 1.140625q0.09375 0.421875 0.09375 1.53125l0 2.234375q0 2.328125 0.09375 2.953125q0.109375 0.609375 0.4375 1.171875l-1.75 0q-0.265625 -0.515625 -0.328125 -1.21875zm-0.140625 -3.71875q-0.90625 0.359375 -2.734375 0.625q-1.03125 0.140625 -1.453125 0.328125q-0.421875 0.1875 -0.65625 0.546875q-0.234375 0.359375 -0.234375 0.796875q0 0.671875 0.5 1.125q0.515625 0.4375 1.484375 0.4375q0.96875 0 1.71875 -0.421875q0.75 -0.4375 1.109375 -1.15625q0.265625 -0.578125 0.265625 -1.671875l0 -0.609375zm7.735092 3.4375l0.234375 1.484375q-0.703125 0.140625 -1.265625 0.140625q-0.90625 0 -1.40625 -0.28125q-0.5 -0.296875 -0.703125 -0.75q-0.203125 -0.46875 -0.203125 -1.984375l0 -5.65625l-1.234375 0l0 -1.3125l1.234375 0l0 -2.4375l1.65625 -1.0l0 3.4375l1.6875 0l0 1.3125l-1.6875 0l0 5.75q0 0.71875 0.078125 0.921875q0.09375 0.203125 0.296875 0.328125q0.203125 0.125 0.578125 0.125q0.265625 0 0.734375 -0.078125zm8.277054 -1.671875l1.71875 0.21875q-0.40625 1.5 -1.515625 2.34375q-1.09375 0.828125 -2.8125 0.828125q-2.15625 0 -3.421875 -1.328125q-1.265625 -1.328125 -1.265625 -3.734375q0 -2.484375 1.265625 -3.859375q1.28125 -1.375 3.328125 -1.375q1.984375 0 3.234375 1.34375q1.25 1.34375 1.25 3.796875q0 0.140625 -0.015625 0.4375l-7.34375 0q0.09375 1.625 0.921875 2.484375q0.828125 0.859375 2.0625 0.859375q0.90625 0 1.546875 -0.46875q0.65625 -0.484375 1.046875 -1.546875zm-5.484375 -2.703125l5.5 0q-0.109375 -1.234375 -0.625 -1.859375q-0.796875 -0.96875 -2.078125 -0.96875q-1.140625 0 -1.9375 0.78125q-0.78125 0.765625 -0.859375 2.046875z" fill-rule="nonzero"></path><path fill="#000000" fill-opacity="0.0" d="m166.35695 -8.0l117.85826 0l0 186.86613l-117.85826 0z" fill-rule="evenodd"></path><path fill="#38761d" d="m176.21632 14.544998l1.6875 -0.140625q0.125 1.015625 0.5625 1.671875q0.4375 0.65625 1.359375 1.0625q0.9375 0.40625 2.09375 0.40625q1.03125 0 1.8125 -0.3125q0.796875 -0.3125 1.1875 -0.84375q0.390625 -0.53125 0.390625 -1.15625q0 -0.640625 -0.375 -1.109375q-0.375 -0.484375 -1.234375 -0.8125q-0.546875 -0.21875 -2.421875 -0.65625q-1.875 -0.453125 -2.625 -0.859375q-0.96875 -0.515625 -1.453125 -1.265625q-0.46875 -0.75 -0.46875 -1.6875q0 -1.03125 0.578125 -1.921875q0.59375 -0.90625 1.703125 -1.359375q1.125 -0.46875 2.5 -0.46875q1.515625 0 2.671875 0.484375q1.15625 0.484375 1.765625 1.4375q0.625 0.9375 0.671875 2.140625l-1.71875 0.125q-0.140625 -1.28125 -0.953125 -1.9375q-0.796875 -0.671875 -2.359375 -0.671875q-1.625 0 -2.375 0.609375q-0.75 0.59375 -0.75 1.4375q0 0.734375 0.53125 1.203125q0.515625 0.46875 2.703125 0.96875q2.203125 0.5 3.015625 0.875q1.1875 0.546875 1.75 1.390625q0.578125 0.828125 0.578125 1.921875q0 1.09375 -0.625 2.0625q-0.625 0.953125 -1.796875 1.484375q-1.15625 0.53125 -2.609375 0.53125q-1.84375 0 -3.09375 -0.53125q-1.25 -0.546875 -1.96875 -1.625q-0.703125 -1.078125 -0.734375 -2.453125zm19.271698 3.15625q-0.9375 0.796875 -1.796875 1.125q-0.859375 0.3125 -1.84375 0.3125q-1.609375 0 -2.484375 -0.78125q-0.875 -0.796875 -0.875 -2.03125q0 -0.734375 0.328125 -1.328125q0.328125 -0.59375 0.859375 -0.953125q0.53125 -0.359375 1.203125 -0.546875q0.5 -0.140625 1.484375 -0.25q2.03125 -0.25 2.984375 -0.578125q0 -0.34375 0 -0.4375q0 -1.015625 -0.46875 -1.4375q-0.640625 -0.5625 -1.90625 -0.5625q-1.171875 0 -1.734375 0.40625q-0.5625 0.40625 -0.828125 1.46875l-1.640625 -0.234375q0.234375 -1.046875 0.734375 -1.6875q0.515625 -0.640625 1.46875 -0.984375q0.96875 -0.359375 2.25 -0.359375q1.265625 0 2.046875 0.296875q0.78125 0.296875 1.15625 0.75q0.375 0.453125 0.515625 1.140625q0.09375 0.421875 0.09375 1.53125l0 2.234375q0 2.328125 0.09375 2.953125q0.109375 0.609375 0.4375 1.171875l-1.75 0q-0.265625 -0.515625 -0.328125 -1.21875zm-0.140625 -3.71875q-0.90625 0.359375 -2.734375 0.625q-1.03125 0.140625 -1.453125 0.328125q-0.421875 0.1875 -0.65625 0.546875q-0.234375 0.359375 -0.234375 0.796875q0 0.671875 0.5 1.125q0.515625 0.4375 1.484375 0.4375q0.96875 0 1.71875 -0.421875q0.75 -0.4375 1.109375 -1.15625q0.265625 -0.578125 0.265625 -1.671875l0 -0.609375zm6.813217 4.9375l-3.75 -9.859375l1.765625 0l2.125 5.90625q0.34375 0.953125 0.625 1.984375q0.21875 -0.78125 0.625 -1.875l2.1875 -6.015625l1.71875 0l-3.734375 9.859375l-1.5625 0zm13.34375 -3.171875l1.71875 0.21875q-0.40625 1.5 -1.515625 2.34375q-1.09375 0.828125 -2.8125 0.828125q-2.15625 0 -3.421875 -1.328125q-1.265625 -1.328125 -1.265625 -3.734375q0 -2.484375 1.265625 -3.859375q1.28125 -1.375 3.328125 -1.375q1.984375 0 3.234375 1.34375q1.25 1.34375 1.25 3.796875q0 0.140625 -0.015625 0.4375l-7.34375 0q0.09375 1.625 0.921875 2.484375q0.828125 0.859375 2.0625 0.859375q0.90625 0 1.546875 -0.46875q0.65625 -0.484375 1.046875 -1.546875zm-5.484375 -2.703125l5.5 0q-0.109375 -1.234375 -0.625 -1.859375q-0.796875 -0.96875 -2.078125 -0.96875q-1.140625 0 -1.9375 0.78125q-0.78125 0.765625 -0.859375 2.046875zm13.621521 2.9375l1.65625 -0.265625q0.140625 1.0 0.765625 1.53125q0.640625 0.515625 1.78125 0.515625q1.15625 0 1.703125 -0.46875q0.5625 -0.46875 0.5625 -1.09375q0 -0.5625 -0.484375 -0.890625q-0.34375 -0.21875 -1.703125 -0.5625q-1.84375 -0.46875 -2.5625 -0.796875q-0.703125 -0.34375 -1.078125 -0.9375q-0.359375 -0.609375 -0.359375 -1.328125q0 -0.65625 0.296875 -1.21875q0.3125 -0.5625 0.828125 -0.9375q0.390625 -0.28125 1.0625 -0.484375q0.671875 -0.203125 1.4375 -0.203125q1.171875 0 2.046875 0.34375q0.875 0.328125 1.28125 0.90625q0.421875 0.5625 0.578125 1.515625l-1.625 0.21875q-0.109375 -0.75 -0.65625 -1.171875q-0.53125 -0.4375 -1.5 -0.4375q-1.15625 0 -1.640625 0.390625q-0.484375 0.375 -0.484375 0.875q0 0.328125 0.203125 0.59375q0.203125 0.265625 0.640625 0.4375q0.25 0.09375 1.46875 0.4375q1.765625 0.46875 2.46875 0.765625q0.703125 0.296875 1.09375 0.875q0.40625 0.578125 0.40625 1.4375q0 0.828125 -0.484375 1.578125q-0.484375 0.734375 -1.40625 1.140625q-0.921875 0.390625 -2.078125 0.390625q-1.921875 0 -2.9375 -0.796875q-1.0 -0.796875 -1.28125 -2.359375zm13.65625 1.4375l0.234375 1.484375q-0.703125 0.140625 -1.265625 0.140625q-0.90625 0 -1.40625 -0.28125q-0.5 -0.296875 -0.703125 -0.75q-0.203125 -0.46875 -0.203125 -1.984375l0 -5.65625l-1.234375 0l0 -1.3125l1.234375 0l0 -2.4375l1.65625 -1.0l0 3.4375l1.6875 0l0 1.3125l-1.6875 0l0 5.75q0 0.71875 0.078125 0.921875q0.09375 0.203125 0.296875 0.328125q0.203125 0.125 0.578125 0.125q0.265625 0 0.734375 -0.078125zm7.964554 0.28125q-0.9375 0.796875 -1.796875 1.125q-0.859375 0.3125 -1.84375 0.3125q-1.609375 0 -2.484375 -0.78125q-0.875 -0.796875 -0.875 -2.03125q0 -0.734375 0.328125 -1.328125q0.328125 -0.59375 0.859375 -0.953125q0.53125 -0.359375 1.203125 -0.546875q0.5 -0.140625 1.484375 -0.25q2.03125 -0.25 2.984375 -0.578125q0 -0.34375 0 -0.4375q0 -1.015625 -0.46875 -1.4375q-0.640625 -0.5625 -1.90625 -0.5625q-1.171875 0 -1.734375 0.40625q-0.5625 0.40625 -0.828125 1.46875l-1.640625 -0.234375q0.234375 -1.046875 0.734375 -1.6875q0.515625 -0.640625 1.46875 -0.984375q0.96875 -0.359375 2.25 -0.359375q1.265625 0 2.046875 0.296875q0.78125 0.296875 1.15625 0.75q0.375 0.453125 0.515625 1.140625q0.09375 0.421875 0.09375 1.53125l0 2.234375q0 2.328125 0.09375 2.953125q0.109375 0.609375 0.4375 1.171875l-1.75 0q-0.265625 -0.515625 -0.328125 -1.21875zm-0.140625 -3.71875q-0.90625 0.359375 -2.734375 0.625q-1.03125 0.140625 -1.453125 0.328125q-0.421875 0.1875 -0.65625 0.546875q-0.234375 0.359375 -0.234375 0.796875q0 0.671875 0.5 1.125q0.515625 0.4375 1.484375 0.4375q0.96875 0 1.71875 -0.421875q0.75 -0.4375 1.109375 -1.15625q0.265625 -0.578125 0.265625 -1.671875l0 -0.609375zm7.735092 3.4375l0.234375 1.484375q-0.703125 0.140625 -1.265625 0.140625q-0.90625 0 -1.40625 -0.28125q-0.5 -0.296875 -0.703125 -0.75q-0.203125 -0.46875 -0.203125 -1.984375l0 -5.65625l-1.234375 0l0 -1.3125l1.234375 0l0 -2.4375l1.65625 -1.0l0 3.4375l1.6875 0l0 1.3125l-1.6875 0l0 5.75q0 0.71875 0.078125 0.921875q0.09375 0.203125 0.296875 0.328125q0.203125 0.125 0.578125 0.125q0.265625 0 0.734375 -0.078125zm8.277069 -1.671875l1.71875 0.21875q-0.40625 1.5 -1.515625 2.34375q-1.09375 0.828125 -2.8125 0.828125q-2.15625 0 -3.4218903 -1.328125q-1.265625 -1.328125 -1.265625 -3.734375q0 -2.484375 1.265625 -3.859375q1.2812653 -1.375 3.3281403 -1.375q1.984375 0 3.234375 1.34375q1.25 1.34375 1.25 3.796875q0 0.140625 -0.015625 0.4375l-7.3437653 0q0.09375 1.625 0.92189026 2.484375q0.828125 0.859375 2.0625 0.859375q0.90625 0 1.546875 -0.46875q0.65625 -0.484375 1.046875 -1.546875zm-5.4843903 -2.703125l5.5000153 0q-0.109375 -1.234375 -0.625 -1.859375q-0.796875 -0.96875 -2.078125 -0.96875q-1.140625 0 -1.9375 0.78125q-0.78126526 0.765625 -0.85939026 2.046875z" fill-rule="nonzero"></path><path fill="#000000" d="m180.65382 52.92l0 -5.765625l-5.234375 -7.828125l2.1875 0l2.671875 4.09375q0.75 1.15625 1.390625 2.296875q0.609375 -1.0625 1.484375 -2.40625l2.625 -3.984375l2.109375 0l-5.4375 7.828125l0 5.765625l-1.796875 0zm22.361252 -8.0l-8.96875 0l0 -1.5625l8.96875 0l0 1.5625zm0 4.125l-8.96875 0l0 -1.546875l8.96875 0l0 1.546875z" fill-rule="nonzero"></path><path fill="#ff0000" d="m209.14021 52.92l5.265625 -7.09375l-4.640625 -6.5l2.140625 0l2.46875 3.484375q0.78125 1.078125 1.09375 1.671875q0.453125 -0.75 1.078125 -1.546875l2.734375 -3.609375l1.96875 0l-4.78125 6.40625l5.140625 7.1875l-2.21875 0l-3.421875 -4.859375q-0.296875 -0.40625 -0.59375 -0.90625q-0.453125 0.75 -0.65625 1.03125l-3.40625 4.734375l-2.171875 0z" fill-rule="nonzero"></path><path fill="#000000" d="m231.45459 50.716873l0 -3.71875l-3.703125 0l0 -1.5625l3.703125 0l0 -3.703125l1.578125 0l0 3.703125l3.6875 0l0 1.5625l-3.6875 0l0 3.71875l-1.578125 0zm18.390762 2.203125l-1.671875 0l0 -10.640625q-0.59375 0.578125 -1.578125 1.15625q-0.984375 0.5625 -1.765625 0.859375l0 -1.625q1.40625 -0.65625 2.453125 -1.59375q1.046875 -0.9375 1.484375 -1.8125l1.078125 0l0 13.65625z" fill-rule="nonzero"></path><path fill="#000000" d="m175.73195 86.92l0 -1.671875l6.96875 -8.703125q0.75 -0.9375 1.421875 -1.625l-7.59375 0l0 -1.59375l9.734375 0l0 1.59375l-7.625 9.4375l-0.828125 0.953125l8.6875 0l0 1.609375l-10.765625 0zm26.235535 -8.0l-8.96875 0l0 -1.5625l8.96875 0l0 1.5625zm0 4.125l-8.96875 0l0 -1.546875l8.96875 0l0 1.546875zm11.343887 3.875l0 -5.765625l-5.234375 -7.828125l2.1875 0l2.671875 4.09375q0.75 1.15625 1.390625 2.296875q0.609375 -1.0625 1.484375 -2.40625l2.625 -3.984375l2.109375 0l-5.4375 7.828125l0 5.765625l-1.796875 0zm17.095627 -2.203125l0 -3.71875l-3.703125 0l0 -1.5625l3.703125 0l0 -3.703125l1.578125 0l0 3.703125l3.6875 0l0 1.5625l-3.6875 0l0 3.71875l-1.578125 0zm18.390762 2.203125l-1.671875 0l0 -10.640625q-0.59375 0.578125 -1.578125 1.15625q-0.984375 0.5625 -1.765625 0.859375l0 -1.625q1.40625 -0.65625 2.453125 -1.59375q1.046875 -0.9375 1.484375 -1.8125l1.078125 0l0 13.65625z" fill-rule="nonzero"></path><path fill="#ff0000" d="m175.43507 120.92l5.265625 -7.09375l-4.640625 -6.5l2.140625 0l2.46875 3.484375q0.78125 1.078125 1.09375 1.671875q0.453125 -0.75 1.078125 -1.546875l2.734375 -3.609375l1.96875 0l-4.78125 6.40625l5.140625 7.1875l-2.21875 0l-3.421875 -4.859375q-0.296875 -0.40625 -0.59375 -0.90625q-0.453125 0.75 -0.65625 1.03125l-3.40625 4.734375l-2.171875 0z" fill-rule="nonzero"></path><path fill="#000000" d="m197.83177 112.92l-8.96875 0l0 -1.5625l8.96875 0l0 1.5625zm0 4.125l-8.96875 0l0 -1.546875l8.96875 0l0 1.546875zm6.4220123 3.875l0 -1.671875l6.96875 -8.703125q0.75 -0.9375 1.421875 -1.625l-7.59375 0l0 -1.59375l9.734375 0l0 1.59375l-7.625 9.4375l-0.828125 0.953125l8.6875 0l0 1.609375l-10.765625 0zm20.96991 -2.203125l0 -3.71875l-3.703125 0l0 -1.5625l3.703125 0l0 -3.703125l1.578125 0l0 3.703125l3.6875 0l0 1.5625l-3.6875 0l0 3.71875l-1.578125 0zm18.390762 2.203125l-1.671875 0l0 -10.640625q-0.59375 0.578125 -1.578125 1.15625q-0.984375 0.5625 -1.765625 0.859375l0 -1.625q1.40625 -0.65625 2.453125 -1.59375q1.046875 -0.9375 1.484375 -1.8125l1.078125 0l0 13.65625z" fill-rule="nonzero"></path><path fill="#38761d" d="m176.21632 150.545l1.6875 -0.140625q0.125 1.015625 0.5625 1.671875q0.4375 0.65625 1.359375 1.0625q0.9375 0.40625 2.09375 0.40625q1.03125 0 1.8125 -0.3125q0.796875 -0.3125 1.1875 -0.84375q0.390625 -0.53125 0.390625 -1.15625q0 -0.640625 -0.375 -1.109375q-0.375 -0.484375 -1.234375 -0.8125q-0.546875 -0.21875 -2.421875 -0.65625q-1.875 -0.453125 -2.625 -0.859375q-0.96875 -0.515625 -1.453125 -1.265625q-0.46875 -0.75 -0.46875 -1.6875q0 -1.03125 0.578125 -1.921875q0.59375 -0.90625 1.703125 -1.359375q1.125 -0.46875 2.5 -0.46875q1.515625 0 2.671875 0.484375q1.15625 0.484375 1.765625 1.4375q0.625 0.9375 0.671875 2.140625l-1.71875 0.125q-0.140625 -1.28125 -0.953125 -1.9375q-0.796875 -0.671875 -2.359375 -0.671875q-1.625 0 -2.375 0.609375q-0.75 0.59375 -0.75 1.4375q0 0.734375 0.53125 1.203125q0.515625 0.46875 2.703125 0.96875q2.203125 0.5 3.015625 0.875q1.1875 0.546875 1.75 1.390625q0.578125 0.828125 0.578125 1.921875q0 1.09375 -0.625 2.0625q-0.625 0.953125 -1.796875 1.484375q-1.15625 0.53125 -2.609375 0.53125q-1.84375 0 -3.09375 -0.53125q-1.25 -0.546875 -1.96875 -1.625q-0.703125 -1.078125 -0.734375 -2.453125zm19.271698 3.15625q-0.9375 0.796875 -1.796875 1.125q-0.859375 0.3125 -1.84375 0.3125q-1.609375 0 -2.484375 -0.78125q-0.875 -0.796875 -0.875 -2.03125q0 -0.734375 0.328125 -1.328125q0.328125 -0.59375 0.859375 -0.953125q0.53125 -0.359375 1.203125 -0.546875q0.5 -0.140625 1.484375 -0.25q2.03125 -0.25 2.984375 -0.578125q0 -0.34375 0 -0.4375q0 -1.015625 -0.46875 -1.4375q-0.640625 -0.5625 -1.90625 -0.5625q-1.171875 0 -1.734375 0.40625q-0.5625 0.40625 -0.828125 1.46875l-1.640625 -0.234375q0.234375 -1.046875 0.734375 -1.6875q0.515625 -0.640625 1.46875 -0.984375q0.96875 -0.359375 2.25 -0.359375q1.265625 0 2.046875 0.296875q0.78125 0.296875 1.15625 0.75q0.375 0.453125 0.515625 1.140625q0.09375 0.421875 0.09375 1.53125l0 2.234375q0 2.328125 0.09375 2.953125q0.109375 0.609375 0.4375 1.171875l-1.75 0q-0.265625 -0.515625 -0.328125 -1.21875zm-0.140625 -3.71875q-0.90625 0.359375 -2.734375 0.625q-1.03125 0.140625 -1.453125 0.328125q-0.421875 0.1875 -0.65625 0.546875q-0.234375 0.359375 -0.234375 0.796875q0 0.671875 0.5 1.125q0.515625 0.4375 1.484375 0.4375q0.96875 0 1.71875 -0.421875q0.75 -0.4375 1.109375 -1.15625q0.265625 -0.578125 0.265625 -1.671875l0 -0.609375zm6.813217 4.9375l-3.75 -9.859375l1.765625 0l2.125 5.90625q0.34375 0.953125 0.625 1.984375q0.21875 -0.78125 0.625 -1.875l2.1875 -6.015625l1.71875 0l-3.734375 9.859375l-1.5625 0zm13.34375 -3.171875l1.71875 0.21875q-0.40625 1.5 -1.515625 2.34375q-1.09375 0.828125 -2.8125 0.828125q-2.15625 0 -3.421875 -1.328125q-1.265625 -1.328125 -1.265625 -3.734375q0 -2.484375 1.265625 -3.859375q1.28125 -1.375 3.328125 -1.375q1.984375 0 3.234375 1.34375q1.25 1.34375 1.25 3.796875q0 0.140625 -0.015625 0.4375l-7.34375 0q0.09375 1.625 0.921875 2.484375q0.828125 0.859375 2.0625 0.859375q0.90625 0 1.546875 -0.46875q0.65625 -0.484375 1.046875 -1.546875zm-5.484375 -2.703125l5.5 0q-0.109375 -1.234375 -0.625 -1.859375q-0.796875 -0.96875 -2.078125 -0.96875q-1.140625 0 -1.9375 0.78125q-0.78125 0.765625 -0.859375 2.046875zm13.621521 2.9375l1.65625 -0.265625q0.140625 1.0 0.765625 1.53125q0.640625 0.515625 1.78125 0.515625q1.15625 0 1.703125 -0.46875q0.5625 -0.46875 0.5625 -1.09375q0 -0.5625 -0.484375 -0.890625q-0.34375 -0.21875 -1.703125 -0.5625q-1.84375 -0.46875 -2.5625 -0.796875q-0.703125 -0.34375 -1.078125 -0.9375q-0.359375 -0.609375 -0.359375 -1.328125q0 -0.65625 0.296875 -1.21875q0.3125 -0.5625 0.828125 -0.9375q0.390625 -0.28125 1.0625 -0.484375q0.671875 -0.203125 1.4375 -0.203125q1.171875 0 2.046875 0.34375q0.875 0.328125 1.28125 0.90625q0.421875 0.5625 0.578125 1.515625l-1.625 0.21875q-0.109375 -0.75 -0.65625 -1.171875q-0.53125 -0.4375 -1.5 -0.4375q-1.15625 0 -1.640625 0.390625q-0.484375 0.375 -0.484375 0.875q0 0.328125 0.203125 0.59375q0.203125 0.265625 0.640625 0.4375q0.25 0.09375 1.46875 0.4375q1.765625 0.46875 2.46875 0.765625q0.703125 0.296875 1.09375 0.875q0.40625 0.578125 0.40625 1.4375q0 0.828125 -0.484375 1.578125q-0.484375 0.734375 -1.40625 1.140625q-0.921875 0.390625 -2.078125 0.390625q-1.921875 0 -2.9375 -0.796875q-1.0 -0.796875 -1.28125 -2.359375zm13.65625 1.4375l0.234375 1.484375q-0.703125 0.140625 -1.265625 0.140625q-0.90625 0 -1.40625 -0.28125q-0.5 -0.296875 -0.703125 -0.75q-0.203125 -0.46875 -0.203125 -1.984375l0 -5.65625l-1.234375 0l0 -1.3125l1.234375 0l0 -2.4375l1.65625 -1.0l0 3.4375l1.6875 0l0 1.3125l-1.6875 0l0 5.75q0 0.71875 0.078125 0.921875q0.09375 0.203125 0.296875 0.328125q0.203125 0.125 0.578125 0.125q0.265625 0 0.734375 -0.078125zm7.964554 0.28125q-0.9375 0.796875 -1.796875 1.125q-0.859375 0.3125 -1.84375 0.3125q-1.609375 0 -2.484375 -0.78125q-0.875 -0.796875 -0.875 -2.03125q0 -0.734375 0.328125 -1.328125q0.328125 -0.59375 0.859375 -0.953125q0.53125 -0.359375 1.203125 -0.546875q0.5 -0.140625 1.484375 -0.25q2.03125 -0.25 2.984375 -0.578125q0 -0.34375 0 -0.4375q0 -1.015625 -0.46875 -1.4375q-0.640625 -0.5625 -1.90625 -0.5625q-1.171875 0 -1.734375 0.40625q-0.5625 0.40625 -0.828125 1.46875l-1.640625 -0.234375q0.234375 -1.046875 0.734375 -1.6875q0.515625 -0.640625 1.46875 -0.984375q0.96875 -0.359375 2.25 -0.359375q1.265625 0 2.046875 0.296875q0.78125 0.296875 1.15625 0.75q0.375 0.453125 0.515625 1.140625q0.09375 0.421875 0.09375 1.53125l0 2.234375q0 2.328125 0.09375 2.953125q0.109375 0.609375 0.4375 1.171875l-1.75 0q-0.265625 -0.515625 -0.328125 -1.21875zm-0.140625 -3.71875q-0.90625 0.359375 -2.734375 0.625q-1.03125 0.140625 -1.453125 0.328125q-0.421875 0.1875 -0.65625 0.546875q-0.234375 0.359375 -0.234375 0.796875q0 0.671875 0.5 1.125q0.515625 0.4375 1.484375 0.4375q0.96875 0 1.71875 -0.421875q0.75 -0.4375 1.109375 -1.15625q0.265625 -0.578125 0.265625 -1.671875l0 -0.609375zm7.735092 3.4375l0.234375 1.484375q-0.703125 0.140625 -1.265625 0.140625q-0.90625 0 -1.40625 -0.28125q-0.5 -0.296875 -0.703125 -0.75q-0.203125 -0.46875 -0.203125 -1.984375l0 -5.65625l-1.234375 0l0 -1.3125l1.234375 0l0 -2.4375l1.65625 -1.0l0 3.4375l1.6875 0l0 1.3125l-1.6875 0l0 5.75q0 0.71875 0.078125 0.921875q0.09375 0.203125 0.296875 0.328125q0.203125 0.125 0.578125 0.125q0.265625 0 0.734375 -0.078125zm8.277069 -1.671875l1.71875 0.21875q-0.40625 1.5 -1.515625 2.34375q-1.09375 0.828125 -2.8125 0.828125q-2.15625 0 -3.4218903 -1.328125q-1.265625 -1.328125 -1.265625 -3.734375q0 -2.484375 1.265625 -3.859375q1.2812653 -1.375 3.3281403 -1.375q1.984375 0 3.234375 1.34375q1.25 1.34375 1.25 3.796875q0 0.140625 -0.015625 0.4375l-7.3437653 0q0.09375 1.625 0.92189026 2.484375q0.828125 0.859375 2.0625 0.859375q0.90625 0 1.546875 -0.46875q0.65625 -0.484375 1.046875 -1.546875zm-5.4843903 -2.703125l5.5000153 0q-0.109375 -1.234375 -0.625 -1.859375q-0.796875 -0.96875 -2.078125 -0.96875q-1.140625 0 -1.9375 0.78125q-0.78126526 0.765625 -0.85939026 2.046875z" fill-rule="nonzero"></path><path fill="#000000" fill-opacity="0.0" d="m118.16798 12.622047l0 208.09448" fill-rule="evenodd"></path><path stroke="#000000" stroke-width="1.0" stroke-linejoin="round" stroke-linecap="butt" d="m118.16798 18.622047l0 196.09448" fill-rule="evenodd"></path><path fill="#000000" stroke="#000000" stroke-width="1.0" stroke-linecap="butt" d="m119.81971 18.622047l-1.6517334 -4.5380983l-1.6517334 4.5380983z" fill-rule="evenodd"></path><path fill="#000000" stroke="#000000" stroke-width="1.0" stroke-linecap="butt" d="m116.51624 214.71654l1.6517334 4.538101l1.6517334 -4.538101z" fill-rule="evenodd"></path><path fill="#000000" fill-opacity="0.0" d="m107.94149 183.02246l0 -133.73227l23.401573 0l0 133.73227z" fill-rule="evenodd"></path><path fill="#000000" d="m130.48648 173.16309l-0.140625 -1.6875q1.015625 -0.125 1.671875 -0.5625q0.65625 -0.4375 1.0625 -1.359375q0.40625 -0.9375 0.40625 -2.09375q0 -1.03125 -0.3125 -1.8125q-0.3125 -0.796875 -0.84375 -1.1875q-0.53125 -0.390625 -1.15625 -0.390625q-0.640625 0 -1.109375 0.375q-0.484375 0.375 -0.8125 1.234375q-0.21875 0.546875 -0.65625 2.421875q-0.453125 1.875 -0.8593674 2.625q-0.515625 0.96875 -1.265625 1.453125q-0.75 0.46875 -1.6875 0.46875q-1.03125 0 -1.921875 -0.578125q-0.90625 -0.59375 -1.359375 -1.703125q-0.46875 -1.125 -0.46875 -2.5q0 -1.515625 0.484375 -2.671875q0.484375 -1.15625 1.4375 -1.765625q0.9375 -0.625 2.140625 -0.671875l0.125 1.71875q-1.28125 0.140625 -1.9375 0.953125q-0.671875 0.796875 -0.671875 2.359375q0 1.625 0.609375 2.375q0.59375 0.75 1.4375 0.75q0.734375 0 1.203125 -0.53125q0.46875 -0.515625 0.96875 -2.703125q0.5 -2.203125 0.875 -3.015625q0.5468674 -1.1875 1.3906174 -1.75q0.828125 -0.578125 1.921875 -0.578125q1.09375 0 2.0625 0.625q0.953125 0.625 1.484375 1.796875q0.53125 1.15625 0.53125 2.609375q0 1.84375 -0.53125 3.09375q-0.546875 1.25 -1.625 1.96875q-1.078125 0.703125 -2.453125 0.734375zm2.875 -16.490448l1.484375 -0.234375q0.140625 0.703125 0.140625 1.265625q0 0.90625 -0.28125 1.40625q-0.296875 0.5 -0.75 0.703125q-0.46875 0.203125 -1.984375 0.203125l-5.6562424 0l0 1.234375l-1.3125 0l0 -1.234375l-2.4375 0l-1.0 -1.65625l3.4375 0l0 -1.6875l1.3125 0l0 1.6875l5.7499924 0q0.71875 0 0.921875 -0.078125q0.203125 -0.09375 0.328125 -0.296875q0.125 -0.203125 0.125 -0.578125q0 -0.265625 -0.078125 -0.734375zm0.28125 -7.964554q0.796875 0.9375 1.125 1.796875q0.3125 0.859375 0.3125 1.84375q0 1.609375 -0.78125 2.484375q-0.796875 0.875 -2.03125 0.875q-0.734375 0 -1.328125 -0.328125q-0.59375 -0.328125 -0.953125 -0.859375q-0.359375 -0.53125 -0.546875 -1.203125q-0.140625 -0.5 -0.25 -1.484375q-0.25 -2.03125 -0.578125 -2.984375q-0.34375 0 -0.4375 0q-1.0156174 0 -1.4374924 0.46875q-0.5625 0.640625 -0.5625 1.90625q0 1.171875 0.40625 1.734375q0.40625 0.5625 1.4687424 0.828125l-0.23436737 1.640625q-1.046875 -0.234375 -1.6875 -0.734375q-0.640625 -0.515625 -0.984375 -1.46875q-0.359375 -0.96875 -0.359375 -2.25q0 -1.265625 0.296875 -2.046875q0.296875 -0.78125 0.75 -1.15625q0.453125 -0.375 1.140625 -0.515625q0.421875 -0.09375 1.5312424 -0.09375l2.234375 0q2.328125 0 2.953125 -0.09375q0.609375 -0.109375 1.171875 -0.4375l0 1.75q-0.515625 0.265625 -1.21875 0.328125zm-3.71875 0.140625q0.359375 0.90625 0.625 2.734375q0.140625 1.03125 0.328125 1.453125q0.1875 0.421875 0.546875 0.65625q0.359375 0.234375 0.796875 0.234375q0.671875 0 1.125 -0.5q0.4375 -0.515625 0.4375 -1.484375q0 -0.96875 -0.421875 -1.71875q-0.4375 -0.75 -1.15625 -1.109375q-0.578125 -0.265625 -1.671875 -0.265625l-0.609375 0zm3.4375 -7.735092l1.484375 -0.234375q0.140625 0.703125 0.140625 1.265625q0 0.90625 -0.28125 1.40625q-0.296875 0.5 -0.75 0.703125q-0.46875 0.203125 -1.984375 0.203125l-5.6562424 0l0 1.234375l-1.3125 0l0 -1.234375l-2.4375 0l-1.0 -1.65625l3.4375 0l0 -1.6875l1.3125 0l0 1.6875l5.7499924 0q0.71875 0 0.921875 -0.078125q0.203125 -0.09375 0.328125 -0.296875q0.125 -0.203125 0.125 -0.578125q0 -0.265625 -0.078125 -0.734375zm-10.187492 -1.5426788l-1.90625 0l0 -1.671875l1.90625 0l0 1.671875zm11.687492 0l-9.859367 0l0 -1.671875l9.859367 0l0 1.671875zm-3.609375 -10.566696l0.21875 -1.6406174q1.6875 0.265625 2.65625 1.3749924q0.953125 1.109375 0.953125 2.734375q0 2.015625 -1.3125 3.25q-1.328125 1.21875 -3.796875 1.21875q-1.59375 0 -2.7812424 -0.515625q-1.203125 -0.53125 -1.796875 -1.609375q-0.609375 -1.09375 -0.609375 -2.359375q0 -1.609375 0.8125 -2.625q0.8125 -1.0156174 2.3125 -1.3124924l0.24999237 1.6249924q-0.9999924 0.234375 -1.4999924 0.828125q-0.5 0.59375 -0.5 1.421875q0 1.265625 0.90625 2.0625q0.90625 0.78125 2.8593674 0.78125q1.984375 0 2.890625 -0.765625q0.890625 -0.765625 0.890625 -1.984375q0 -0.984375 -0.59375 -1.640625q-0.609375 -0.65625 -1.859375 -0.84375zm0.671875 -7.402046l-0.265625 -1.65625q1.0 -0.140625 1.53125 -0.765625q0.515625 -0.640625 0.515625 -1.78125q0 -1.15625 -0.46875 -1.703125q-0.46875 -0.5625 -1.09375 -0.5625q-0.5625 0 -0.890625 0.484375q-0.21875 0.34375 -0.5625 1.703125q-0.46875 1.84375 -0.796875 2.5625q-0.34375 0.703125 -0.9375 1.078125q-0.609375 0.359375 -1.3281174 0.359375q-0.65625 0 -1.21875 -0.296875q-0.5625 -0.3125 -0.9375 -0.828125q-0.28125 -0.390625 -0.484375 -1.0625q-0.203125 -0.671875 -0.203125 -1.4375q0 -1.171875 0.34375 -2.046875q0.328125 -0.875 0.90625 -1.28125q0.5625 -0.421875 1.515625 -0.578125l0.21875 1.625q-0.75 0.109375 -1.171875 0.65625q-0.4375 0.53125 -0.4375 1.5q0 1.15625 0.390625 1.640625q0.375 0.484375 0.875 0.484375q0.328125 0 0.5937424 -0.203125q0.265625 -0.203125 0.4375 -0.640625q0.09375 -0.25 0.4375 -1.46875q0.46875 -1.765625 0.765625 -2.46875q0.296875 -0.703125 0.875 -1.09375q0.578125 -0.40625 1.4375 -0.40625q0.828125 0 1.578125 0.484375q0.734375 0.484375 1.140625 1.40625q0.390625 0.921875 0.390625 2.078125q0 1.921875 -0.796875 2.9375q-0.796875 1.0 -2.359375 1.28125zm1.71875 -16.4375q0.796875 0.9375 1.125 1.796875q0.3125 0.859375 0.3125 1.84375q0 1.609375 -0.78125 2.484375q-0.796875 0.875 -2.03125 0.875q-0.734375 0 -1.328125 -0.328125q-0.59375 -0.328125 -0.953125 -0.859375q-0.359375 -0.53125 -0.546875 -1.203125q-0.140625 -0.5 -0.25 -1.484375q-0.25 -2.03125 -0.578125 -2.984375q-0.34375 0 -0.4375 0q-1.0156174 0 -1.4374924 0.46875q-0.5625 0.640625 -0.5625 1.90625q0 1.171875 0.40625 1.734375q0.40625 0.5625 1.4687424 0.828125l-0.23436737 1.640625q-1.046875 -0.234375 -1.6875 -0.734375q-0.640625 -0.515625 -0.984375 -1.46875q-0.359375 -0.96875 -0.359375 -2.25q0 -1.265625 0.296875 -2.046875q0.296875 -0.78125 0.75 -1.15625q0.453125 -0.375 1.140625 -0.515625q0.421875 -0.09375 1.5312424 -0.09375l2.234375 0q2.328125 0 2.953125 -0.09375q0.609375 -0.109375 1.171875 -0.4375l0 1.75q-0.515625 0.265625 -1.21875 0.328125zm-3.71875 0.140625q0.359375 0.90625 0.625 2.734375q0.140625 1.03125 0.328125 1.453125q0.1875 0.421875 0.546875 0.65625q0.359375 0.234375 0.796875 0.234375q0.671875 0 1.125 -0.5q0.4375 -0.515625 0.4375 -1.484375q0 -0.96875 -0.421875 -1.71875q-0.4375 -0.75 -1.15625 -1.109375q-0.578125 -0.265625 -1.671875 -0.265625l-0.609375 0zm4.9375 -6.813217l-9.859367 3.75l0 -1.765625l5.9062424 -2.125q0.953125 -0.34375 1.984375 -0.625q-0.78125 -0.21875 -1.875 -0.625l-6.0156174 -2.1875l0 -1.71875l9.859367 3.734375l0 1.5625zm-11.687492 -6.609375l-1.90625 0l0 -1.671875l1.90625 0l0 1.671875zm11.687492 0l-9.859367 0l0 -1.671875l9.859367 0l0 1.671875zm0 -4.129196l-9.859367 0l0 -1.5l1.40625 0q-1.625 -1.09375 -1.625 -3.140625q0 -0.890625 0.328125 -1.640625q0.3125 -0.75 0.84375 -1.109375q0.515625 -0.375 1.21875 -0.53125q0.46875 -0.09375 1.6249924 -0.09375l6.0625 0l0 1.671875l-6.0 0q-1.0156174 0 -1.5156174 0.203125q-0.515625 0.1875 -0.8125 0.6875q-0.296875 0.5 -0.296875 1.171875q0 1.0625 0.671875 1.84375q0.671875 0.765625 2.5781174 0.765625l5.375 0l0 1.671875zm0.8125 -10.078842l0.25 -1.609375q0.75 -0.109375 1.09375 -0.578125q0.453125 -0.609375 0.453125 -1.6875q0 -1.171875 -0.46875 -1.796875q-0.453125 -0.625 -1.28125 -0.859375q-0.515625 -0.125 -2.15625 -0.109375q1.296875 1.09375 1.296875 2.71875q0 2.03125 -1.46875 3.15625q-1.46875 1.109375 -3.515625 1.109375q-1.40625 0 -2.5937424 -0.515625q-1.203125 -0.515625 -1.84375 -1.484375q-0.65625 -0.96875 -0.65625 -2.265625q0 -1.75 1.40625 -2.875l-1.1875 0l0 -1.546875l8.515617 0q2.3125 0 3.265625 0.46875q0.96875 0.46875 1.515625 1.484375q0.5625 1.015625 0.5625 2.5q0 1.765625 -0.796875 2.859375q-0.796875 1.078125 -2.390625 1.03125zm-5.921875 -1.375q1.953125 0 2.84375 -0.765625q0.890625 -0.78125 0.890625 -1.9375q0 -1.140625 -0.890625 -1.921875q-0.890625 -0.78125 -2.78125 -0.78125q-1.8125 0 -2.7187424 0.8125q-0.921875 0.796875 -0.921875 1.921875q0 1.109375 0.90625 1.890625q0.890625 0.78125 2.6718674 0.78125z" fill-rule="nonzero"></path><path fill="#000000" fill-opacity="0.0" d="m278.16797 12.622047l0.15750122 139.52756" fill-rule="evenodd"></path><path stroke="#000000" stroke-width="1.0" stroke-linejoin="round" stroke-linecap="butt" d="m278.17474 18.622044l0.14395142 127.52757" fill-rule="evenodd"></path><path fill="#000000" stroke="#000000" stroke-width="1.0" stroke-linecap="butt" d="m279.82648 18.620178l-1.6568604 -4.53623l-1.6466064 4.539959z" fill-rule="evenodd"></path><path fill="#000000" stroke="#000000" stroke-width="1.0" stroke-linecap="butt" d="m276.66696 146.15147l1.6568604 4.5362244l1.6466064 -4.5399475z" fill-rule="evenodd"></path><path fill="#000000" fill-opacity="0.0" d="m267.1993 148.50981l0 -133.73228l23.40158 0l0 133.73228z" fill-rule="evenodd"></path><path fill="#000000" d="m289.07495 139.00981l-0.21875 -1.390625q0.84375 -0.109375 1.296875 -0.640625q0.4375 -0.546875 0.4375 -1.5q0 -0.96875 -0.390625 -1.4375q-0.40625 -0.46875 -0.9375 -0.46875q-0.46875 0 -0.75 0.40625q-0.1875 0.296875 -0.46875 1.4375q-0.390625 1.546875 -0.671875 2.15625q-0.296875 0.59375 -0.796875 0.90625q-0.5 0.296875 -1.109375 0.296875q-0.5625 0 -1.03125 -0.25q-0.46875 -0.25 -0.78125 -0.6875q-0.25 -0.328125 -0.40625 -0.890625q-0.171875 -0.578125 -0.171875 -1.21875q0 -0.984375 0.28125 -1.71875q0.28125 -0.734375 0.765625 -1.078125q0.46875 -0.359375 1.28125 -0.5l0.1875 1.375q-0.640625 0.09375 -1.0 0.546875q-0.359375 0.453125 -0.359375 1.265625q0 0.96875 0.328125 1.390625q0.3125 0.40625 0.734375 0.40625q0.28125 0 0.5 -0.171875q0.21875 -0.171875 0.375 -0.53125q0.078125 -0.21875 0.359375 -1.25q0.390625 -1.484375 0.65625 -2.078125q0.25 -0.59375 0.734375 -0.921875q0.484375 -0.34375 1.203125 -0.34375q0.703125 0 1.328125 0.421875q0.609375 0.40625 0.953125 1.1875q0.34375 0.765625 0.34375 1.734375q0 1.625 -0.671875 2.46875q-0.671875 0.84375 -2.0 1.078125zm-0.1875 -14.234383l0.171875 -1.453125q1.28125 0.34375 1.984375 1.28125q0.703125 0.921875 0.703125 2.359375q0 1.8281326 -1.125 2.8906326q-1.125 1.0625 -3.140625 1.0625q-2.09375 0 -3.25 -1.078125q-1.15625 -1.078125 -1.15625 -2.7968826q0 -1.65625 1.140625 -2.703125q1.125 -1.0625 3.171875 -1.0625q0.125 0 0.375 0l0 6.1875076q1.375 -0.078125 2.109375 -0.765625q0.71875 -0.7031326 0.71875 -1.7343826q0 -0.78125 -0.40625 -1.328125q-0.40625 -0.546875 -1.296875 -0.859375zm-2.28125 4.6093826l0 -4.6250076q-1.046875 0.09375 -1.5625 0.53125q-0.8125 0.671875 -0.8125 1.734375q0 0.96875 0.65625 1.6406326q0.640625 0.65625 1.71875 0.71875zm4.953125 -7.804695l-11.453125 0l0 -1.40625l11.453125 0l0 1.40625zm-2.671875 -9.2578125l0.171875 -1.453125q1.28125 0.34375 1.984375 1.28125q0.703125 0.921875 0.703125 2.359375q0 1.828125 -1.125 2.890625q-1.125 1.0625 -3.140625 1.0625q-2.09375 0 -3.25 -1.078125q-1.15625 -1.078125 -1.15625 -2.796875q0 -1.65625 1.140625 -2.703125q1.125 -1.0625 3.171875 -1.0625q0.125 0 0.375 0l0 6.1875q1.375 -0.078125 2.109375 -0.765625q0.71875 -0.703125 0.71875 -1.734375q0 -0.78125 -0.40625 -1.328125q-0.40625 -0.546875 -1.296875 -0.859375zm-2.28125 4.609375l0 -4.625q-1.046875 0.09375 -1.5625 0.53125q-0.8125 0.671875 -0.8125 1.734375q0 0.96875 0.65625 1.640625q0.640625 0.65625 1.71875 0.71875zm1.90625 -13.2421875l0.1875 -1.390625q1.421875 0.234375 2.234375 1.171875q0.8125 0.921875 0.8125 2.28125q0 1.703125 -1.109375 2.75q-1.125 1.03125 -3.203125 1.03125q-1.34375 0 -2.34375 -0.4375q-1.015625 -0.453125 -1.515625 -1.359375q-0.5 -0.921875 -0.5 -1.984375q0 -1.359375 0.6875 -2.21875q0.671875 -0.859375 1.9375 -1.09375l0.203125 1.359375q-0.828125 0.203125 -1.25 0.703125q-0.421875 0.484375 -0.421875 1.1875q0 1.0625 0.765625 1.734375q0.75 0.65625 2.40625 0.65625q1.671875 0 2.4375 -0.640625q0.75 -0.640625 0.75 -1.671875q0 -0.828125 -0.5 -1.375q-0.515625 -0.5625 -1.578125 -0.703125zm1.78125 -5.65625l1.25 -0.203125q0.125 0.59375 0.125 1.0625q0 0.765625 -0.234375 1.1875q-0.25 0.421875 -0.640625 0.59375q-0.40625 0.171875 -1.671875 0.171875l-4.765625 0l0 1.03125l-1.09375 0l0 -1.03125l-2.0625 0l-0.84375 -1.40625l2.90625 0l0 -1.40625l1.09375 0l0 1.40625l4.84375 0q0.609375 0 0.78125 -0.0625q0.171875 -0.078125 0.28125 -0.25q0.09375 -0.171875 0.09375 -0.484375q0 -0.234375 -0.0625 -0.609375zm-8.578125 -1.3828125l-1.609375 0l0 -1.40625l1.609375 0l0 1.40625zm9.84375 0l-8.296875 0l0 -1.40625l8.296875 0l0 1.40625zm0 -5.8515625l-8.296875 3.15625l0 -1.484375l4.96875 -1.78125q0.796875 -0.296875 1.671875 -0.53125q-0.65625 -0.1875 -1.578125 -0.53125l-5.0625 -1.84375l0 -1.4375l8.296875 3.140625l0 1.3125zm-2.671875 -11.375l0.171875 -1.453125q1.28125 0.34375 1.984375 1.28125q0.703125 0.921875 0.703125 2.359375q0 1.828125 -1.125 2.890625q-1.125 1.0625 -3.140625 1.0625q-2.09375 0 -3.25 -1.078125q-1.15625 -1.078125 -1.15625 -2.796875q0 -1.65625 1.140625 -2.703125q1.125 -1.0625 3.171875 -1.0625q0.125 0 0.375 0l0 6.1875q1.375 -0.078125 2.109375 -0.765625q0.71875 -0.703125 0.71875 -1.734375q0 -0.78125 -0.40625 -1.328125q-0.40625 -0.546875 -1.296875 -0.859375zm-2.28125 4.609375l0 -4.625q-1.046875 0.09375 -1.5625 0.53125q-0.8125 0.671875 -0.8125 1.734375q0 0.96875 0.65625 1.640625q0.640625 0.65625 1.71875 0.71875zm2.46875 -11.71875l-0.21875 -1.390625q0.84375 -0.109375 1.296875 -0.640625q0.4375 -0.546875 0.4375 -1.5q0 -0.96875 -0.390625 -1.4375q-0.40625 -0.46875 -0.9375 -0.46875q-0.46875 0 -0.75 0.40625q-0.1875 0.296875 -0.46875 1.4375q-0.390625 1.546875 -0.671875 2.15625q-0.296875 0.59375 -0.796875 0.90625q-0.5 0.296875 -1.109375 0.296875q-0.5625 0 -1.03125 -0.25q-0.46875 -0.25 -0.78125 -0.6875q-0.25 -0.328125 -0.40625 -0.890625q-0.171875 -0.578125 -0.171875 -1.21875q0 -0.984375 0.28125 -1.71875q0.28125 -0.734375 0.765625 -1.078125q0.46875 -0.359375 1.28125 -0.5l0.1875 1.375q-0.640625 0.09375 -1.0 0.546875q-0.359375 0.453125 -0.359375 1.265625q0 0.96875 0.328125 1.390625q0.3125 0.40625 0.734375 0.40625q0.28125 0 0.5 -0.171875q0.21875 -0.171875 0.375 -0.53125q0.078125 -0.21875 0.359375 -1.25q0.390625 -1.484375 0.65625 -2.078125q0.25 -0.59375 0.734375 -0.921875q0.484375 -0.34375 1.203125 -0.34375q0.703125 0 1.328125 0.421875q0.609375 0.40625 0.953125 1.1875q0.34375 0.765625 0.34375 1.734375q0 1.625 -0.671875 2.46875q-0.671875 0.84375 -2.0 1.078125zm1.453125 -13.96875q0.671875 0.78125 0.953125 1.5q0.265625 0.71875 0.265625 1.546875q0 1.375 -0.671875 2.109375q-0.671875 0.734375 -1.703125 0.734375q-0.609375 0 -1.109375 -0.28125q-0.515625 -0.28125 -0.8125 -0.71875q-0.3125 -0.453125 -0.46875 -1.015625q-0.109375 -0.421875 -0.203125 -1.25q-0.203125 -1.703125 -0.484375 -2.515625q-0.296875 0 -0.375 0q-0.859375 0 -1.203125 0.390625q-0.484375 0.546875 -0.484375 1.609375q0 0.984375 0.359375 1.46875q0.34375 0.46875 1.21875 0.6875l-0.1875 1.375q-0.875 -0.1875 -1.421875 -0.609375q-0.546875 -0.4375 -0.828125 -1.25q-0.296875 -0.8125 -0.296875 -1.875q0 -1.0625 0.25 -1.71875q0.25 -0.671875 0.625 -0.984375q0.375 -0.3125 0.953125 -0.4375q0.359375 -0.078125 1.296875 -0.078125l1.875 0q1.96875 0 2.484375 -0.078125q0.515625 -0.09375 1.0 -0.359375l0 1.46875q-0.4375 0.21875 -1.03125 0.28125zm-3.140625 0.109375q0.3125 0.765625 0.53125 2.296875q0.125 0.875 0.28125 1.234375q0.15625 0.359375 0.46875 0.5625q0.296875 0.1875 0.65625 0.1875q0.5625 0 0.9375 -0.421875q0.375 -0.4375 0.375 -1.25q0 -0.8125 -0.34375 -1.4375q-0.359375 -0.640625 -0.984375 -0.9375q-0.46875 -0.234375 -1.40625 -0.234375l-0.515625 0zm4.171875 -5.8984375l-8.296875 3.15625l0 -1.484375l4.96875 -1.78125q0.796875 -0.296875 1.671875 -0.53125q-0.65625 -0.1875 -1.578125 -0.53125l-5.0625 -1.84375l0 -1.4375l8.296875 3.140625l0 1.3125zm-9.84375 -5.703125l-1.609375 0l0 -1.40625l1.609375 0l0 1.40625zm9.84375 0l-8.296875 0l0 -1.40625l8.296875 0l0 1.40625zm0 -3.5546875l-8.296875 0l0 -1.265625l1.171875 0q-1.359375 -0.90625 -1.359375 -2.640625q0 -0.75 0.265625 -1.375q0.265625 -0.625 0.703125 -0.9375q0.4375 -0.3125 1.046875 -0.4375q0.390625 -0.078125 1.359375 -0.078125l5.109375 0l0 1.40625l-5.046875 0q-0.859375 0 -1.28125 0.171875q-0.4375 0.15625 -0.6875 0.578125q-0.25 0.40625 -0.25 0.96875q0 0.90625 0.578125 1.5625q0.5625 0.640625 2.15625 0.640625l4.53125 0l0 1.40625zm0.6875 -8.6328125l0.203125 -1.375q0.640625 -0.078125 0.921875 -0.46875q0.390625 -0.53125 0.390625 -1.4375q0 -0.96875 -0.390625 -1.5q-0.390625 -0.53125 -1.09375 -0.71875q-0.421875 -0.109375 -1.8125 -0.109375q1.09375 0.921875 1.09375 2.296875q0 1.71875 -1.234375 2.65625q-1.234375 0.9375 -2.96875 0.9375q-1.1875 0 -2.1875 -0.421875q-1.0 -0.4375 -1.546875 -1.25q-0.546875 -0.828125 -0.546875 -1.921875q0 -1.46875 1.1875 -2.421875l-1.0 0l0 -1.296875l7.171875 0q1.9375 0 2.75 0.390625q0.8125 0.390625 1.28125 1.25q0.46875 0.859375 0.46875 2.109375q0 1.484375 -0.671875 2.40625q-0.671875 0.90625 -2.015625 0.875zm-4.984375 -1.171875q1.625 0 2.375 -0.640625q0.75 -0.65625 0.75 -1.625q0 -0.96875 -0.734375 -1.625q-0.75 -0.65625 -2.34375 -0.65625q-1.53125 0 -2.296875 0.671875q-0.78125 0.671875 -0.78125 1.625q0 0.9375 0.765625 1.59375q0.765625 0.65625 2.265625 0.65625z" fill-rule="nonzero"></path></g></svg>

