<?xml version="1.0" standalone="yes"?>

<svg version="1.1" viewBox="0.0 0.0 351.2808398950131 477.9711286089239" fill="none" stroke="none" stroke-linecap="square" stroke-miterlimit="10" xmlns="http://www.w3.org/2000/svg" xmlns:xlink="http://www.w3.org/1999/xlink"><clipPath id="p.0"><path d="m0 0l351.28085 0l0 477.97113l-351.28085 0l0 -477.97113z" clip-rule="nonzero"></path></clipPath><g clip-path="url(#p.0)"><path fill="#000000" fill-opacity="0.0" d="m0 0l351.28085 0l0 477.97113l-351.28085 0z" fill-rule="evenodd"></path><path fill="#000000" fill-opacity="0.0" d="m-5.629921E-4 51.991753l82.48819 0l0 33.228348l-82.48819 0z" fill-rule="evenodd"></path><path fill="#000000" d="m17.093187 76.14863q0 0.0625 -0.03125 0.109375q-0.015625 0.046875 -0.09375 0.078125q-0.078125 0.03125 -0.21875 0.046875q-0.140625 0.015625 -0.375 0.015625q-0.203125 0 -0.34375 -0.015625q-0.125 -0.015625 -0.203125 -0.046875q-0.078125 -0.046875 -0.125 -0.109375q-0.03125 -0.0625 -0.0625 -0.15625l-0.9375 -2.375q-0.15625 -0.40625 -0.34375 -0.75q-0.171875 -0.34375 -0.421875 -0.578125q-0.234375 -0.25 -0.5625 -0.390625q-0.328125 -0.140625 -0.78125 -0.140625l-0.90625 0l0 4.3125q0 0.0625 -0.03125 0.109375q-0.03125 0.046875 -0.109375 0.078125q-0.078125 0.03125 -0.203125 0.046875q-0.125 0.015625 -0.328125 0.015625q-0.1875 0 -0.328125 -0.015625q-0.125 -0.015625 -0.203125 -0.046875q-0.078125 -0.03125 -0.109375 -0.078125q-0.03125 -0.046875 -0.03125 -0.109375l0 -9.359375q0 -0.3125 0.15625 -0.421875q0.171875 -0.125 0.34375 -0.125l2.15625 0q0.375 0 0.625 0.015625q0.265625 0.015625 0.46875 0.046875q0.578125 0.09375 1.03125 0.3125q0.453125 0.21875 0.75 0.5625q0.3125 0.328125 0.453125 0.765625q0.15625 0.4375 0.15625 0.953125q0 0.515625 -0.140625 0.921875q-0.125 0.390625 -0.390625 0.703125q-0.25 0.3125 -0.609375 0.546875q-0.359375 0.21875 -0.8125 0.375q0.25 0.109375 0.453125 0.28125q0.203125 0.15625 0.375 0.390625q0.1875 0.234375 0.34375 0.546875q0.15625 0.296875 0.3125 0.6875l0.90625 2.21875q0.109375 0.28125 0.140625 0.40625q0.03125 0.109375 0.03125 0.171875zm-2.03125 -7.109375q0 -0.59375 -0.265625 -1.0q-0.265625 -0.40625 -0.890625 -0.59375q-0.1875 -0.046875 -0.4375 -0.0625q-0.25 -0.03125 -0.640625 -0.03125l-1.140625 0l0 3.40625l1.3125 0q0.53125 0 0.921875 -0.125q0.390625 -0.140625 0.640625 -0.359375q0.265625 -0.234375 0.375 -0.546875q0.125 -0.3125 0.125 -0.6875zm11.546875 6.828125q0.0625 0.171875 0.0625 0.28125q0 0.109375 -0.0625 0.171875q-0.0625 0.046875 -0.203125 0.0625q-0.140625 0.015625 -0.390625 0.015625q-0.234375 0 -0.390625 -0.015625q-0.140625 0 -0.21875 -0.03125q-0.0625 -0.03125 -0.109375 -0.078125q-0.03125 -0.046875 -0.0625 -0.125l-0.859375 -2.453125l-4.203125 0l-0.828125 2.421875q-0.03125 0.078125 -0.078125 0.125q-0.03125 0.046875 -0.109375 0.09375q-0.0625 0.03125 -0.203125 0.046875q-0.140625 0.015625 -0.359375 0.015625q-0.21875 0 -0.375 -0.015625q-0.140625 -0.015625 -0.203125 -0.078125q-0.046875 -0.0625 -0.046875 -0.15625q0 -0.109375 0.0625 -0.28125l3.390625 -9.390625q0.03125 -0.09375 0.078125 -0.140625q0.0625 -0.0625 0.15625 -0.09375q0.09375 -0.03125 0.25 -0.03125q0.15625 -0.015625 0.390625 -0.015625q0.25 0 0.40625 0.015625q0.171875 0 0.265625 0.03125q0.109375 0.03125 0.15625 0.09375q0.0625 0.0625 0.09375 0.140625l3.390625 9.390625zm-4.359375 -8.28125l0 0l-1.75 5.03125l3.515625 0l-1.765625 -5.03125zm17.03906 8.5625q0 0.0625 -0.03125 0.109375q-0.03125 0.046875 -0.109375 0.078125q-0.078125 0.03125 -0.203125 0.046875q-0.125 0.015625 -0.3125 0.015625q-0.1875 0 -0.3125 -0.015625q-0.125 -0.015625 -0.203125 -0.046875q-0.078125 -0.03125 -0.109375 -0.078125q-0.03125 -0.046875 -0.03125 -0.109375l0 -8.8125l-0.015625 0l-3.59375 8.84375q-0.03125 0.0625 -0.078125 0.109375q-0.03125 0.03125 -0.125 0.0625q-0.078125 0.03125 -0.1875 0.03125q-0.109375 0.015625 -0.265625 0.015625q-0.171875 0 -0.296875 -0.015625q-0.109375 -0.015625 -0.1875 -0.046875q-0.078125 -0.03125 -0.125 -0.0625q-0.03125 -0.046875 -0.046875 -0.09375l-3.453123 -8.84375l0 0l0 8.8125q0 0.0625 -0.03125 0.109375q-0.03125 0.046875 -0.109375 0.078125q-0.078125 0.03125 -0.203125 0.046875q-0.125 0.015625 -0.328125 0.015625q-0.1875 0 -0.3125 -0.015625q-0.125 -0.015625 -0.203125 -0.046875q-0.0625 -0.03125 -0.09375 -0.078125q-0.03125 -0.046875 -0.03125 -0.109375l0 -9.296875q0 -0.328125 0.171875 -0.46875q0.171875 -0.140625 0.390625 -0.140625l0.8125 0q0.25 0 0.4375 0.046875q0.1875 0.046875 0.328125 0.15625q0.140625 0.09375 0.234375 0.25q0.09375 0.15625 0.15625 0.359375l2.937498 7.328125l0.03125 0l3.046875 -7.296875q0.09375 -0.234375 0.1875 -0.390625q0.109375 -0.171875 0.21875 -0.265625q0.125 -0.109375 0.265625 -0.140625q0.15625 -0.046875 0.359375 -0.046875l0.84375 0q0.125 0 0.21875 0.03125q0.109375 0.03125 0.1875 0.109375q0.078125 0.078125 0.125 0.1875q0.046875 0.109375 0.046875 0.28125l0 9.296875z" fill-rule="nonzero"></path><path fill="#000000" fill-opacity="0.0" d="m-5.629921E-4 298.14285l82.48819 0l0 33.228363l-82.48819 0z" fill-rule="evenodd"></path><path fill="#000000" d="m17.093187 322.29974q0 0.0625 -0.03125 0.109375q-0.015625 0.046875 -0.09375 0.078125q-0.078125 0.03125 -0.21875 0.046875q-0.140625 0.015625 -0.375 0.015625q-0.203125 0 -0.34375 -0.015625q-0.125 -0.015625 -0.203125 -0.046875q-0.078125 -0.046875 -0.125 -0.109375q-0.03125 -0.0625 -0.0625 -0.15625l-0.9375 -2.375q-0.15625 -0.40625 -0.34375 -0.75q-0.171875 -0.34375 -0.421875 -0.578125q-0.234375 -0.25 -0.5625 -0.390625q-0.328125 -0.140625 -0.78125 -0.140625l-0.90625 0l0 4.3125q0 0.0625 -0.03125 0.109375q-0.03125 0.046875 -0.109375 0.078125q-0.078125 0.03125 -0.203125 0.046875q-0.125 0.015625 -0.328125 0.015625q-0.1875 0 -0.328125 -0.015625q-0.125 -0.015625 -0.203125 -0.046875q-0.078125 -0.03125 -0.109375 -0.078125q-0.03125 -0.046875 -0.03125 -0.109375l0 -9.359375q0 -0.3125 0.15625 -0.421875q0.171875 -0.125 0.34375 -0.125l2.15625 0q0.375 0 0.625 0.015625q0.265625 0.015625 0.46875 0.046875q0.578125 0.09375 1.03125 0.3125q0.453125 0.21875 0.75 0.5625q0.3125 0.328125 0.453125 0.765625q0.15625 0.4375 0.15625 0.953125q0 0.515625 -0.140625 0.921875q-0.125 0.390625 -0.390625 0.703125q-0.25 0.3125 -0.609375 0.546875q-0.359375 0.21875 -0.8125 0.375q0.25 0.109375 0.453125 0.28125q0.203125 0.15625 0.375 0.390625q0.1875 0.234375 0.34375 0.546875q0.15625 0.296875 0.3125 0.6875l0.90625 2.21875q0.109375 0.28125 0.140625 0.40625q0.03125 0.109375 0.03125 0.171875zm-2.03125 -7.109375q0 -0.59375 -0.265625 -1.0q-0.265625 -0.40625 -0.890625 -0.59375q-0.1875 -0.046875 -0.4375 -0.0625q-0.25 -0.03125 -0.640625 -0.03125l-1.140625 0l0 3.40625l1.3125 0q0.53125 0 0.921875 -0.125q0.390625 -0.140625 0.640625 -0.359375q0.265625 -0.234375 0.375 -0.546875q0.125 -0.3125 0.125 -0.6875zm12.4375 2.140625q0 1.21875 -0.296875 2.203125q-0.28125 0.984375 -0.859375 1.6875q-0.5625 0.6875 -1.4375 1.0625q-0.859375 0.375 -2.015625 0.375q-1.140625 0 -1.984375 -0.34375q-0.828125 -0.34375 -1.375 -0.984375q-0.53125 -0.65625 -0.796875 -1.609375q-0.265625 -0.96875 -0.265625 -2.21875q0 -1.203125 0.28125 -2.171875q0.296875 -0.984375 0.875 -1.65625q0.578125 -0.6875 1.4375 -1.0625q0.875 -0.375 2.03125 -0.375q1.109375 0 1.9375 0.34375q0.828125 0.328125 1.375 0.984375q0.5625 0.640625 0.828125 1.59375q0.265625 0.9375 0.265625 2.171875zm-1.40625 0.09375q0 -0.859375 -0.15625 -1.59375q-0.15625 -0.75 -0.515625 -1.28125q-0.34375 -0.546875 -0.9375 -0.84375q-0.59375 -0.3125 -1.46875 -0.3125q-0.875 0 -1.46875 0.328125q-0.59375 0.328125 -0.96875 0.875q-0.375 0.546875 -0.53125 1.28125q-0.15625 0.71875 -0.15625 1.53125q0 0.890625 0.140625 1.640625q0.15625 0.75 0.5 1.296875q0.359375 0.53125 0.9375 0.84375q0.59375 0.296875 1.484375 0.296875q0.890625 0 1.484375 -0.328125q0.609375 -0.328125 0.96875 -0.890625q0.375 -0.5625 0.53125 -1.296875q0.15625 -0.734375 0.15625 -1.546875zm14.531248 4.875q0 0.0625 -0.03125 0.109375q-0.03125 0.046875 -0.109375 0.078125q-0.078125 0.03125 -0.203125 0.046875q-0.125 0.015625 -0.3125 0.015625q-0.1875 0 -0.3125 -0.015625q-0.125 -0.015625 -0.203125 -0.046875q-0.078125 -0.03125 -0.109375 -0.078125q-0.03125 -0.046875 -0.03125 -0.109375l0 -8.8125l-0.015625 0l-3.59375 8.84375q-0.03125 0.0625 -0.078125 0.109375q-0.03125 0.03125 -0.125 0.0625q-0.078125 0.03125 -0.1875 0.03125q-0.109375 0.015625 -0.265625 0.015625q-0.171875 0 -0.296875 -0.015625q-0.109375 -0.015625 -0.1875 -0.046875q-0.078125 -0.03125 -0.125 -0.0625q-0.03125 -0.046875 -0.046875 -0.09375l-3.453123 -8.84375l0 0l0 8.8125q0 0.0625 -0.03125 0.109375q-0.03125 0.046875 -0.109375 0.078125q-0.078125 0.03125 -0.203125 0.046875q-0.125 0.015625 -0.328125 0.015625q-0.1875 0 -0.3125 -0.015625q-0.125 -0.015625 -0.203125 -0.046875q-0.0625 -0.03125 -0.09375 -0.078125q-0.03125 -0.046875 -0.03125 -0.109375l0 -9.296875q0 -0.328125 0.171875 -0.46875q0.171875 -0.140625 0.390625 -0.140625l0.8125 0q0.25 0 0.4375 0.046875q0.1875 0.046875 0.328125 0.15625q0.140625 0.09375 0.234375 0.25q0.09374809 0.15625 0.1562481 0.359375l2.9375 7.328125l0.03125 0l3.046875 -7.296875q0.09375 -0.234375 0.1875 -0.390625q0.109375 -0.171875 0.21875 -0.265625q0.125 -0.109375 0.265625 -0.140625q0.15625 -0.046875 0.359375 -0.046875l0.84375 0q0.125 0 0.21875 0.03125q0.109375 0.03125 0.1875 0.109375q0.078125 0.078125 0.125 0.1875q0.046875 0.109375 0.046875 0.28125l0 9.296875z" fill-rule="nonzero"></path><path fill="#000000" fill-opacity="0.0" d="m68.311615 126.43044c-4.9805107 0 -9.018013 -4.0374985 -9.018013 -9.018005l0 -36.07422c0 -4.980507 -4.0375023 -9.018005 -9.018013 -9.018005c4.9805107 0 9.018013 -4.037506 9.018013 -9.018017l0 -36.07421l0 0c0 -4.9805107 4.0375023 -9.018011 9.018013 -9.018011l110.6996 0l0 0c2.3917236 0 4.685501 0.9501095 6.376709 2.6413136c1.6911926 1.691206 2.6413116 3.984972 2.6413116 6.3766975l0 36.07421c0 4.9805107 4.037491 9.018017 9.018005 9.018017c-4.9805145 0 -9.018005 4.0374985 -9.018005 9.018005l0 36.07422c0 4.980507 -4.037506 9.018005 -9.018021 9.018005z" fill-rule="evenodd"></path><path fill="#000000" fill-opacity="0.0" d="m68.311615 126.43044c-4.9805107 0 -9.018013 -4.0374985 -9.018013 -9.018005l0 -36.07422c0 -4.980507 -4.0375023 -9.018005 -9.018013 -9.018005c4.9805107 0 9.018013 -4.037506 9.018013 -9.018017l0 -36.07421l0 0c0 -4.9805107 4.0375023 -9.018011 9.018013 -9.018011m110.6996 0l0 0c2.3917236 0 4.685501 0.9501095 6.376709 2.6413136c1.6911926 1.691206 2.6413116 3.984972 2.6413116 6.3766975l0 36.07421c0 4.9805107 4.037491 9.018017 9.018005 9.018017c-4.9805145 0 -9.018005 4.0374985 -9.018005 9.018005l0 36.07422c0 4.980507 -4.037506 9.018005 -9.018021 9.018005" fill-rule="evenodd"></path><path stroke="#000000" stroke-width="2.0" stroke-linejoin="round" stroke-linecap="butt" d="m68.311615 126.43044c-4.9805107 0 -9.018013 -4.0374985 -9.018013 -9.018005l0 -36.07422c0 -4.980507 -4.0375023 -9.018005 -9.018013 -9.018005c4.9805107 0 9.018013 -4.037506 9.018013 -9.018017l0 -36.07421l0 0c0 -4.9805107 4.0375023 -9.018011 9.018013 -9.018011m110.6996 0l0 0c2.3917236 0 4.685501 0.9501095 6.376709 2.6413136c1.6911926 1.691206 2.6413116 3.984972 2.6413116 6.3766975l0 36.07421c0 4.9805107 4.037491 9.018017 9.018005 9.018017c-4.9805145 0 -9.018005 4.0374985 -9.018005 9.018005l0 36.07422c0 4.980507 -4.037506 9.018005 -9.018021 9.018005" fill-rule="evenodd"></path><path fill="#000000" fill-opacity="0.0" d="m74.73656 466.0525c-6.754715 0 -12.230484 -5.475769 -12.230484 -12.230469l0 -123.4603c0 -6.75473 -5.475773 -12.230499 -12.230484 -12.230499c6.754711 0 12.230484 -5.475769 12.230484 -12.230469l0 -123.4603l0 0c0 -6.754715 5.475769 -12.230484 12.230484 -12.230484l97.84972 0c3.2437286 0 6.354599 1.288559 8.64827 3.5822296c2.2936554 2.2936554 3.5822144 5.4045258 3.5822144 8.648254l0 123.4603c0 6.7546997 5.4757843 12.230469 12.230484 12.230469c-6.7546997 0 -12.230484 5.475769 -12.230484 12.230499l0 123.4603c0 6.7546997 -5.475769 12.230469 -12.230484 12.230469z" fill-rule="evenodd"></path><path fill="#000000" fill-opacity="0.0" d="m74.73656 466.0525c-6.754715 0 -12.230484 -5.475769 -12.230484 -12.230469l0 -123.4603c0 -6.75473 -5.475773 -12.230499 -12.230484 -12.230499c6.754711 0 12.230484 -5.475769 12.230484 -12.230469l0 -123.4603l0 0c0 -6.754715 5.475769 -12.230484 12.230484 -12.230484m97.84972 0c3.2437286 0 6.354599 1.288559 8.64827 3.5822296c2.2936554 2.2936554 3.5822144 5.4045258 3.5822144 8.648254l0 123.4603c0 6.7546997 5.4757843 12.230469 12.230484 12.230469c-6.7546997 0 -12.230484 5.475769 -12.230484 12.230499l0 123.4603c0 6.7546997 -5.475769 12.230469 -12.230484 12.230469" fill-rule="evenodd"></path><path stroke="#000000" stroke-width="2.0" stroke-linejoin="round" stroke-linecap="butt" d="m74.73656 466.0525c-6.754715 0 -12.230484 -5.475769 -12.230484 -12.230469l0 -123.4603c0 -6.75473 -5.475773 -12.230499 -12.230484 -12.230499c6.754711 0 12.230484 -5.475769 12.230484 -12.230469l0 -123.4603l0 0c0 -6.754715 5.475769 -12.230484 12.230484 -12.230484m97.84972 0c3.2437286 0 6.354599 1.288559 8.64827 3.5822296c2.2936554 2.2936554 3.5822144 5.4045258 3.5822144 8.648254l0 123.4603c0 6.7546997 5.4757843 12.230469 12.230484 12.230469c-6.7546997 0 -12.230484 5.475769 -12.230484 12.230499l0 123.4603c0 6.7546997 -5.475769 12.230469 -12.230484 12.230469" fill-rule="evenodd"></path><path fill="#ffffff" d="m82.41732 18.209974l197.13385 0l0 447.84253l-197.13385 0z" fill-rule="evenodd"></path><path stroke="#000000" stroke-width="2.0" stroke-linejoin="round" stroke-linecap="butt" d="m82.41732 18.209974l197.13385 0l0 447.84253l-197.13385 0z" fill-rule="evenodd"></path><path fill="#ffffff" d="m82.41732 55.70866l197.13385 0l0 70.708664l-197.13385 0z" fill-rule="evenodd"></path><path stroke="#000000" stroke-width="2.0" stroke-linejoin="round" stroke-linecap="butt" d="m82.41732 55.70866l197.13385 0l0 70.708664l-197.13385 0z" fill-rule="evenodd"></path><path fill="#d9ead3" d="m82.41732 374.9029l197.13385 0l0 91.1496l-197.13385 0z" fill-rule="evenodd"></path><path stroke="#000000" stroke-width="2.0" stroke-linejoin="round" stroke-linecap="butt" d="m82.41732 374.9029l197.13385 0l0 91.1496l-197.13385 0z" fill-rule="evenodd"></path><path fill="#000000" d="m110.40599 427.39767l0 -13.59375l5.125 0q1.359375 0 2.078125 0.125q1.0 0.171875 1.671875 0.640625q0.671875 0.46875 1.078125 1.3125q0.421875 0.84375 0.421875 1.84375q0 1.734375 -1.109375 2.9375q-1.09375 1.203125 -3.984375 1.203125l-3.484375 0l0 5.53125l-1.796875 0zm1.796875 -7.140625l3.515625 0q1.75 0 2.46875 -0.640625q0.734375 -0.65625 0.734375 -1.828125q0 -0.859375 -0.4375 -1.46875q-0.421875 -0.609375 -1.125 -0.796875q-0.453125 -0.125 -1.671875 -0.125l-3.484375 0l0 4.859375zm9.146698 7.140625l5.234375 -13.59375l1.9375 0l5.5625 13.59375l-2.046875 0l-1.59375 -4.125l-5.6875 0l-1.484375 4.125l-1.921875 0zm3.921875 -5.578125l4.609375 0l-1.40625 -3.78125q-0.65625 -1.703125 -0.96875 -2.8125q-0.265625 1.3125 -0.734375 2.59375l-1.5 4.0zm16.381073 0.25l0 -1.609375l5.765625 0l0 5.046875q-1.328125 1.0625 -2.75 1.59375q-1.40625 0.53125 -2.890625 0.53125q-2.0 0 -3.640625 -0.859375q-1.625 -0.859375 -2.46875 -2.484375q-0.828125 -1.625 -0.828125 -3.625q0 -1.984375 0.828125 -3.703125q0.828125 -1.71875 2.390625 -2.546875q1.5625 -0.84375 3.59375 -0.84375q1.46875 0 2.65625 0.484375q1.203125 0.46875 1.875 1.328125q0.671875 0.84375 1.03125 2.21875l-1.625 0.4375q-0.3125 -1.03125 -0.765625 -1.625q-0.453125 -0.59375 -1.296875 -0.953125q-0.84375 -0.359375 -1.875 -0.359375q-1.234375 0 -2.140625 0.375q-0.890625 0.375 -1.453125 1.0q-0.546875 0.609375 -0.84375 1.34375q-0.53125 1.25 -0.53125 2.734375q0 1.8125 0.625 3.046875q0.640625 1.21875 1.828125 1.8125q1.203125 0.59375 2.546875 0.59375q1.171875 0 2.28125 -0.453125q1.109375 -0.453125 1.6875 -0.953125l0 -2.53125l-4.0 0zm8.183304 5.328125l0 -13.59375l9.84375 0l0 1.59375l-8.046875 0l0 4.171875l7.53125 0l0 1.59375l-7.53125 0l0 4.625l8.359375 0l0 1.609375l-10.15625 0zm11.802948 -4.375l1.6875 -0.140625q0.125 1.015625 0.5625 1.671875q0.4375 0.65625 1.359375 1.0625q0.9375 0.40625 2.09375 0.40625q1.03125 0 1.8125 -0.3125q0.796875 -0.3125 1.1875 -0.84375q0.390625 -0.53125 0.390625 -1.15625q0 -0.640625 -0.375 -1.109375q-0.375 -0.484375 -1.234375 -0.8125q-0.546875 -0.21875 -2.421875 -0.65625q-1.875 -0.453125 -2.625 -0.859375q-0.96875 -0.515625 -1.453125 -1.265625q-0.46875 -0.75 -0.46875 -1.6875q0 -1.03125 0.578125 -1.921875q0.59375 -0.90625 1.703125 -1.359375q1.125 -0.46875 2.5 -0.46875q1.515625 0 2.671875 0.484375q1.15625 0.484375 1.765625 1.4375q0.625 0.9375 0.671875 2.140625l-1.71875 0.125q-0.140625 -1.28125 -0.953125 -1.9375q-0.796875 -0.671875 -2.359375 -0.671875q-1.625 0 -2.375 0.609375q-0.75 0.59375 -0.75 1.4375q0 0.734375 0.53125 1.203125q0.515625 0.46875 2.703125 0.96875q2.203125 0.5 3.015625 0.875q1.1875 0.546875 1.75 1.390625q0.578125 0.828125 0.578125 1.921875q0 1.09375 -0.625 2.0625q-0.625 0.953125 -1.796875 1.484375q-1.15625 0.53125 -2.609375 0.53125q-1.84375 0 -3.09375 -0.53125q-1.25 -0.546875 -1.96875 -1.625q-0.703125 -1.078125 -0.734375 -2.453125zm18.158127 4.375l0 -13.59375l5.109375 0q1.546875 0 2.484375 0.40625q0.953125 0.40625 1.484375 1.265625q0.53125 0.859375 0.53125 1.796875q0 0.875 -0.46875 1.65625q-0.46875 0.765625 -1.4375 1.234375q1.234375 0.359375 1.890625 1.234375q0.671875 0.875 0.671875 2.0625q0 0.953125 -0.40625 1.78125q-0.390625 0.8125 -0.984375 1.265625q-0.59375 0.4375 -1.5 0.671875q-0.890625 0.21875 -2.1875 0.21875l-5.1875 0zm1.796875 -7.890625l2.9375 0q1.203125 0 1.71875 -0.15625q0.6875 -0.203125 1.03125 -0.671875q0.359375 -0.46875 0.359375 -1.1875q0 -0.671875 -0.328125 -1.1875q-0.328125 -0.515625 -0.9375 -0.703125q-0.59375 -0.203125 -2.0625 -0.203125l-2.71875 0l0 4.109375zm0 6.28125l3.390625 0q0.875 0 1.21875 -0.0625q0.625 -0.109375 1.046875 -0.359375q0.421875 -0.265625 0.6875 -0.765625q0.265625 -0.5 0.265625 -1.140625q0 -0.765625 -0.390625 -1.328125q-0.390625 -0.5625 -1.078125 -0.78125q-0.6875 -0.234375 -1.984375 -0.234375l-3.15625 0l0 4.671875zm19.646698 -11.984375l1.796875 0l0 7.84375q0 2.0625 -0.46875 3.265625q-0.453125 1.203125 -1.671875 1.96875q-1.203125 0.75 -3.171875 0.75q-1.90625 0 -3.125 -0.65625q-1.21875 -0.65625 -1.734375 -1.90625q-0.515625 -1.25 -0.515625 -3.421875l0 -7.84375l1.796875 0l0 7.84375q0 1.765625 0.328125 2.609375q0.328125 0.84375 1.125 1.296875q0.8125 0.453125 1.96875 0.453125q1.984375 0 2.828125 -0.890625q0.84375 -0.90625 0.84375 -3.46875l0 -7.84375zm4.644821 13.59375l0 -13.59375l9.171875 0l0 1.59375l-7.375 0l0 4.21875l6.375 0l0 1.609375l-6.375 0l0 6.171875l-1.796875 0zm11.395996 0l0 -13.59375l9.171875 0l0 1.59375l-7.375 0l0 4.21875l6.375 0l0 1.609375l-6.375 0l0 6.171875l-1.796875 0zm11.333466 0l0 -13.59375l9.84375 0l0 1.59375l-8.046875 0l0 4.171875l7.53125 0l0 1.59375l-7.53125 0l0 4.625l8.359375 0l0 1.609375l-10.15625 0zm12.443573 0l0 -13.59375l6.03125 0q1.8125 0 2.75 0.359375q0.953125 0.359375 1.515625 1.296875q0.5625 0.921875 0.5625 2.046875q0 1.453125 -0.9375 2.453125q-0.921875 0.984375 -2.890625 1.25q0.71875 0.34375 1.09375 0.671875q0.78125 0.734375 1.484375 1.8125l2.375 3.703125l-2.265625 0l-1.796875 -2.828125q-0.796875 -1.21875 -1.3125 -1.875q-0.5 -0.65625 -0.90625 -0.90625q-0.40625 -0.265625 -0.8125 -0.359375q-0.3125 -0.078125 -1.015625 -0.078125l-2.078125 0l0 6.046875l-1.796875 0zm1.796875 -7.59375l3.859375 0q1.234375 0 1.921875 -0.25q0.703125 -0.265625 1.0625 -0.828125q0.375 -0.5625 0.375 -1.21875q0 -0.96875 -0.703125 -1.578125q-0.703125 -0.625 -2.21875 -0.625l-4.296875 0l0 4.5z" fill-rule="nonzero"></path><path fill="#b6d7a8" d="m82.41732 283.7533l197.13385 0l0 91.1496l-197.13385 0z" fill-rule="evenodd"></path><path stroke="#000000" stroke-width="2.0" stroke-linejoin="round" stroke-linecap="butt" d="m82.41732 283.7533l197.13385 0l0 91.1496l-197.13385 0z" fill-rule="evenodd"></path><path fill="#000000" d="m150.31015 336.24808l0 -13.59375l5.125 0q1.359375 0 2.078125 0.125q1.0 0.171875 1.671875 0.640625q0.671875 0.46875 1.078125 1.3125q0.421875 0.84375 0.421875 1.84375q0 1.734375 -1.109375 2.9375q-1.09375 1.203125 -3.984375 1.203125l-3.484375 0l0 5.53125l-1.796875 0zm1.796875 -7.140625l3.515625 0q1.75 0 2.46875 -0.640625q0.734375 -0.65625 0.734375 -1.828125q0 -0.859375 -0.4375 -1.46875q-0.421875 -0.609375 -1.125 -0.796875q-0.453125 -0.125 -1.671875 -0.125l-3.484375 0l0 4.859375zm9.146698 7.140625l5.234375 -13.59375l1.9375 0l5.5625 13.59375l-2.046875 0l-1.59375 -4.125l-5.6875 0l-1.484375 4.125l-1.921875 0zm3.921875 -5.578125l4.609375 0l-1.40625 -3.78125q-0.65625 -1.703125 -0.96875 -2.8125q-0.265625 1.3125 -0.734375 2.59375l-1.5 4.0zm16.381073 0.25l0 -1.609375l5.765625 0l0 5.046875q-1.328125 1.0625 -2.75 1.59375q-1.40625 0.53125 -2.890625 0.53125q-2.0 0 -3.640625 -0.859375q-1.625 -0.859375 -2.46875 -2.484375q-0.828125 -1.625 -0.828125 -3.625q0 -1.984375 0.828125 -3.703125q0.828125 -1.71875 2.390625 -2.546875q1.5625 -0.84375 3.59375 -0.84375q1.46875 0 2.65625 0.484375q1.203125 0.46875 1.875 1.328125q0.671875 0.84375 1.03125 2.21875l-1.625 0.4375q-0.3125 -1.03125 -0.765625 -1.625q-0.453125 -0.59375 -1.296875 -0.953125q-0.84375 -0.359375 -1.875 -0.359375q-1.234375 0 -2.140625 0.375q-0.890625 0.375 -1.453125 1.0q-0.546875 0.609375 -0.84375 1.34375q-0.53125 1.25 -0.53125 2.734375q0 1.8125 0.625 3.046875q0.640625 1.21875 1.828125 1.8125q1.203125 0.59375 2.546875 0.59375q1.171875 0 2.28125 -0.453125q1.109375 -0.453125 1.6875 -0.953125l0 -2.53125l-4.0 0zm8.183304 5.328125l0 -13.59375l9.84375 0l0 1.59375l-8.046875 0l0 4.171875l7.53125 0l0 1.59375l-7.53125 0l0 4.625l8.359375 0l0 1.609375l-10.15625 0zm11.802948 -4.375l1.6875 -0.140625q0.125 1.015625 0.5625 1.671875q0.4375 0.65625 1.359375 1.0625q0.9375 0.40625 2.09375 0.40625q1.03125 0 1.8125 -0.3125q0.796875 -0.3125 1.1875 -0.84375q0.390625 -0.53125 0.390625 -1.15625q0 -0.640625 -0.375 -1.109375q-0.375 -0.484375 -1.234375 -0.8125q-0.546875 -0.21875 -2.421875 -0.65625q-1.875 -0.453125 -2.625 -0.859375q-0.96875 -0.515625 -1.453125 -1.265625q-0.46875 -0.75 -0.46875 -1.6875q0 -1.03125 0.578125 -1.921875q0.59375 -0.90625 1.703125 -1.359375q1.125 -0.46875 2.5 -0.46875q1.515625 0 2.671875 0.484375q1.15625 0.484375 1.765625 1.4375q0.625 0.9375 0.671875 2.140625l-1.71875 0.125q-0.140625 -1.28125 -0.953125 -1.9375q-0.796875 -0.671875 -2.359375 -0.671875q-1.625 0 -2.375 0.609375q-0.75 0.59375 -0.75 1.4375q0 0.734375 0.53125 1.203125q0.515625 0.46875 2.703125 0.96875q2.203125 0.5 3.015625 0.875q1.1875 0.546875 1.75 1.390625q0.578125 0.828125 0.578125 1.921875q0 1.09375 -0.625 2.0625q-0.625 0.953125 -1.796875 1.484375q-1.15625 0.53125 -2.609375 0.53125q-1.84375 0 -3.09375 -0.53125q-1.25 -0.546875 -1.96875 -1.625q-0.703125 -1.078125 -0.734375 -2.453125z" fill-rule="nonzero"></path><path fill="#000000" fill-opacity="0.0" d="m279.47977 0l82.48816 0l0 33.228348l-82.48816 0z" fill-rule="evenodd"></path><path fill="#000000" d="m296.04227 19.281876q0 1.15625 -0.1875 2.125q-0.1875 0.953125 -0.609375 1.65625q-0.421875 0.6875 -1.109375 1.078125q-0.6875 0.375 -1.703125 0.375q-0.953125 0 -1.609375 -0.34375q-0.640625 -0.34375 -1.046875 -1.0q-0.390625 -0.671875 -0.5625 -1.625q-0.171875 -0.96875 -0.171875 -2.21875q0 -1.15625 0.1875 -2.125q0.1875 -0.96875 0.609375 -1.65625q0.421875 -0.6875 1.109375 -1.0625q0.6875 -0.390625 1.6875 -0.390625q0.96875 0 1.609375 0.34375q0.65625 0.34375 1.046875 1.0q0.40625 0.65625 0.578125 1.625q0.171875 0.96875 0.171875 2.21875zm-1.375 0.09375q0 -0.765625 -0.0625 -1.359375q-0.046875 -0.609375 -0.15625 -1.0625q-0.109375 -0.46875 -0.28125 -0.796875q-0.15625 -0.328125 -0.390625 -0.546875q-0.234375 -0.21875 -0.546875 -0.3125q-0.296875 -0.09375 -0.671875 -0.09375q-0.65625 0 -1.078125 0.3125q-0.40625 0.3125 -0.65625 0.859375q-0.234375 0.546875 -0.328125 1.28125q-0.078125 0.734375 -0.078125 1.578125q0 1.125 0.109375 1.921875q0.125 0.796875 0.375 1.296875q0.265625 0.5 0.65625 0.734375q0.390625 0.21875 0.953125 0.21875q0.4375 0 0.765625 -0.140625q0.34375 -0.140625 0.578125 -0.40625q0.234375 -0.265625 0.390625 -0.625q0.15625 -0.375 0.25 -0.8125q0.09375 -0.453125 0.125 -0.96875q0.046875 -0.515625 0.046875 -1.078125zm8.453125 4.640625q0.0625 0.109375 0.0625 0.1875q0 0.0625 -0.078125 0.125q-0.078125 0.046875 -0.234375 0.0625q-0.140625 0.015625 -0.390625 0.015625q-0.234375 0 -0.375 -0.015625q-0.125 0 -0.21875 -0.03125q-0.078125 -0.03125 -0.125 -0.078125q-0.03125 -0.046875 -0.0625 -0.09375l-1.6875 -2.796875l-1.6875 2.796875q-0.03125 0.046875 -0.078125 0.09375q-0.03125 0.046875 -0.125 0.078125q-0.078125 0.03125 -0.21875 0.03125q-0.125 0.015625 -0.34375 0.015625q-0.21875 0 -0.375 -0.015625q-0.140625 -0.015625 -0.203125 -0.0625q-0.0625 -0.0625 -0.0625 -0.125q0 -0.078125 0.078125 -0.1875l2.1875 -3.4375l-2.078125 -3.296875q-0.0625 -0.109375 -0.0625 -0.1875q0 -0.078125 0.0625 -0.125q0.078125 -0.046875 0.234375 -0.0625q0.15625 -0.015625 0.40625 -0.015625q0.21875 0 0.359375 0.015625q0.140625 0 0.21875 0.03125q0.078125 0.015625 0.109375 0.0625q0.046875 0.03125 0.078125 0.09375l1.59375 2.609375l1.625 -2.609375q0.03125 -0.046875 0.0625 -0.078125q0.046875 -0.046875 0.109375 -0.078125q0.078125 -0.03125 0.1875 -0.03125q0.125 -0.015625 0.34375 -0.015625q0.21875 0 0.359375 0.015625q0.15625 0.015625 0.21875 0.0625q0.078125 0.03125 0.0625 0.109375q0 0.078125 -0.078125 0.203125l-2.046875 3.265625l2.171875 3.46875zm7.6484375 -0.1875q0 0.140625 -0.03125 0.25q-0.015625 0.09375 -0.0625 0.15625q-0.03125 0.0625 -0.09375 0.09375q-0.046875 0.03125 -0.09375 0.03125l-5.28125 0q-0.0625 0 -0.109375 -0.03125q-0.046875 -0.03125 -0.09375 -0.09375q-0.03125 -0.0625 -0.0625 -0.15625q-0.015625 -0.109375 -0.015625 -0.25q0 -0.140625 0.015625 -0.234375q0.03125 -0.109375 0.0625 -0.171875q0.03125 -0.078125 0.078125 -0.109375q0.0625 -0.03125 0.125 -0.03125l2.109375 0l0 -7.6875l-1.953125 1.15625q-0.15625 0.078125 -0.25 0.09375q-0.078125 0.015625 -0.140625 -0.03125q-0.046875 -0.046875 -0.078125 -0.15625q-0.015625 -0.125 -0.015625 -0.3125q0 -0.125 0.015625 -0.21875q0.015625 -0.09375 0.03125 -0.15625q0.03125 -0.0625 0.0625 -0.109375q0.046875 -0.046875 0.125 -0.09375l2.328125 -1.5q0.03125 -0.015625 0.078125 -0.03125q0.046875 -0.015625 0.109375 -0.03125q0.078125 -0.015625 0.171875 -0.015625q0.09375 -0.015625 0.234375 -0.015625q0.1875 0 0.3125 0.015625q0.125 0.015625 0.1875 0.046875q0.078125 0.03125 0.09375 0.078125q0.03125 0.03125 0.03125 0.078125l0 8.890625l1.828125 0q0.0625 0 0.109375 0.03125q0.0625 0.03125 0.09375 0.109375q0.03125 0.0625 0.046875 0.171875q0.03125 0.09375 0.03125 0.234375zm8.953125 -0.90625q0 0.125 -0.015625 0.21875q0 0.09375 -0.015625 0.171875q-0.015625 0.0625 -0.046875 0.125q-0.03125 0.046875 -0.109375 0.125q-0.078125 0.078125 -0.328125 0.25q-0.25 0.15625 -0.625 0.3125q-0.375 0.140625 -0.859375 0.25q-0.46875 0.109375 -1.046875 0.109375q-0.984375 0 -1.78125 -0.328125q-0.78125 -0.328125 -1.34375 -0.96875q-0.5625 -0.640625 -0.859375 -1.578125q-0.296875 -0.953125 -0.296875 -2.171875q0 -1.265625 0.3125 -2.25q0.328125 -0.984375 0.90625 -1.65625q0.59375 -0.6875 1.40625 -1.046875q0.828125 -0.359375 1.8125 -0.359375q0.4375 0 0.84375 0.078125q0.421875 0.078125 0.765625 0.203125q0.359375 0.125 0.625 0.296875q0.28125 0.15625 0.390625 0.265625q0.109375 0.109375 0.140625 0.171875q0.03125 0.046875 0.046875 0.125q0.015625 0.0625 0.03125 0.171875q0.015625 0.09375 0.015625 0.234375q0 0.15625 -0.015625 0.265625q-0.015625 0.109375 -0.046875 0.1875q-0.03125 0.078125 -0.078125 0.109375q-0.046875 0.03125 -0.109375 0.03125q-0.109375 0 -0.3125 -0.140625q-0.1875 -0.15625 -0.5 -0.34375q-0.296875 -0.1875 -0.75 -0.328125q-0.4375 -0.15625 -1.046875 -0.15625q-0.671875 0 -1.234375 0.265625q-0.546875 0.265625 -0.9375 0.796875q-0.390625 0.515625 -0.609375 1.28125q-0.203125 0.75 -0.203125 1.71875q0 0.953125 0.203125 1.703125q0.203125 0.734375 0.59375 1.234375q0.390625 0.484375 0.953125 0.75q0.5625 0.25 1.265625 0.25q0.609375 0 1.046875 -0.140625q0.453125 -0.15625 0.765625 -0.34375q0.328125 -0.1875 0.53125 -0.328125q0.203125 -0.15625 0.3125 -0.15625q0.0625 0 0.09375 0.03125q0.046875 0.015625 0.0625 0.09375q0.03125 0.0625 0.03125 0.1875q0.015625 0.109375 0.015625 0.28125zm8.0 -3.640625q0 1.15625 -0.1875 2.125q-0.1875 0.953125 -0.609375 1.65625q-0.421875 0.6875 -1.109375 1.078125q-0.6875 0.375 -1.703125 0.375q-0.953125 0 -1.609375 -0.34375q-0.640625 -0.34375 -1.046875 -1.0q-0.390625 -0.671875 -0.5625 -1.625q-0.171875 -0.96875 -0.171875 -2.21875q0 -1.15625 0.1875 -2.125q0.1875 -0.96875 0.609375 -1.65625q0.421875 -0.6875 1.109375 -1.0625q0.6875 -0.390625 1.6875 -0.390625q0.96875 0 1.609375 0.34375q0.65625 0.34375 1.046875 1.0q0.40625 0.65625 0.578125 1.625q0.171875 0.96875 0.171875 2.21875zm-1.375 0.09375q0 -0.765625 -0.0625 -1.359375q-0.046875 -0.609375 -0.15625 -1.0625q-0.109375 -0.46875 -0.28125 -0.796875q-0.15625 -0.328125 -0.390625 -0.546875q-0.234375 -0.21875 -0.546875 -0.3125q-0.296875 -0.09375 -0.671875 -0.09375q-0.65625 0 -1.078125 0.3125q-0.40625 0.3125 -0.65625 0.859375q-0.234375 0.546875 -0.328125 1.28125q-0.078125 0.734375 -0.078125 1.578125q0 1.125 0.109375 1.921875q0.125 0.796875 0.375 1.296875q0.265625 0.5 0.65625 0.734375q0.390625 0.21875 0.953125 0.21875q0.4375 0 0.765625 -0.140625q0.34375 -0.140625 0.578125 -0.40625q0.234375 -0.265625 0.390625 -0.625q0.15625 -0.375 0.25 -0.8125q0.09375 -0.453125 0.125 -0.96875q0.046875 -0.515625 0.046875 -1.078125zm9.484375 -0.09375q0 1.15625 -0.1875 2.125q-0.1875 0.953125 -0.609375 1.65625q-0.421875 0.6875 -1.109375 1.078125q-0.6875 0.375 -1.703125 0.375q-0.953125 0 -1.609375 -0.34375q-0.640625 -0.34375 -1.046875 -1.0q-0.390625 -0.671875 -0.5625 -1.625q-0.171875 -0.96875 -0.171875 -2.21875q0 -1.15625 0.1875 -2.125q0.1875 -0.96875 0.609375 -1.65625q0.421875 -0.6875 1.109375 -1.0625q0.6875 -0.390625 1.6875 -0.390625q0.96875 0 1.609375 0.34375q0.65625 0.34375 1.046875 1.0q0.40625 0.65625 0.578125 1.625q0.171875 0.96875 0.171875 2.21875zm-1.375 0.09375q0 -0.765625 -0.0625 -1.359375q-0.046875 -0.609375 -0.15625 -1.0625q-0.109375 -0.46875 -0.28125 -0.796875q-0.15625 -0.328125 -0.390625 -0.546875q-0.234375 -0.21875 -0.546875 -0.3125q-0.296875 -0.09375 -0.671875 -0.09375q-0.65625 0 -1.078125 0.3125q-0.40625 0.3125 -0.65625 0.859375q-0.234375 0.546875 -0.328125 1.28125q-0.078125 0.734375 -0.078125 1.578125q0 1.125 0.109375 1.921875q0.125 0.796875 0.375 1.296875q0.265625 0.5 0.65625 0.734375q0.390625 0.21875 0.953125 0.21875q0.4375 0 0.765625 -0.140625q0.34375 -0.140625 0.578125 -0.40625q0.234375 -0.265625 0.390625 -0.625q0.15625 -0.375 0.25 -0.8125q0.09375 -0.453125 0.125 -0.96875q0.046875 -0.515625 0.046875 -1.078125z" fill-rule="nonzero"></path><path fill="#000000" fill-opacity="0.0" d="m279.47977 43.714287l82.48816 0l0 33.228348l-82.48816 0z" fill-rule="evenodd"></path><path fill="#000000" d="m296.04227 62.996162q0 1.15625 -0.1875 2.125q-0.1875 0.953125 -0.609375 1.65625q-0.421875 0.6875 -1.109375 1.078125q-0.6875 0.375 -1.703125 0.375q-0.953125 0 -1.609375 -0.34375q-0.640625 -0.34375 -1.046875 -1.0q-0.390625 -0.671875 -0.5625 -1.625q-0.171875 -0.96875 -0.171875 -2.21875q0 -1.15625 0.1875 -2.125q0.1875 -0.96875 0.609375 -1.65625q0.421875 -0.6875 1.109375 -1.0625q0.6875 -0.390625 1.6875 -0.390625q0.96875 0 1.609375 0.34375q0.65625 0.34375 1.046875 1.0q0.40625 0.65625 0.578125 1.625q0.171875 0.96875 0.171875 2.21875zm-1.375 0.09375q0 -0.765625 -0.0625 -1.359375q-0.046875 -0.609375 -0.15625 -1.0625q-0.109375 -0.46875 -0.28125 -0.796875q-0.15625 -0.328125 -0.390625 -0.546875q-0.234375 -0.21875 -0.546875 -0.3125q-0.296875 -0.09375 -0.671875 -0.09375q-0.65625 0 -1.078125 0.3125q-0.40625 0.3125 -0.65625 0.859375q-0.234375 0.546875 -0.328125 1.28125q-0.078125 0.734375 -0.078125 1.578125q0 1.125 0.109375 1.921875q0.125 0.796875 0.375 1.296875q0.265625 0.5 0.65625 0.734375q0.390625 0.21875 0.953125 0.21875q0.4375 0 0.765625 -0.140625q0.34375 -0.140625 0.578125 -0.40625q0.234375 -0.265625 0.390625 -0.625q0.15625 -0.375 0.25 -0.8125q0.09375 -0.453125 0.125 -0.96875q0.046875 -0.515625 0.046875 -1.078125zm8.453125 4.640625q0.0625 0.109375 0.0625 0.1875q0 0.0625 -0.078125 0.125q-0.078125 0.046875 -0.234375 0.0625q-0.140625 0.015625 -0.390625 0.015625q-0.234375 0 -0.375 -0.015625q-0.125 0 -0.21875 -0.03125q-0.078125 -0.03125 -0.125 -0.078125q-0.03125 -0.046875 -0.0625 -0.09375l-1.6875 -2.796875l-1.6875 2.796875q-0.03125 0.046875 -0.078125 0.09375q-0.03125 0.046875 -0.125 0.078125q-0.078125 0.03125 -0.21875 0.03125q-0.125 0.015625 -0.34375 0.015625q-0.21875 0 -0.375 -0.015625q-0.140625 -0.015625 -0.203125 -0.0625q-0.0625 -0.0625 -0.0625 -0.125q0 -0.078125 0.078125 -0.1875l2.1875 -3.4375l-2.078125 -3.296875q-0.0625 -0.109375 -0.0625 -0.1875q0 -0.078125 0.0625 -0.125q0.078125 -0.046875 0.234375 -0.0625q0.15625 -0.015625 0.40625 -0.015625q0.21875 0 0.359375 0.015625q0.140625 0 0.21875 0.03125q0.078125 0.015625 0.109375 0.0625q0.046875 0.03125 0.078125 0.09375l1.59375 2.609375l1.625 -2.609375q0.03125 -0.046875 0.0625 -0.078125q0.046875 -0.046875 0.109375 -0.078125q0.078125 -0.03125 0.1875 -0.03125q0.125 -0.015625 0.34375 -0.015625q0.21875 0 0.359375 0.015625q0.15625 0.015625 0.21875 0.0625q0.078125 0.03125 0.0625 0.109375q0 0.078125 -0.078125 0.203125l-2.046875 3.265625l2.171875 3.46875zm7.6484375 -0.1875q0 0.140625 -0.03125 0.25q-0.015625 0.09375 -0.0625 0.15625q-0.03125 0.0625 -0.09375 0.09375q-0.046875 0.03125 -0.09375 0.03125l-5.28125 0q-0.0625 0 -0.109375 -0.03125q-0.046875 -0.03125 -0.09375 -0.09375q-0.03125 -0.0625 -0.0625 -0.15625q-0.015625 -0.109375 -0.015625 -0.25q0 -0.140625 0.015625 -0.234375q0.03125 -0.109375 0.0625 -0.171875q0.03125 -0.078125 0.078125 -0.109375q0.0625 -0.03125 0.125 -0.03125l2.109375 0l0 -7.6875l-1.953125 1.15625q-0.15625 0.078125 -0.25 0.09375q-0.078125 0.015625 -0.140625 -0.03125q-0.046875 -0.046875 -0.078125 -0.15625q-0.015625 -0.125 -0.015625 -0.3125q0 -0.125 0.015625 -0.21875q0.015625 -0.09375 0.03125 -0.15625q0.03125 -0.0625 0.0625 -0.109375q0.046875 -0.046875 0.125 -0.09375l2.328125 -1.5q0.03125 -0.015625 0.078125 -0.03125q0.046875 -0.015625 0.109375 -0.03125q0.078125 -0.015625 0.171875 -0.015625q0.09375 -0.015625 0.234375 -0.015625q0.1875 0 0.3125 0.015625q0.125 0.015625 0.1875 0.046875q0.078125 0.03125 0.09375 0.078125q0.03125 0.03125 0.03125 0.078125l0 8.890625l1.828125 0q0.0625 0 0.109375 0.03125q0.0625 0.03125 0.09375 0.109375q0.03125 0.0625 0.046875 0.171875q0.03125 0.09375 0.03125 0.234375zm7.828125 -0.03125q0 0.140625 -0.015625 0.25q-0.015625 0.109375 -0.0625 0.1875q-0.03125 0.0625 -0.078125 0.09375q-0.046875 0.03125 -0.109375 0.03125l-4.859375 0q-0.171875 0 -0.34375 -0.125q-0.15625 -0.125 -0.15625 -0.421875l0 -9.015625q0 -0.3125 0.15625 -0.421875q0.171875 -0.125 0.34375 -0.125l4.796875 0q0.0625 0 0.109375 0.03125q0.0625 0.03125 0.09375 0.109375q0.03125 0.0625 0.046875 0.171875q0.015625 0.09375 0.015625 0.25q0 0.140625 -0.015625 0.25q-0.015625 0.109375 -0.046875 0.171875q-0.03125 0.0625 -0.09375 0.09375q-0.046875 0.03125 -0.109375 0.03125l-3.953125 0l0 3.171875l3.390625 0q0.0625 0 0.109375 0.046875q0.0625 0.03125 0.09375 0.09375q0.03125 0.0625 0.046875 0.171875q0.015625 0.109375 0.015625 0.25q0 0.140625 -0.015625 0.25q-0.015625 0.09375 -0.046875 0.15625q-0.03125 0.0625 -0.09375 0.09375q-0.046875 0.03125 -0.109375 0.03125l-3.390625 0l0 3.609375l4.015625 0q0.0625 0 0.109375 0.03125q0.046875 0.03125 0.078125 0.109375q0.046875 0.0625 0.0625 0.171875q0.015625 0.09375 0.015625 0.25zm8.40625 -4.515625q0 1.15625 -0.1875 2.125q-0.1875 0.953125 -0.609375 1.65625q-0.421875 0.6875 -1.109375 1.078125q-0.6875 0.375 -1.703125 0.375q-0.953125 0 -1.609375 -0.34375q-0.640625 -0.34375 -1.046875 -1.0q-0.390625 -0.671875 -0.5625 -1.625q-0.171875 -0.96875 -0.171875 -2.21875q0 -1.15625 0.1875 -2.125q0.1875 -0.96875 0.609375 -1.65625q0.421875 -0.6875 1.109375 -1.0625q0.6875 -0.390625 1.6875 -0.390625q0.96875 0 1.609375 0.34375q0.65625 0.34375 1.046875 1.0q0.40625 0.65625 0.578125 1.625q0.171875 0.96875 0.171875 2.21875zm-1.375 0.09375q0 -0.765625 -0.0625 -1.359375q-0.046875 -0.609375 -0.15625 -1.0625q-0.109375 -0.46875 -0.28125 -0.796875q-0.15625 -0.328125 -0.390625 -0.546875q-0.234375 -0.21875 -0.546875 -0.3125q-0.296875 -0.09375 -0.671875 -0.09375q-0.65625 0 -1.078125 0.3125q-0.40625 0.3125 -0.65625 0.859375q-0.234375 0.546875 -0.328125 1.28125q-0.078125 0.734375 -0.078125 1.578125q0 1.125 0.109375 1.921875q0.125 0.796875 0.375 1.296875q0.265625 0.5 0.65625 0.734375q0.390625 0.21875 0.953125 0.21875q0.4375 0 0.765625 -0.140625q0.34375 -0.140625 0.578125 -0.40625q0.234375 -0.265625 0.390625 -0.625q0.15625 -0.375 0.25 -0.8125q0.09375 -0.453125 0.125 -0.96875q0.046875 -0.515625 0.046875 -1.078125zm9.484375 -0.09375q0 1.15625 -0.1875 2.125q-0.1875 0.953125 -0.609375 1.65625q-0.421875 0.6875 -1.109375 1.078125q-0.6875 0.375 -1.703125 0.375q-0.953125 0 -1.609375 -0.34375q-0.640625 -0.34375 -1.046875 -1.0q-0.390625 -0.671875 -0.5625 -1.625q-0.171875 -0.96875 -0.171875 -2.21875q0 -1.15625 0.1875 -2.125q0.1875 -0.96875 0.609375 -1.65625q0.421875 -0.6875 1.109375 -1.0625q0.6875 -0.390625 1.6875 -0.390625q0.96875 0 1.609375 0.34375q0.65625 0.34375 1.046875 1.0q0.40625 0.65625 0.578125 1.625q0.171875 0.96875 0.171875 2.21875zm-1.375 0.09375q0 -0.765625 -0.0625 -1.359375q-0.046875 -0.609375 -0.15625 -1.0625q-0.109375 -0.46875 -0.28125 -0.796875q-0.15625 -0.328125 -0.390625 -0.546875q-0.234375 -0.21875 -0.546875 -0.3125q-0.296875 -0.09375 -0.671875 -0.09375q-0.65625 0 -1.078125 0.3125q-0.40625 0.3125 -0.65625 0.859375q-0.234375 0.546875 -0.328125 1.28125q-0.078125 0.734375 -0.078125 1.578125q0 1.125 0.109375 1.921875q0.125 0.796875 0.375 1.296875q0.265625 0.5 0.65625 0.734375q0.390625 0.21875 0.953125 0.21875q0.4375 0 0.765625 -0.140625q0.34375 -0.140625 0.578125 -0.40625q0.234375 -0.265625 0.390625 -0.625q0.15625 -0.375 0.25 -0.8125q0.09375 -0.453125 0.125 -0.96875q0.046875 -0.515625 0.046875 -1.078125z" fill-rule="nonzero"></path><path fill="#000000" fill-opacity="0.0" d="m279.47977 103.42857l82.48816 0l0 33.228348l-82.48816 0z" fill-rule="evenodd"></path><path fill="#000000" d="m296.04227 122.71045q0 1.15625 -0.1875 2.125q-0.1875 0.953125 -0.609375 1.65625q-0.421875 0.6875 -1.109375 1.078125q-0.6875 0.375 -1.703125 0.375q-0.953125 0 -1.609375 -0.34375q-0.640625 -0.34375 -1.046875 -1.0q-0.390625 -0.671875 -0.5625 -1.625q-0.171875 -0.96875 -0.171875 -2.21875q0 -1.15625 0.1875 -2.125q0.1875 -0.96875 0.609375 -1.65625q0.421875 -0.6875 1.109375 -1.0625q0.6875 -0.390625 1.6875 -0.390625q0.96875 0 1.609375 0.34375q0.65625 0.34375 1.046875 1.0q0.40625 0.65625 0.578125 1.625q0.171875 0.96875 0.171875 2.21875zm-1.375 0.09375q0 -0.765625 -0.0625 -1.359375q-0.046875 -0.609375 -0.15625 -1.0625q-0.109375 -0.46875 -0.28125 -0.796875q-0.15625 -0.328125 -0.390625 -0.546875q-0.234375 -0.21875 -0.546875 -0.3125q-0.296875 -0.09375 -0.671875 -0.09375q-0.65625 0 -1.078125 0.3125q-0.40625 0.3125 -0.65625 0.859375q-0.234375 0.546875 -0.328125 1.28125q-0.078125 0.734375 -0.078125 1.578125q0 1.125 0.109375 1.921875q0.125 0.796875 0.375 1.296875q0.265625 0.5 0.65625 0.734375q0.390625 0.21875 0.953125 0.21875q0.4375 0 0.765625 -0.140625q0.34375 -0.140625 0.578125 -0.40625q0.234375 -0.265625 0.390625 -0.625q0.15625 -0.375 0.25 -0.8125q0.09375 -0.453125 0.125 -0.96875q0.046875 -0.515625 0.046875 -1.078125zm8.453125 4.640625q0.0625 0.109375 0.0625 0.1875q0 0.0625 -0.078125 0.125q-0.078125 0.046875 -0.234375 0.0625q-0.140625 0.015625 -0.390625 0.015625q-0.234375 0 -0.375 -0.015625q-0.125 0 -0.21875 -0.03125q-0.078125 -0.03125 -0.125 -0.078125q-0.03125 -0.046875 -0.0625 -0.09375l-1.6875 -2.796875l-1.6875 2.796875q-0.03125 0.046875 -0.078125 0.09375q-0.03125 0.046875 -0.125 0.078125q-0.078125 0.03125 -0.21875 0.03125q-0.125 0.015625 -0.34375 0.015625q-0.21875 0 -0.375 -0.015625q-0.140625 -0.015625 -0.203125 -0.0625q-0.0625 -0.0625 -0.0625 -0.125q0 -0.078125 0.078125 -0.1875l2.1875 -3.4375l-2.078125 -3.296875q-0.0625 -0.109375 -0.0625 -0.1875q0 -0.078125 0.0625 -0.125q0.078125 -0.046875 0.234375 -0.0625q0.15625 -0.015625 0.40625 -0.015625q0.21875 0 0.359375 0.015625q0.140625 0 0.21875 0.03125q0.078125 0.015625 0.109375 0.0625q0.046875 0.03125 0.078125 0.09375l1.59375 2.609375l1.625 -2.609375q0.03125 -0.046875 0.0625 -0.078125q0.046875 -0.046875 0.109375 -0.078125q0.078125 -0.03125 0.1875 -0.03125q0.125 -0.015625 0.34375 -0.015625q0.21875 0 0.359375 0.015625q0.15625 0.015625 0.21875 0.0625q0.078125 0.03125 0.0625 0.109375q0 0.078125 -0.078125 0.203125l-2.046875 3.265625l2.171875 3.46875zm7.6171875 -0.234375q0 0.140625 -0.015625 0.25q-0.015625 0.109375 -0.0625 0.1875q-0.03125 0.0625 -0.09375 0.109375q-0.046875 0.03125 -0.125 0.03125l-5.578125 0q-0.109375 0 -0.203125 -0.03125q-0.078125 -0.03125 -0.140625 -0.09375q-0.046875 -0.0625 -0.078125 -0.171875q-0.03125 -0.125 -0.03125 -0.296875q0 -0.15625 0.015625 -0.265625q0.015625 -0.125 0.046875 -0.203125q0.046875 -0.09375 0.09375 -0.1875q0.0625 -0.09375 0.15625 -0.1875l1.96875 -2.078125q0.671875 -0.71875 1.078125 -1.28125q0.421875 -0.578125 0.640625 -1.046875q0.21875 -0.46875 0.28125 -0.84375q0.078125 -0.390625 0.078125 -0.734375q0 -0.328125 -0.109375 -0.625q-0.109375 -0.3125 -0.3125 -0.53125q-0.203125 -0.234375 -0.515625 -0.359375q-0.3125 -0.140625 -0.71875 -0.140625q-0.484375 0 -0.859375 0.140625q-0.375 0.125 -0.671875 0.28125q-0.28125 0.15625 -0.46875 0.296875q-0.1875 0.125 -0.28125 0.125q-0.0625 0 -0.109375 -0.03125q-0.03125 -0.03125 -0.0625 -0.09375q-0.03125 -0.078125 -0.046875 -0.1875q-0.015625 -0.125 -0.015625 -0.28125q0 -0.125 0 -0.203125q0.015625 -0.09375 0.03125 -0.15625q0.03125 -0.0625 0.0625 -0.109375q0.03125 -0.0625 0.125 -0.140625q0.09375 -0.078125 0.3125 -0.21875q0.234375 -0.140625 0.578125 -0.28125q0.359375 -0.140625 0.765625 -0.234375q0.421875 -0.09375 0.890625 -0.09375q0.734375 0 1.28125 0.21875q0.546875 0.203125 0.90625 0.5625q0.375 0.359375 0.546875 0.84375q0.1875 0.46875 0.1875 1.0q0 0.484375 -0.09375 0.96875q-0.078125 0.484375 -0.359375 1.046875q-0.28125 0.546875 -0.8125 1.234375q-0.515625 0.6875 -1.375 1.578125l-1.609375 1.671875l4.40625 0q0.0625 0 0.109375 0.03125q0.0625 0.03125 0.109375 0.109375q0.046875 0.0625 0.0625 0.171875q0.015625 0.109375 0.015625 0.25zm8.03125 -2.3125q0 0.6875 -0.25 1.25q-0.234375 0.5625 -0.6875 0.96875q-0.453125 0.390625 -1.125 0.609375q-0.65625 0.21875 -1.484375 0.21875q-0.515625 0 -0.953125 -0.09375q-0.4375 -0.078125 -0.78125 -0.1875q-0.34375 -0.125 -0.578125 -0.234375q-0.21875 -0.125 -0.28125 -0.171875q-0.0625 -0.0625 -0.09375 -0.109375q-0.03125 -0.0625 -0.0625 -0.140625q-0.015625 -0.078125 -0.03125 -0.1875q0 -0.125 0 -0.28125q0 -0.28125 0.046875 -0.390625q0.0625 -0.109375 0.15625 -0.109375q0.078125 0 0.28125 0.125q0.203125 0.125 0.53125 0.265625q0.328125 0.140625 0.75 0.265625q0.4375 0.125 0.96875 0.125q0.515625 0 0.90625 -0.125q0.390625 -0.140625 0.65625 -0.375q0.265625 -0.25 0.390625 -0.578125q0.140625 -0.328125 0.140625 -0.71875q0 -0.4375 -0.171875 -0.78125q-0.15625 -0.34375 -0.484375 -0.59375q-0.328125 -0.25 -0.796875 -0.375q-0.46875 -0.140625 -1.078125 -0.140625l-0.953125 0q-0.0625 0 -0.125 -0.015625q-0.0625 -0.03125 -0.109375 -0.09375q-0.03125 -0.0625 -0.0625 -0.15625q-0.03125 -0.109375 -0.03125 -0.28125q0 -0.140625 0.015625 -0.234375q0.03125 -0.109375 0.078125 -0.15625q0.046875 -0.0625 0.09375 -0.09375q0.0625 -0.03125 0.125 -0.03125l0.890625 0q0.515625 0 0.921875 -0.125q0.40625 -0.140625 0.6875 -0.390625q0.296875 -0.25 0.4375 -0.59375q0.15625 -0.34375 0.15625 -0.78125q0 -0.3125 -0.109375 -0.59375q-0.09375 -0.28125 -0.296875 -0.484375q-0.203125 -0.21875 -0.515625 -0.34375q-0.3125 -0.125 -0.734375 -0.125q-0.453125 0 -0.828125 0.140625q-0.375 0.140625 -0.671875 0.296875q-0.296875 0.15625 -0.5 0.296875q-0.1875 0.125 -0.265625 0.125q-0.0625 0 -0.109375 -0.015625q-0.03125 -0.015625 -0.0625 -0.078125q-0.03125 -0.0625 -0.046875 -0.15625q0 -0.109375 0 -0.28125q0 -0.125 0 -0.203125q0.015625 -0.09375 0.03125 -0.15625q0.03125 -0.078125 0.0625 -0.125q0.03125 -0.0625 0.09375 -0.125q0.078125 -0.078125 0.296875 -0.21875q0.234375 -0.140625 0.5625 -0.28125q0.34375 -0.140625 0.765625 -0.234375q0.4375 -0.09375 0.9375 -0.09375q0.703125 0 1.234375 0.1875q0.53125 0.171875 0.890625 0.5q0.359375 0.328125 0.53125 0.796875q0.171875 0.453125 0.171875 1.0q0 0.484375 -0.125 0.890625q-0.125 0.40625 -0.375 0.734375q-0.234375 0.3125 -0.59375 0.53125q-0.34375 0.21875 -0.796875 0.3125l0 0.015625q0.515625 0.046875 0.953125 0.265625q0.4375 0.203125 0.75 0.515625q0.3125 0.3125 0.484375 0.734375q0.171875 0.40625 0.171875 0.890625zm7.625 -6.640625q0 0.140625 -0.015625 0.25q-0.015625 0.109375 -0.0625 0.1875q-0.03125 0.0625 -0.078125 0.09375q-0.046875 0.03125 -0.109375 0.03125l-3.703125 0l0 3.4375l3.5 0q0.0625 0 0.109375 0.03125q0.046875 0.015625 0.078125 0.078125q0.046875 0.0625 0.0625 0.171875q0.015625 0.109375 0.015625 0.265625q0 0.15625 -0.015625 0.265625q-0.015625 0.09375 -0.0625 0.171875q-0.03125 0.0625 -0.078125 0.09375q-0.046875 0.03125 -0.109375 0.03125l-3.5 0l0 4.21875q0 0.046875 -0.03125 0.109375q-0.03125 0.046875 -0.109375 0.078125q-0.078125 0.03125 -0.203125 0.046875q-0.125 0.015625 -0.328125 0.015625q-0.1875 0 -0.328125 -0.015625q-0.125 -0.015625 -0.203125 -0.046875q-0.078125 -0.03125 -0.109375 -0.078125q-0.03125 -0.0625 -0.03125 -0.109375l0 -9.359375q0 -0.3125 0.15625 -0.421875q0.171875 -0.125 0.34375 -0.125l4.546875 0q0.0625 0 0.109375 0.03125q0.046875 0.03125 0.078125 0.109375q0.046875 0.0625 0.0625 0.171875q0.015625 0.109375 0.015625 0.265625zm7.3515625 0q0 0.140625 -0.015625 0.25q-0.015625 0.109375 -0.0625 0.1875q-0.03125 0.0625 -0.078125 0.09375q-0.046875 0.03125 -0.109375 0.03125l-3.703125 0l0 3.4375l3.5 0q0.0625 0 0.109375 0.03125q0.046875 0.015625 0.078125 0.078125q0.046875 0.0625 0.0625 0.171875q0.015625 0.109375 0.015625 0.265625q0 0.15625 -0.015625 0.265625q-0.015625 0.09375 -0.0625 0.171875q-0.03125 0.0625 -0.078125 0.09375q-0.046875 0.03125 -0.109375 0.03125l-3.5 0l0 4.21875q0 0.046875 -0.03125 0.109375q-0.03125 0.046875 -0.109375 0.078125q-0.078125 0.03125 -0.203125 0.046875q-0.125 0.015625 -0.328125 0.015625q-0.1875 0 -0.328125 -0.015625q-0.125 -0.015625 -0.203125 -0.046875q-0.078125 -0.03125 -0.109375 -0.078125q-0.03125 -0.0625 -0.03125 -0.109375l0 -9.359375q0 -0.3125 0.15625 -0.421875q0.171875 -0.125 0.34375 -0.125l4.546875 0q0.0625 0 0.109375 0.03125q0.046875 0.03125 0.078125 0.109375q0.046875 0.0625 0.0625 0.171875q0.015625 0.109375 0.015625 0.265625z" fill-rule="nonzero"></path><path fill="#b6d7a8" d="m84.59055 57.858334l192.78741 0l0 37.574802l-192.78741 0z" fill-rule="evenodd"></path><path fill="#000000" d="m110.713135 83.565735l-3.609375 -13.59375l1.84375 0l2.0625 8.90625q0.34375 1.40625 0.578125 2.78125q0.515625 -2.171875 0.609375 -2.515625l2.59375 -9.171875l2.171875 0l1.953125 6.875q0.734375 2.5625 1.046875 4.8125q0.265625 -1.28125 0.6875 -2.953125l2.125 -8.734375l1.8125 0l-3.734375 13.59375l-1.734375 0l-2.859375 -10.359375q-0.359375 -1.296875 -0.421875 -1.59375q-0.21875 0.9375 -0.40625 1.59375l-2.890625 10.359375l-1.828125 0zm14.686783 -6.625q0 -3.390625 1.8125 -5.296875q1.828125 -1.921875 4.703125 -1.921875q1.875 0 3.390625 0.90625q1.515625 0.890625 2.296875 2.5q0.796875 1.609375 0.796875 3.65625q0 2.0625 -0.84375 3.703125q-0.828125 1.625 -2.359375 2.46875q-1.53125 0.84375 -3.296875 0.84375q-1.921875 0 -3.4375 -0.921875q-1.5 -0.9375 -2.28125 -2.53125q-0.78125 -1.609375 -0.78125 -3.40625zm1.859375 0.03125q0 2.453125 1.3125 3.875q1.328125 1.40625 3.3125 1.40625q2.03125 0 3.34375 -1.421875q1.3125 -1.4375 1.3125 -4.0625q0 -1.65625 -0.5625 -2.890625q-0.546875 -1.234375 -1.640625 -1.921875q-1.078125 -0.6875 -2.421875 -0.6875q-1.90625 0 -3.28125 1.3125q-1.375 1.3125 -1.375 4.390625zm13.230179 6.59375l0 -13.59375l6.03125 0q1.8125 0 2.75 0.359375q0.953125 0.359375 1.515625 1.296875q0.5625 0.921875 0.5625 2.046875q0 1.453125 -0.9375 2.453125q-0.921875 0.984375 -2.890625 1.25q0.71875 0.34375 1.09375 0.671875q0.78125 0.734375 1.484375 1.8125l2.375 3.703125l-2.265625 0l-1.796875 -2.828125q-0.796875 -1.21875 -1.3125 -1.875q-0.5 -0.65625 -0.90625 -0.90625q-0.40625 -0.265625 -0.8125 -0.359375q-0.3125 -0.078125 -1.015625 -0.078125l-2.078125 0l0 6.046875l-1.796875 0zm1.796875 -7.59375l3.859375 0q1.234375 0 1.921875 -0.25q0.703125 -0.265625 1.0625 -0.828125q0.375 -0.5625 0.375 -1.21875q0 -0.96875 -0.703125 -1.578125q-0.703125 -0.625 -2.21875 -0.625l-4.296875 0l0 4.5zm11.566696 7.59375l0 -13.59375l1.796875 0l0 6.734375l6.765625 -6.734375l2.4375 0l-5.703125 5.5l5.953125 8.09375l-2.375 0l-4.84375 -6.890625l-2.234375 2.171875l0 4.71875l-1.796875 0zm12.818573 0l0 -13.59375l1.8125 0l0 13.59375l-1.8125 0zm4.870804 0l0 -13.59375l1.84375 0l7.140625 10.671875l0 -10.671875l1.71875 0l0 13.59375l-1.84375 0l-7.140625 -10.6875l0 10.6875l-1.71875 0zm19.847946 -5.328125l0 -1.609375l5.765625 0l0 5.046875q-1.328125 1.0625 -2.75 1.59375q-1.40625 0.53125 -2.890625 0.53125q-2.0 0 -3.640625 -0.859375q-1.625 -0.859375 -2.46875 -2.484375q-0.828125 -1.625 -0.828125 -3.625q0 -1.984375 0.828125 -3.703125q0.828125 -1.71875 2.390625 -2.546875q1.5625 -0.84375 3.59375 -0.84375q1.46875 0 2.65625 0.484375q1.203125 0.46875 1.875 1.328125q0.671875 0.84375 1.03125 2.21875l-1.625 0.4375q-0.3125 -1.03125 -0.765625 -1.625q-0.453125 -0.59375 -1.296875 -0.953125q-0.84375 -0.359375 -1.875 -0.359375q-1.234375 0 -2.140625 0.375q-0.890625 0.375 -1.453125 1.0q-0.546875 0.609375 -0.84375 1.34375q-0.53125 1.25 -0.53125 2.734375q0 1.8125 0.625 3.046875q0.640625 1.21875 1.828125 1.8125q1.203125 0.59375 2.546875 0.59375q1.171875 0 2.28125 -0.453125q1.109375 -0.453125 1.6875 -0.953125l0 -2.53125l-4.0 0zm13.335358 5.328125l0 -13.59375l5.125 0q1.359375 0 2.078125 0.125q0.99998474 0.171875 1.6718597 0.640625q0.671875 0.46875 1.078125 1.3125q0.421875 0.84375 0.421875 1.84375q0 1.734375 -1.109375 2.9375q-1.09375 1.203125 -3.9843597 1.203125l-3.484375 0l0 5.53125l-1.796875 0zm1.796875 -7.140625l3.515625 0q1.75 0 2.46875 -0.640625q0.73435974 -0.65625 0.73435974 -1.828125q0 -0.859375 -0.4375 -1.46875q-0.42185974 -0.609375 -1.1249847 -0.796875q-0.453125 -0.125 -1.671875 -0.125l-3.484375 0l0 4.859375zm9.146683 7.140625l5.234375 -13.59375l1.9375 0l5.5625 13.59375l-2.046875 0l-1.59375 -4.125l-5.6875 0l-1.484375 4.125l-1.921875 0zm3.921875 -5.578125l4.609375 0l-1.40625 -3.78125q-0.65625 -1.703125 -0.96875 -2.8125q-0.265625 1.3125 -0.734375 2.59375l-1.5 4.0zm16.381073 0.25l0 -1.609375l5.765625 0l0 5.046875q-1.328125 1.0625 -2.75 1.59375q-1.40625 0.53125 -2.890625 0.53125q-2.0 0 -3.640625 -0.859375q-1.625 -0.859375 -2.46875 -2.484375q-0.828125 -1.625 -0.828125 -3.625q0 -1.984375 0.828125 -3.703125q0.828125 -1.71875 2.390625 -2.546875q1.5625 -0.84375 3.59375 -0.84375q1.46875 0 2.65625 0.484375q1.203125 0.46875 1.875 1.328125q0.671875 0.84375 1.03125 2.21875l-1.625 0.4375q-0.3125 -1.03125 -0.765625 -1.625q-0.453125 -0.59375 -1.296875 -0.953125q-0.84375 -0.359375 -1.875 -0.359375q-1.234375 0 -2.140625 0.375q-0.890625 0.375 -1.453125 1.0q-0.546875 0.609375 -0.84375 1.34375q-0.53125 1.25 -0.53125 2.734375q0 1.8125 0.625 3.046875q0.640625 1.21875 1.828125 1.8125q1.203125 0.59375 2.546875 0.59375q1.171875 0 2.28125 -0.453125q1.109375 -0.453125 1.6875 -0.953125l0 -2.53125l-4.0 0zm8.183319 5.328125l0 -13.59375l9.84375 0l0 1.59375l-8.046875 0l0 4.171875l7.53125 0l0 1.59375l-7.53125 0l0 4.625l8.359375 0l0 1.609375l-10.15625 0z" fill-rule="nonzero"></path><path fill="#000000" fill-opacity="0.0" d="m279.47977 262.35715l82.48816 0l0 33.228333l-82.48816 0z" fill-rule="evenodd"></path><path fill="#000000" d="m296.04227 281.639q0 1.15625 -0.1875 2.125q-0.1875 0.953125 -0.609375 1.65625q-0.421875 0.6875 -1.109375 1.078125q-0.6875 0.375 -1.703125 0.375q-0.953125 0 -1.609375 -0.34375q-0.640625 -0.34375 -1.046875 -1.0q-0.390625 -0.671875 -0.5625 -1.625q-0.171875 -0.96875 -0.171875 -2.21875q0 -1.15625 0.1875 -2.125q0.1875 -0.96875 0.609375 -1.65625q0.421875 -0.6875 1.109375 -1.0625q0.6875 -0.390625 1.6875 -0.390625q0.96875 0 1.609375 0.34375q0.65625 0.34375 1.046875 1.0q0.40625 0.65625 0.578125 1.625q0.171875 0.96875 0.171875 2.21875zm-1.375 0.09375q0 -0.765625 -0.0625 -1.359375q-0.046875 -0.609375 -0.15625 -1.0625q-0.109375 -0.46875 -0.28125 -0.796875q-0.15625 -0.328125 -0.390625 -0.546875q-0.234375 -0.21875 -0.546875 -0.3125q-0.296875 -0.09375 -0.671875 -0.09375q-0.65625 0 -1.078125 0.3125q-0.40625 0.3125 -0.65625 0.859375q-0.234375 0.546875 -0.328125 1.28125q-0.078125 0.734375 -0.078125 1.578125q0 1.125 0.109375 1.921875q0.125 0.796875 0.375 1.296875q0.265625 0.5 0.65625 0.734375q0.390625 0.21875 0.953125 0.21875q0.4375 0 0.765625 -0.140625q0.34375 -0.140625 0.578125 -0.40625q0.234375 -0.265625 0.390625 -0.625q0.15625 -0.375 0.25 -0.8125q0.09375 -0.453125 0.125 -0.96875q0.046875 -0.515625 0.046875 -1.078125zm8.453125 4.640625q0.0625 0.109375 0.0625 0.1875q0 0.0625 -0.078125 0.125q-0.078125 0.046875 -0.234375 0.0625q-0.140625 0.015625 -0.390625 0.015625q-0.234375 0 -0.375 -0.015625q-0.125 0 -0.21875 -0.03125q-0.078125 -0.03125 -0.125 -0.078125q-0.03125 -0.046875 -0.0625 -0.09375l-1.6875 -2.796875l-1.6875 2.796875q-0.03125 0.046875 -0.078125 0.09375q-0.03125 0.046875 -0.125 0.078125q-0.078125 0.03125 -0.21875 0.03125q-0.125 0.015625 -0.34375 0.015625q-0.21875 0 -0.375 -0.015625q-0.140625 -0.015625 -0.203125 -0.0625q-0.0625 -0.0625 -0.0625 -0.125q0 -0.078125 0.078125 -0.1875l2.1875 -3.4375l-2.078125 -3.296875q-0.0625 -0.109375 -0.0625 -0.1875q0 -0.078125 0.0625 -0.125q0.078125 -0.046875 0.234375 -0.0625q0.15625 -0.015625 0.40625 -0.015625q0.21875 0 0.359375 0.015625q0.140625 0 0.21875 0.03125q0.078125 0.015625 0.109375 0.0625q0.046875 0.03125 0.078125 0.09375l1.59375 2.609375l1.625 -2.609375q0.03125 -0.046875 0.0625 -0.078125q0.046875 -0.046875 0.109375 -0.078125q0.078125 -0.03125 0.1875 -0.03125q0.125 -0.015625 0.34375 -0.015625q0.21875 0 0.359375 0.015625q0.15625 0.015625 0.21875 0.0625q0.078125 0.03125 0.0625 0.109375q0 0.078125 -0.078125 0.203125l-2.046875 3.265625l2.171875 3.46875zm7.6953125 -5.109375q0 0.65625 -0.078125 1.328125q-0.078125 0.671875 -0.265625 1.296875q-0.1875 0.609375 -0.5 1.15625q-0.3125 0.546875 -0.796875 0.953125q-0.484375 0.40625 -1.140625 0.640625q-0.65625 0.234375 -1.53125 0.234375q-0.34375 0 -0.65625 -0.046875q-0.3125 -0.046875 -0.578125 -0.109375q-0.25 -0.0625 -0.421875 -0.125q-0.171875 -0.078125 -0.25 -0.140625q-0.078125 -0.078125 -0.109375 -0.203125q-0.03125 -0.125 -0.03125 -0.328125q0 -0.171875 0 -0.265625q0.015625 -0.109375 0.03125 -0.15625q0.03125 -0.0625 0.078125 -0.078125q0.046875 -0.015625 0.109375 -0.015625q0.078125 0 0.234375 0.0625q0.15625 0.046875 0.390625 0.125q0.25 0.0625 0.5625 0.125q0.328125 0.0625 0.71875 0.0625q0.765625 0 1.296875 -0.296875q0.546875 -0.296875 0.890625 -0.78125q0.34375 -0.5 0.515625 -1.140625q0.171875 -0.65625 0.1875 -1.375q-0.40625 0.25 -0.984375 0.4375q-0.578125 0.1875 -1.328125 0.1875q-0.84375 0 -1.421875 -0.234375q-0.578125 -0.234375 -0.921875 -0.625q-0.34375 -0.40625 -0.5 -0.953125q-0.15625 -0.546875 -0.15625 -1.1875q0 -0.671875 0.1875 -1.28125q0.203125 -0.609375 0.609375 -1.0625q0.421875 -0.46875 1.0625 -0.734375q0.640625 -0.28125 1.53125 -0.28125q0.640625 0 1.125 0.171875q0.484375 0.15625 0.84375 0.453125q0.359375 0.296875 0.609375 0.734375q0.25 0.421875 0.40625 0.96875q0.15625 0.53125 0.21875 1.15625q0.0625 0.625 0.0625 1.328125zm-1.359375 -0.15625q0 -1.0 -0.140625 -1.671875q-0.125 -0.6875 -0.390625 -1.109375q-0.25 -0.421875 -0.625 -0.609375q-0.375 -0.1875 -0.875 -0.1875q-0.5 0 -0.859375 0.1875q-0.359375 0.171875 -0.59375 0.484375q-0.234375 0.3125 -0.34375 0.703125q-0.109375 0.390625 -0.109375 0.796875q0 0.46875 0.09375 0.859375q0.109375 0.375 0.328125 0.640625q0.21875 0.265625 0.5625 0.40625q0.359375 0.140625 0.875 0.140625q0.578125 0 1.125 -0.171875q0.546875 -0.171875 0.953125 -0.46875zm8.828125 -3.921875q0 0.140625 -0.015625 0.25q-0.015625 0.109375 -0.0625 0.1875q-0.03125 0.0625 -0.078125 0.09375q-0.046875 0.03125 -0.109375 0.03125l-3.703125 0l0 3.4375l3.5 0q0.0625 0 0.109375 0.03125q0.046875 0.015625 0.078125 0.078125q0.046875 0.0625 0.0625 0.171875q0.015625 0.109375 0.015625 0.265625q0 0.15625 -0.015625 0.265625q-0.015625 0.09375 -0.0625 0.171875q-0.03125 0.0625 -0.078125 0.09375q-0.046875 0.03125 -0.109375 0.03125l-3.5 0l0 4.21875q0 0.046875 -0.03125 0.109375q-0.03125 0.046875 -0.109375 0.078125q-0.078125 0.03125 -0.203125 0.046875q-0.125 0.015625 -0.328125 0.015625q-0.1875 0 -0.328125 -0.015625q-0.125 -0.015625 -0.203125 -0.046875q-0.078125 -0.03125 -0.109375 -0.078125q-0.03125 -0.0625 -0.03125 -0.109375l0 -9.359375q0 -0.3125 0.15625 -0.421875q0.171875 -0.125 0.34375 -0.125l4.546875 0q0.0625 0 0.109375 0.03125q0.046875 0.03125 0.078125 0.109375q0.046875 0.0625 0.0625 0.171875q0.015625 0.109375 0.015625 0.265625zm8.0703125 0q0 0.140625 -0.015625 0.25q-0.015625 0.109375 -0.03125 0.21875q-0.015625 0.109375 -0.0625 0.203125q-0.03125 0.09375 -0.078125 0.203125l-3.640625 8.390625q-0.03125 0.09375 -0.09375 0.15625q-0.0625 0.0625 -0.15625 0.109375q-0.078125 0.03125 -0.21875 0.03125q-0.140625 0.015625 -0.34375 0.015625q-0.265625 0 -0.421875 -0.03125q-0.140625 -0.015625 -0.21875 -0.0625q-0.0625 -0.0625 -0.0625 -0.125q0.015625 -0.078125 0.0625 -0.1875l3.828125 -8.578125l-4.84375 0q-0.15625 0 -0.234375 -0.15625q-0.0625 -0.15625 -0.0625 -0.4375q0 -0.140625 0.015625 -0.25q0.015625 -0.109375 0.046875 -0.1875q0.046875 -0.078125 0.09375 -0.109375q0.0625 -0.03125 0.140625 -0.03125l5.890625 0q0.109375 0 0.1875 0.03125q0.078125 0.015625 0.125 0.09375q0.046875 0.0625 0.0625 0.171875q0.03125 0.109375 0.03125 0.28125zm8.296875 4.453125q0 1.15625 -0.1875 2.125q-0.1875 0.953125 -0.609375 1.65625q-0.421875 0.6875 -1.109375 1.078125q-0.6875 0.375 -1.703125 0.375q-0.953125 0 -1.609375 -0.34375q-0.640625 -0.34375 -1.046875 -1.0q-0.390625 -0.671875 -0.5625 -1.625q-0.171875 -0.96875 -0.171875 -2.21875q0 -1.15625 0.1875 -2.125q0.1875 -0.96875 0.609375 -1.65625q0.421875 -0.6875 1.109375 -1.0625q0.6875 -0.390625 1.6875 -0.390625q0.96875 0 1.609375 0.34375q0.65625 0.34375 1.046875 1.0q0.40625 0.65625 0.578125 1.625q0.171875 0.96875 0.171875 2.21875zm-1.375 0.09375q0 -0.765625 -0.0625 -1.359375q-0.046875 -0.609375 -0.15625 -1.0625q-0.109375 -0.46875 -0.28125 -0.796875q-0.15625 -0.328125 -0.390625 -0.546875q-0.234375 -0.21875 -0.546875 -0.3125q-0.296875 -0.09375 -0.671875 -0.09375q-0.65625 0 -1.078125 0.3125q-0.40625 0.3125 -0.65625 0.859375q-0.234375 0.546875 -0.328125 1.28125q-0.078125 0.734375 -0.078125 1.578125q0 1.125 0.109375 1.921875q0.125 0.796875 0.375 1.296875q0.265625 0.5 0.65625 0.734375q0.390625 0.21875 0.953125 0.21875q0.4375 0 0.765625 -0.140625q0.34375 -0.140625 0.578125 -0.40625q0.234375 -0.265625 0.390625 -0.625q0.15625 -0.375 0.25 -0.8125q0.09375 -0.453125 0.125 -0.96875q0.046875 -0.515625 0.046875 -1.078125z" fill-rule="nonzero"></path><path fill="#000000" fill-opacity="0.0" d="m279.47977 355.7143l82.48816 0l0 33.228333l-82.48816 0z" fill-rule="evenodd"></path><path fill="#000000" d="m296.04227 374.99615q0 1.15625 -0.1875 2.125q-0.1875 0.953125 -0.609375 1.65625q-0.421875 0.6875 -1.109375 1.078125q-0.6875 0.375 -1.703125 0.375q-0.953125 0 -1.609375 -0.34375q-0.640625 -0.34375 -1.046875 -1.0q-0.390625 -0.671875 -0.5625 -1.625q-0.171875 -0.96875 -0.171875 -2.21875q0 -1.15625 0.1875 -2.125q0.1875 -0.96875 0.609375 -1.65625q0.421875 -0.6875 1.109375 -1.0625q0.6875 -0.390625 1.6875 -0.390625q0.96875 0 1.609375 0.34375q0.65625 0.34375 1.046875 1.0q0.40625 0.65625 0.578125 1.625q0.171875 0.96875 0.171875 2.21875zm-1.375 0.09375q0 -0.765625 -0.0625 -1.359375q-0.046875 -0.609375 -0.15625 -1.0625q-0.109375 -0.46875 -0.28125 -0.796875q-0.15625 -0.328125 -0.390625 -0.546875q-0.234375 -0.21875 -0.546875 -0.3125q-0.296875 -0.09375 -0.671875 -0.09375q-0.65625 0 -1.078125 0.3125q-0.40625 0.3125 -0.65625 0.859375q-0.234375 0.546875 -0.328125 1.28125q-0.078125 0.734375 -0.078125 1.578125q0 1.125 0.109375 1.921875q0.125 0.796875 0.375 1.296875q0.265625 0.5 0.65625 0.734375q0.390625 0.21875 0.953125 0.21875q0.4375 0 0.765625 -0.140625q0.34375 -0.140625 0.578125 -0.40625q0.234375 -0.265625 0.390625 -0.625q0.15625 -0.375 0.25 -0.8125q0.09375 -0.453125 0.125 -0.96875q0.046875 -0.515625 0.046875 -1.078125zm8.453125 4.640625q0.0625 0.109375 0.0625 0.1875q0 0.0625 -0.078125 0.125q-0.078125 0.046875 -0.234375 0.0625q-0.140625 0.015625 -0.390625 0.015625q-0.234375 0 -0.375 -0.015625q-0.125 0 -0.21875 -0.03125q-0.078125 -0.03125 -0.125 -0.078125q-0.03125 -0.046875 -0.0625 -0.09375l-1.6875 -2.796875l-1.6875 2.796875q-0.03125 0.046875 -0.078125 0.09375q-0.03125 0.046875 -0.125 0.078125q-0.078125 0.03125 -0.21875 0.03125q-0.125 0.015625 -0.34375 0.015625q-0.21875 0 -0.375 -0.015625q-0.140625 -0.015625 -0.203125 -0.0625q-0.0625 -0.0625 -0.0625 -0.125q0 -0.078125 0.078125 -0.1875l2.1875 -3.4375l-2.078125 -3.296875q-0.0625 -0.109375 -0.0625 -0.1875q0 -0.078125 0.0625 -0.125q0.078125 -0.046875 0.234375 -0.0625q0.15625 -0.015625 0.40625 -0.015625q0.21875 0 0.359375 0.015625q0.140625 0 0.21875 0.03125q0.078125 0.015625 0.109375 0.0625q0.046875 0.03125 0.078125 0.09375l1.59375 2.609375l1.625 -2.609375q0.03125 -0.046875 0.0625 -0.078125q0.046875 -0.046875 0.109375 -0.078125q0.078125 -0.03125 0.1875 -0.03125q0.125 -0.015625 0.34375 -0.015625q0.21875 0 0.359375 0.015625q0.15625 0.015625 0.21875 0.0625q0.078125 0.03125 0.0625 0.109375q0 0.078125 -0.078125 0.203125l-2.046875 3.265625l2.171875 3.46875zm8.4921875 -1.09375q0 0.125 -0.015625 0.21875q0 0.09375 -0.015625 0.171875q-0.015625 0.0625 -0.046875 0.125q-0.03125 0.046875 -0.109375 0.125q-0.078125 0.078125 -0.328125 0.25q-0.25 0.15625 -0.625 0.3125q-0.375 0.140625 -0.859375 0.25q-0.46875 0.109375 -1.046875 0.109375q-0.984375 0 -1.78125 -0.328125q-0.78125 -0.328125 -1.34375 -0.96875q-0.5625 -0.640625 -0.859375 -1.578125q-0.296875 -0.953125 -0.296875 -2.171875q0 -1.265625 0.3125 -2.25q0.328125 -0.984375 0.90625 -1.65625q0.59375 -0.6875 1.40625 -1.046875q0.828125 -0.359375 1.8125 -0.359375q0.4375 0 0.84375 0.078125q0.421875 0.078125 0.765625 0.203125q0.359375 0.125 0.625 0.296875q0.28125 0.15625 0.390625 0.265625q0.109375 0.109375 0.140625 0.171875q0.03125 0.046875 0.046875 0.125q0.015625 0.0625 0.03125 0.171875q0.015625 0.09375 0.015625 0.234375q0 0.15625 -0.015625 0.265625q-0.015625 0.109375 -0.046875 0.1875q-0.03125 0.078125 -0.078125 0.109375q-0.046875 0.03125 -0.109375 0.03125q-0.109375 0 -0.3125 -0.140625q-0.1875 -0.15625 -0.5 -0.34375q-0.296875 -0.1875 -0.75 -0.328125q-0.4375 -0.15625 -1.046875 -0.15625q-0.671875 0 -1.234375 0.265625q-0.546875 0.265625 -0.9375 0.796875q-0.390625 0.515625 -0.609375 1.28125q-0.203125 0.75 -0.203125 1.71875q0 0.953125 0.203125 1.703125q0.203125 0.734375 0.59375 1.234375q0.390625 0.484375 0.953125 0.75q0.5625 0.25 1.265625 0.25q0.609375 0 1.046875 -0.140625q0.453125 -0.15625 0.765625 -0.34375q0.328125 -0.1875 0.53125 -0.328125q0.203125 -0.15625 0.3125 -0.15625q0.0625 0 0.09375 0.03125q0.046875 0.015625 0.0625 0.09375q0.03125 0.0625 0.03125 0.1875q0.015625 0.109375 0.015625 0.28125zm7.09375 -8.09375q0 0.140625 -0.015625 0.25q-0.015625 0.109375 -0.0625 0.1875q-0.03125 0.0625 -0.078125 0.09375q-0.046875 0.03125 -0.109375 0.03125l-3.703125 0l0 3.4375l3.5 0q0.0625 0 0.109375 0.03125q0.046875 0.015625 0.078125 0.078125q0.046875 0.0625 0.0625 0.171875q0.015625 0.109375 0.015625 0.265625q0 0.15625 -0.015625 0.265625q-0.015625 0.09375 -0.0625 0.171875q-0.03125 0.0625 -0.078125 0.09375q-0.046875 0.03125 -0.109375 0.03125l-3.5 0l0 4.21875q0 0.046875 -0.03125 0.109375q-0.03125 0.046875 -0.109375 0.078125q-0.078125 0.03125 -0.203125 0.046875q-0.125 0.015625 -0.328125 0.015625q-0.1875 0 -0.328125 -0.015625q-0.125 -0.015625 -0.203125 -0.046875q-0.078125 -0.03125 -0.109375 -0.078125q-0.03125 -0.0625 -0.03125 -0.109375l0 -9.359375q0 -0.3125 0.15625 -0.421875q0.171875 -0.125 0.34375 -0.125l4.546875 0q0.0625 0 0.109375 0.03125q0.046875 0.03125 0.078125 0.109375q0.046875 0.0625 0.0625 0.171875q0.015625 0.109375 0.015625 0.265625zm8.0703125 0q0 0.140625 -0.015625 0.25q-0.015625 0.109375 -0.03125 0.21875q-0.015625 0.109375 -0.0625 0.203125q-0.03125 0.09375 -0.078125 0.203125l-3.640625 8.390625q-0.03125 0.09375 -0.09375 0.15625q-0.0625 0.0625 -0.15625 0.109375q-0.078125 0.03125 -0.21875 0.03125q-0.140625 0.015625 -0.34375 0.015625q-0.265625 0 -0.421875 -0.03125q-0.140625 -0.015625 -0.21875 -0.0625q-0.0625 -0.0625 -0.0625 -0.125q0.015625 -0.078125 0.0625 -0.1875l3.828125 -8.578125l-4.84375 0q-0.15625 0 -0.234375 -0.15625q-0.0625 -0.15625 -0.0625 -0.4375q0 -0.140625 0.015625 -0.25q0.015625 -0.109375 0.046875 -0.1875q0.046875 -0.078125 0.09375 -0.109375q0.0625 -0.03125 0.140625 -0.03125l5.890625 0q0.109375 0 0.1875 0.03125q0.078125 0.015625 0.125 0.09375q0.046875 0.0625 0.0625 0.171875q0.03125 0.109375 0.03125 0.28125zm8.296875 4.453125q0 1.15625 -0.1875 2.125q-0.1875 0.953125 -0.609375 1.65625q-0.421875 0.6875 -1.109375 1.078125q-0.6875 0.375 -1.703125 0.375q-0.953125 0 -1.609375 -0.34375q-0.640625 -0.34375 -1.046875 -1.0q-0.390625 -0.671875 -0.5625 -1.625q-0.171875 -0.96875 -0.171875 -2.21875q0 -1.15625 0.1875 -2.125q0.1875 -0.96875 0.609375 -1.65625q0.421875 -0.6875 1.109375 -1.0625q0.6875 -0.390625 1.6875 -0.390625q0.96875 0 1.609375 0.34375q0.65625 0.34375 1.046875 1.0q0.40625 0.65625 0.578125 1.625q0.171875 0.96875 0.171875 2.21875zm-1.375 0.09375q0 -0.765625 -0.0625 -1.359375q-0.046875 -0.609375 -0.15625 -1.0625q-0.109375 -0.46875 -0.28125 -0.796875q-0.15625 -0.328125 -0.390625 -0.546875q-0.234375 -0.21875 -0.546875 -0.3125q-0.296875 -0.09375 -0.671875 -0.09375q-0.65625 0 -1.078125 0.3125q-0.40625 0.3125 -0.65625 0.859375q-0.234375 0.546875 -0.328125 1.28125q-0.078125 0.734375 -0.078125 1.578125q0 1.125 0.109375 1.921875q0.125 0.796875 0.375 1.296875q0.265625 0.5 0.65625 0.734375q0.390625 0.21875 0.953125 0.21875q0.4375 0 0.765625 -0.140625q0.34375 -0.140625 0.578125 -0.40625q0.234375 -0.265625 0.390625 -0.625q0.15625 -0.375 0.25 -0.8125q0.09375 -0.453125 0.125 -0.96875q0.046875 -0.515625 0.046875 -1.078125z" fill-rule="nonzero"></path><path fill="#fff2cc" d="m82.41732 267.7533l197.13385 0l0 19.842499l-197.13385 0z" fill-rule="evenodd"></path><path stroke="#000000" stroke-width="2.0" stroke-linejoin="round" stroke-linecap="butt" d="m82.41732 267.7533l197.13385 0l0 19.842499l-197.13385 0z" fill-rule="evenodd"></path><path fill="#000000" d="m107.25769 283.53455l-4.4375 -11.453125l1.640625 0l2.96875 8.3125q0.359375 1.0 0.609375 1.875q0.265625 -0.9375 0.609375 -1.875l3.09375 -8.3125l1.546875 0l-4.484375 11.453125l-1.546875 0zm7.65625 0l0 -11.453125l1.515625 0l0 11.453125l-1.515625 0zm4.1796875 0l0 -11.453125l4.328125 0q1.140625 0 1.734375 0.109375q0.84375 0.140625 1.40625 0.53125q0.578125 0.390625 0.921875 1.109375q0.359375 0.703125 0.359375 1.5625q0 1.453125 -0.9375 2.46875q-0.921875 1.015625 -3.359375 1.015625l-2.9375 0l0 4.65625l-1.515625 0zm1.515625 -6.015625l2.96875 0q1.46875 0 2.078125 -0.546875q0.625 -0.546875 0.625 -1.53125q0 -0.71875 -0.375 -1.234375q-0.359375 -0.515625 -0.953125 -0.671875q-0.375 -0.109375 -1.40625 -0.109375l-2.9375 0l0 4.09375zm9.1875 6.015625l0 -11.453125l8.28125 0l0 1.34375l-6.765625 0l0 3.515625l6.34375 0l0 1.34375l-6.34375 0l0 3.890625l7.03125 0l0 1.359375l-8.546875 0zm15.0859375 0l0 -11.453125l4.328125 0q1.140625 0 1.734375 0.109375q0.84375 0.140625 1.40625 0.53125q0.578125 0.390625 0.921875 1.109375q0.359375 0.703125 0.359375 1.5625q0 1.453125 -0.9375 2.46875q-0.921875 1.015625 -3.359375 1.015625l-2.9375 0l0 4.65625l-1.515625 0zm1.515625 -6.015625l2.96875 0q1.46875 0 2.078125 -0.546875q0.625 -0.546875 0.625 -1.53125q0 -0.71875 -0.375 -1.234375q-0.359375 -0.515625 -0.953125 -0.671875q-0.375 -0.109375 -1.40625 -0.109375l-2.9375 0l0 4.09375zm9.1875 6.015625l0 -11.453125l5.078125 0q1.53125 0 2.328125 0.3125q0.796875 0.296875 1.265625 1.078125q0.484375 0.78125 0.484375 1.734375q0 1.21875 -0.796875 2.0625q-0.78125 0.828125 -2.4375 1.046875q0.609375 0.296875 0.921875 0.578125q0.65625 0.609375 1.25 1.515625l2.0 3.125l-1.90625 0l-1.515625 -2.390625q-0.671875 -1.03125 -1.109375 -1.578125q-0.421875 -0.546875 -0.765625 -0.765625q-0.328125 -0.21875 -0.6875 -0.296875q-0.25 -0.0625 -0.84375 -0.0625l-1.75 0l0 5.09375l-1.515625 0zm1.515625 -6.40625l3.25 0q1.046875 0 1.625 -0.203125q0.59375 -0.21875 0.890625 -0.6875q0.3125 -0.484375 0.3125 -1.03125q0 -0.8125 -0.59375 -1.328125q-0.59375 -0.53125 -1.859375 -0.53125l-3.625 0l0 3.78125zm10.2734375 6.40625l0 -11.453125l1.515625 0l0 11.453125l-1.515625 0zm7.4609375 0l-4.4375 -11.453125l1.640625 0l2.96875 8.3125q0.359375 1.0 0.609375 1.875q0.265625 -0.9375 0.609375 -1.875l3.09375 -8.3125l1.546875 0l-4.484375 11.453125l-1.546875 0zm6.125 0l4.40625 -11.453125l1.640625 0l4.6875 11.453125l-1.734375 0l-1.328125 -3.46875l-4.796875 0l-1.25 3.46875l-1.625 0zm3.3125 -4.703125l3.890625 0l-1.203125 -3.171875q-0.546875 -1.453125 -0.8125 -2.375q-0.21875 1.09375 -0.609375 2.1875l-1.265625 3.359375zm11.546875 4.703125l0 -10.109375l-3.78125 0l0 -1.34375l9.078125 0l0 1.34375l-3.78125 0l0 10.109375l-1.515625 0zm6.8828125 0l0 -11.453125l8.28125 0l0 1.34375l-6.765625 0l0 3.515625l6.34375 0l0 1.34375l-6.34375 0l0 3.890625l7.03125 0l0 1.359375l-8.546875 0zm15.0859375 0l0 -11.453125l3.953125 0q1.328125 0 2.03125 0.15625q0.984375 0.234375 1.6875 0.828125q0.90625 0.765625 1.34375 1.953125q0.453125 1.1875 0.453125 2.71875q0 1.3125 -0.3125 2.328125q-0.296875 1.0 -0.78125 1.65625q-0.46875 0.65625 -1.03125 1.046875q-0.5625 0.375 -1.375 0.578125q-0.796875 0.1875 -1.828125 0.1875l-4.140625 0zm1.515625 -1.359375l2.453125 0q1.125 0 1.765625 -0.203125q0.65625 -0.21875 1.03125 -0.59375q0.546875 -0.546875 0.84375 -1.453125q0.296875 -0.90625 0.296875 -2.203125q0 -1.796875 -0.59375 -2.765625q-0.578125 -0.96875 -1.421875 -1.296875q-0.609375 -0.234375 -1.96875 -0.234375l-2.40625 0l0 8.75zm8.7734375 1.359375l4.40625 -11.453125l1.640625 0l4.6875 11.453125l-1.734375 0l-1.328125 -3.46875l-4.796875 0l-1.25 3.46875l-1.625 0zm3.3125 -4.703125l3.890625 0l-1.203125 -3.171875q-0.546875 -1.453125 -0.8125 -2.375q-0.21875 1.09375 -0.609375 2.1875l-1.265625 3.359375zm11.546875 4.703125l0 -10.109375l-3.78125 0l0 -1.34375l9.078125 0l0 1.34375l-3.78125 0l0 10.109375l-1.515625 0zm5.5859375 0l4.40625 -11.453125l1.640625 0l4.6875 11.453125l-1.734375 0l-1.328125 -3.46875l-4.796875 0l-1.25 3.46875l-1.625 0zm3.3125 -4.703125l3.890625 0l-1.203125 -3.171875q-0.546875 -1.453125 -0.8125 -2.375q-0.21875 1.09375 -0.609375 2.1875l-1.265625 3.359375z" fill-rule="nonzero"></path><path fill="#000000" fill-opacity="0.0" d="m181.25197 137.58005l-0.5354309 26.330719" fill-rule="evenodd"></path><path stroke="#000000" stroke-width="2.0" stroke-linejoin="round" stroke-linecap="butt" stroke-dasharray="2.0,6.0" d="m181.25197 137.58005l-0.5354309 26.330719" fill-rule="evenodd"></path><path fill="#ffffff" d="m82.41732 171.75328l197.13385 0l0 96.000015l-197.13385 0z" fill-rule="evenodd"></path><path stroke="#000000" stroke-width="2.0" stroke-linejoin="round" stroke-linecap="butt" d="m82.41732 171.75328l197.13385 0l0 96.000015l-197.13385 0z" fill-rule="evenodd"></path><path fill="#000000" d="m135.91626 213.07953l1.796875 0l0 7.84375q0 2.0625 -0.46875 3.265625q-0.453125 1.203125 -1.671875 1.96875q-1.203125 0.75 -3.171875 0.75q-1.90625 0 -3.125 -0.65625q-1.21875 -0.65625 -1.734375 -1.90625q-0.515625 -1.25 -0.515625 -3.421875l0 -7.84375l1.796875 0l0 7.84375q0 1.765625 0.328125 2.609375q0.328125 0.84375 1.125 1.296875q0.8125 0.453125 1.96875 0.453125q1.984375 0 2.828125 -0.890625q0.84375 -0.90625 0.84375 -3.46875l0 -7.84375zm3.9416962 9.21875l1.6875 -0.140625q0.125 1.015625 0.5625 1.671875q0.4375 0.65625 1.359375 1.0625q0.9375 0.40625 2.09375 0.40625q1.03125 0 1.8125 -0.3125q0.796875 -0.3125 1.1875 -0.84375q0.390625 -0.53125 0.390625 -1.15625q0 -0.640625 -0.375 -1.109375q-0.375 -0.484375 -1.234375 -0.8125q-0.546875 -0.21875 -2.421875 -0.65625q-1.875 -0.453125 -2.625 -0.859375q-0.96875 -0.515625 -1.453125 -1.265625q-0.46875 -0.75 -0.46875 -1.6875q0 -1.03125 0.578125 -1.921875q0.59375 -0.90625 1.703125 -1.359375q1.125 -0.46875 2.5 -0.46875q1.515625 0 2.671875 0.484375q1.15625 0.484375 1.765625 1.4375q0.625 0.9375 0.671875 2.140625l-1.71875 0.125q-0.140625 -1.28125 -0.953125 -1.9375q-0.796875 -0.671875 -2.359375 -0.671875q-1.625 0 -2.375 0.609375q-0.75 0.59375 -0.75 1.4375q0 0.734375 0.53125 1.203125q0.515625 0.46875 2.703125 0.96875q2.203125 0.5 3.015625 0.875q1.1875 0.546875 1.75 1.390625q0.578125 0.828125 0.578125 1.921875q0 1.09375 -0.625 2.0625q-0.625 0.953125 -1.796875 1.484375q-1.15625 0.53125 -2.609375 0.53125q-1.84375 0 -3.09375 -0.53125q-1.25 -0.546875 -1.96875 -1.625q-0.703125 -1.078125 -0.734375 -2.453125zm13.084198 4.375l0 -13.59375l9.84375 0l0 1.59375l-8.046875 0l0 4.171875l7.53125 0l0 1.59375l-7.53125 0l0 4.625l8.359375 0l0 1.609375l-10.15625 0zm12.443573 0l0 -13.59375l6.03125 0q1.8125 0 2.75 0.359375q0.953125 0.359375 1.515625 1.296875q0.5625 0.921875 0.5625 2.046875q0 1.453125 -0.9375 2.453125q-0.921875 0.984375 -2.890625 1.25q0.71875 0.34375 1.09375 0.671875q0.78125 0.734375 1.484375 1.8125l2.375 3.703125l-2.265625 0l-1.796875 -2.828125q-0.796875 -1.21875 -1.3125 -1.875q-0.5 -0.65625 -0.90625 -0.90625q-0.40625 -0.265625 -0.8125 -0.359375q-0.3125 -0.078125 -1.015625 -0.078125l-2.078125 0l0 6.046875l-1.796875 0zm1.796875 -7.59375l3.859375 0q1.234375 0 1.921875 -0.25q0.703125 -0.265625 1.0625 -0.828125q0.375 -0.5625 0.375 -1.21875q0 -0.96875 -0.703125 -1.578125q-0.703125 -0.625 -2.21875 -0.625l-4.296875 0l0 4.5zm26.53125 2.828125l1.796875 0.453125q-0.5625 2.21875 -2.03125 3.390625q-1.46875 1.15625 -3.59375 1.15625q-2.203125 0 -3.578125 -0.890625q-1.375 -0.90625 -2.09375 -2.59375q-0.71875 -1.703125 -0.71875 -3.65625q0 -2.125 0.796875 -3.703125q0.8125 -1.578125 2.3125 -2.390625q1.5 -0.828125 3.296875 -0.828125q2.046875 0 3.4375 1.046875q1.390625 1.03125 1.9375 2.90625l-1.765625 0.421875q-0.46875 -1.484375 -1.375 -2.15625q-0.90625 -0.6875 -2.265625 -0.6875q-1.5625 0 -2.625 0.75q-1.046875 0.75 -1.484375 2.03125q-0.421875 1.265625 -0.421875 2.609375q0 1.734375 0.5 3.03125q0.515625 1.28125 1.578125 1.921875q1.078125 0.640625 2.3125 0.640625q1.515625 0 2.5625 -0.859375q1.046875 -0.875 1.421875 -2.59375zm3.2229462 -1.859375q0 -3.390625 1.8125 -5.296875q1.828125 -1.921875 4.703125 -1.921875q1.875 0 3.390625 0.90625q1.515625 0.890625 2.296875 2.5q0.796875 1.609375 0.796875 3.65625q0 2.0625 -0.84375 3.703125q-0.828125 1.625 -2.359375 2.46875q-1.53125 0.84375 -3.296875 0.84375q-1.921875 0 -3.4375 -0.921875q-1.5 -0.9375 -2.28125 -2.53125q-0.78125 -1.609375 -0.78125 -3.40625zm1.859375 0.03125q0 2.453125 1.3125 3.875q1.328125 1.40625 3.3125 1.40625q2.03125 0 3.34375 -1.421875q1.3125 -1.4375 1.3125 -4.0625q0 -1.65625 -0.5625 -2.890625q-0.546875 -1.234375 -1.640625 -1.921875q-1.078125 -0.6875 -2.421875 -0.6875q-1.90625 0 -3.28125 1.3125q-1.375 1.3125 -1.375 4.390625zm13.198944 6.59375l0 -13.59375l4.6875 0q1.578125 0 2.421875 0.1875q1.15625 0.265625 1.984375 0.96875q1.078125 0.921875 1.609375 2.34375q0.53125 1.40625 0.53125 3.21875q0 1.546875 -0.359375 2.75q-0.359375 1.1875 -0.921875 1.984375q-0.5625 0.78125 -1.234375 1.234375q-0.671875 0.4375 -1.625 0.671875q-0.953125 0.234375 -2.1875 0.234375l-4.90625 0zm1.796875 -1.609375l2.90625 0q1.34375 0 2.109375 -0.25q0.765625 -0.25 1.21875 -0.703125q0.640625 -0.640625 1.0 -1.71875q0.359375 -1.078125 0.359375 -2.625q0 -2.125 -0.703125 -3.265625q-0.703125 -1.15625 -1.703125 -1.546875q-0.71875 -0.28125 -2.328125 -0.28125l-2.859375 0l0 10.390625zm11.707306 1.609375l0 -13.59375l9.84375 0l0 1.59375l-8.046875 0l0 4.171875l7.53125 0l0 1.59375l-7.53125 0l0 4.625l8.359375 0l0 1.609375l-10.15625 0z" fill-rule="nonzero"></path><path fill="#000000" fill-opacity="0.0" d="m279.47977 151.42857l82.48816 0l0 33.228348l-82.48816 0z" fill-rule="evenodd"></path><path fill="#000000" d="m296.04227 170.71045q0 1.15625 -0.1875 2.125q-0.1875 0.953125 -0.609375 1.65625q-0.421875 0.6875 -1.109375 1.078125q-0.6875 0.375 -1.703125 0.375q-0.953125 0 -1.609375 -0.34375q-0.640625 -0.34375 -1.046875 -1.0q-0.390625 -0.671875 -0.5625 -1.625q-0.171875 -0.96875 -0.171875 -2.21875q0 -1.15625 0.1875 -2.125q0.1875 -0.96875 0.609375 -1.65625q0.421875 -0.6875 1.109375 -1.0625q0.6875 -0.390625 1.6875 -0.390625q0.96875 0 1.609375 0.34375q0.65625 0.34375 1.046875 1.0q0.40625 0.65625 0.578125 1.625q0.171875 0.96875 0.171875 2.21875zm-1.375 0.09375q0 -0.765625 -0.0625 -1.359375q-0.046875 -0.609375 -0.15625 -1.0625q-0.109375 -0.46875 -0.28125 -0.796875q-0.15625 -0.328125 -0.390625 -0.546875q-0.234375 -0.21875 -0.546875 -0.3125q-0.296875 -0.09375 -0.671875 -0.09375q-0.65625 0 -1.078125 0.3125q-0.40625 0.3125 -0.65625 0.859375q-0.234375 0.546875 -0.328125 1.28125q-0.078125 0.734375 -0.078125 1.578125q0 1.125 0.109375 1.921875q0.125 0.796875 0.375 1.296875q0.265625 0.5 0.65625 0.734375q0.390625 0.21875 0.953125 0.21875q0.4375 0 0.765625 -0.140625q0.34375 -0.140625 0.578125 -0.40625q0.234375 -0.265625 0.390625 -0.625q0.15625 -0.375 0.25 -0.8125q0.09375 -0.453125 0.125 -0.96875q0.046875 -0.515625 0.046875 -1.078125zm8.453125 4.640625q0.0625 0.109375 0.0625 0.1875q0 0.0625 -0.078125 0.125q-0.078125 0.046875 -0.234375 0.0625q-0.140625 0.015625 -0.390625 0.015625q-0.234375 0 -0.375 -0.015625q-0.125 0 -0.21875 -0.03125q-0.078125 -0.03125 -0.125 -0.078125q-0.03125 -0.046875 -0.0625 -0.09375l-1.6875 -2.796875l-1.6875 2.796875q-0.03125 0.046875 -0.078125 0.09375q-0.03125 0.046875 -0.125 0.078125q-0.078125 0.03125 -0.21875 0.03125q-0.125 0.015625 -0.34375 0.015625q-0.21875 0 -0.375 -0.015625q-0.140625 -0.015625 -0.203125 -0.0625q-0.0625 -0.0625 -0.0625 -0.125q0 -0.078125 0.078125 -0.1875l2.1875 -3.4375l-2.078125 -3.296875q-0.0625 -0.109375 -0.0625 -0.1875q0 -0.078125 0.0625 -0.125q0.078125 -0.046875 0.234375 -0.0625q0.15625 -0.015625 0.40625 -0.015625q0.21875 0 0.359375 0.015625q0.140625 0 0.21875 0.03125q0.078125 0.015625 0.109375 0.0625q0.046875 0.03125 0.078125 0.09375l1.59375 2.609375l1.625 -2.609375q0.03125 -0.046875 0.0625 -0.078125q0.046875 -0.046875 0.109375 -0.078125q0.078125 -0.03125 0.1875 -0.03125q0.125 -0.015625 0.34375 -0.015625q0.21875 0 0.359375 0.015625q0.15625 0.015625 0.21875 0.0625q0.078125 0.03125 0.0625 0.109375q0 0.078125 -0.078125 0.203125l-2.046875 3.265625l2.171875 3.46875zm8.0546875 -2.53125q0 0.25 -0.078125 0.40625q-0.078125 0.140625 -0.21875 0.140625l-1.140625 0l0 2.125q0 0.0625 -0.03125 0.109375q-0.03125 0.046875 -0.109375 0.078125q-0.078125 0.03125 -0.203125 0.046875q-0.125 0.015625 -0.328125 0.015625q-0.1875 0 -0.3125 -0.015625q-0.125 -0.015625 -0.203125 -0.046875q-0.0625 -0.03125 -0.09375 -0.078125q-0.03125 -0.046875 -0.03125 -0.109375l0 -2.125l-4.171875 0q-0.09375 0 -0.15625 -0.015625q-0.0625 -0.03125 -0.109375 -0.09375q-0.046875 -0.0625 -0.078125 -0.171875q-0.015625 -0.125 -0.015625 -0.3125q0 -0.140625 0 -0.25q0.015625 -0.125 0.03125 -0.21875q0.03125 -0.109375 0.0625 -0.1875q0.046875 -0.09375 0.109375 -0.203125l3.640625 -6.140625q0.03125 -0.0625 0.109375 -0.109375q0.078125 -0.046875 0.1875 -0.078125q0.125 -0.03125 0.296875 -0.03125q0.171875 -0.015625 0.40625 -0.015625q0.25 0 0.4375 0.015625q0.203125 0.015625 0.3125 0.046875q0.125 0.03125 0.1875 0.09375q0.0625 0.046875 0.0625 0.109375l0 6.453125l1.140625 0q0.125 0 0.203125 0.140625q0.09375 0.140625 0.09375 0.421875zm-2.75 -6.109375l-0.015625 0l-3.28125 5.546875l3.296875 0l0 -5.546875zm10.859375 6.109375q0 0.25 -0.078125 0.40625q-0.078125 0.140625 -0.21875 0.140625l-1.140625 0l0 2.125q0 0.0625 -0.03125 0.109375q-0.03125 0.046875 -0.109375 0.078125q-0.078125 0.03125 -0.203125 0.046875q-0.125 0.015625 -0.328125 0.015625q-0.1875 0 -0.3125 -0.015625q-0.125 -0.015625 -0.203125 -0.046875q-0.0625 -0.03125 -0.09375 -0.078125q-0.03125 -0.046875 -0.03125 -0.109375l0 -2.125l-4.171875 0q-0.09375 0 -0.15625 -0.015625q-0.0625 -0.03125 -0.109375 -0.09375q-0.046875 -0.0625 -0.078125 -0.171875q-0.015625 -0.125 -0.015625 -0.3125q0 -0.140625 0 -0.25q0.015625 -0.125 0.03125 -0.21875q0.03125 -0.109375 0.0625 -0.1875q0.046875 -0.09375 0.109375 -0.203125l3.640625 -6.140625q0.03125 -0.0625 0.109375 -0.109375q0.078125 -0.046875 0.1875 -0.078125q0.125 -0.03125 0.296875 -0.03125q0.171875 -0.015625 0.40625 -0.015625q0.25 0 0.4375 0.015625q0.203125 0.015625 0.3125 0.046875q0.125 0.03125 0.1875 0.09375q0.0625 0.046875 0.0625 0.109375l0 6.453125l1.140625 0q0.125 0 0.203125 0.140625q0.09375 0.140625 0.09375 0.421875zm-2.75 -6.109375l-0.015625 0l-3.28125 5.546875l3.296875 0l0 -5.546875zm10.765625 3.90625q0 1.15625 -0.1875 2.125q-0.1875 0.953125 -0.609375 1.65625q-0.421875 0.6875 -1.109375 1.078125q-0.6875 0.375 -1.703125 0.375q-0.953125 0 -1.609375 -0.34375q-0.640625 -0.34375 -1.046875 -1.0q-0.390625 -0.671875 -0.5625 -1.625q-0.171875 -0.96875 -0.171875 -2.21875q0 -1.15625 0.1875 -2.125q0.1875 -0.96875 0.609375 -1.65625q0.421875 -0.6875 1.109375 -1.0625q0.6875 -0.390625 1.6875 -0.390625q0.96875 0 1.609375 0.34375q0.65625 0.34375 1.046875 1.0q0.40625 0.65625 0.578125 1.625q0.171875 0.96875 0.171875 2.21875zm-1.375 0.09375q0 -0.765625 -0.0625 -1.359375q-0.046875 -0.609375 -0.15625 -1.0625q-0.109375 -0.46875 -0.28125 -0.796875q-0.15625 -0.328125 -0.390625 -0.546875q-0.234375 -0.21875 -0.546875 -0.3125q-0.296875 -0.09375 -0.671875 -0.09375q-0.65625 0 -1.078125 0.3125q-0.40625 0.3125 -0.65625 0.859375q-0.234375 0.546875 -0.328125 1.28125q-0.078125 0.734375 -0.078125 1.578125q0 1.125 0.109375 1.921875q0.125 0.796875 0.375 1.296875q0.265625 0.5 0.65625 0.734375q0.390625 0.21875 0.953125 0.21875q0.4375 0 0.765625 -0.140625q0.34375 -0.140625 0.578125 -0.40625q0.234375 -0.265625 0.390625 -0.625q0.15625 -0.375 0.25 -0.8125q0.09375 -0.453125 0.125 -0.96875q0.046875 -0.515625 0.046875 -1.078125zm9.484375 -0.09375q0 1.15625 -0.1875 2.125q-0.1875 0.953125 -0.609375 1.65625q-0.421875 0.6875 -1.109375 1.078125q-0.6875 0.375 -1.703125 0.375q-0.953125 0 -1.609375 -0.34375q-0.640625 -0.34375 -1.046875 -1.0q-0.390625 -0.671875 -0.5625 -1.625q-0.171875 -0.96875 -0.171875 -2.21875q0 -1.15625 0.1875 -2.125q0.1875 -0.96875 0.609375 -1.65625q0.421875 -0.6875 1.109375 -1.0625q0.6875 -0.390625 1.6875 -0.390625q0.96875 0 1.609375 0.34375q0.65625 0.34375 1.046875 1.0q0.40625 0.65625 0.578125 1.625q0.171875 0.96875 0.171875 2.21875zm-1.375 0.09375q0 -0.765625 -0.0625 -1.359375q-0.046875 -0.609375 -0.15625 -1.0625q-0.109375 -0.46875 -0.28125 -0.796875q-0.15625 -0.328125 -0.390625 -0.546875q-0.234375 -0.21875 -0.546875 -0.3125q-0.296875 -0.09375 -0.671875 -0.09375q-0.65625 0 -1.078125 0.3125q-0.40625 0.3125 -0.65625 0.859375q-0.234375 0.546875 -0.328125 1.28125q-0.078125 0.734375 -0.078125 1.578125q0 1.125 0.109375 1.921875q0.125 0.796875 0.375 1.296875q0.265625 0.5 0.65625 0.734375q0.390625 0.21875 0.953125 0.21875q0.4375 0 0.765625 -0.140625q0.34375 -0.140625 0.578125 -0.40625q0.234375 -0.265625 0.390625 -0.625q0.15625 -0.375 0.25 -0.8125q0.09375 -0.453125 0.125 -0.96875q0.046875 -0.515625 0.046875 -1.078125z" fill-rule="nonzero"></path><path fill="#000000" fill-opacity="0.0" d="m279.47977 246.35715l82.48816 0l0 33.228333l-82.48816 0z" fill-rule="evenodd"></path><path fill="#000000" d="m296.04227 265.639q0 1.15625 -0.1875 2.125q-0.1875 0.953125 -0.609375 1.65625q-0.421875 0.6875 -1.109375 1.078125q-0.6875 0.375 -1.703125 0.375q-0.953125 0 -1.609375 -0.34375q-0.640625 -0.34375 -1.046875 -1.0q-0.390625 -0.671875 -0.5625 -1.625q-0.171875 -0.96875 -0.171875 -2.21875q0 -1.15625 0.1875 -2.125q0.1875 -0.96875 0.609375 -1.65625q0.421875 -0.6875 1.109375 -1.0625q0.6875 -0.390625 1.6875 -0.390625q0.96875 0 1.609375 0.34375q0.65625 0.34375 1.046875 1.0q0.40625 0.65625 0.578125 1.625q0.171875 0.96875 0.171875 2.21875zm-1.375 0.09375q0 -0.765625 -0.0625 -1.359375q-0.046875 -0.609375 -0.15625 -1.0625q-0.109375 -0.46875 -0.28125 -0.796875q-0.15625 -0.328125 -0.390625 -0.546875q-0.234375 -0.21875 -0.546875 -0.3125q-0.296875 -0.09375 -0.671875 -0.09375q-0.65625 0 -1.078125 0.3125q-0.40625 0.3125 -0.65625 0.859375q-0.234375 0.546875 -0.328125 1.28125q-0.078125 0.734375 -0.078125 1.578125q0 1.125 0.109375 1.921875q0.125 0.796875 0.375 1.296875q0.265625 0.5 0.65625 0.734375q0.390625 0.21875 0.953125 0.21875q0.4375 0 0.765625 -0.140625q0.34375 -0.140625 0.578125 -0.40625q0.234375 -0.265625 0.390625 -0.625q0.15625 -0.375 0.25 -0.8125q0.09375 -0.453125 0.125 -0.96875q0.046875 -0.515625 0.046875 -1.078125zm8.453125 4.640625q0.0625 0.109375 0.0625 0.1875q0 0.0625 -0.078125 0.125q-0.078125 0.046875 -0.234375 0.0625q-0.140625 0.015625 -0.390625 0.015625q-0.234375 0 -0.375 -0.015625q-0.125 0 -0.21875 -0.03125q-0.078125 -0.03125 -0.125 -0.078125q-0.03125 -0.046875 -0.0625 -0.09375l-1.6875 -2.796875l-1.6875 2.796875q-0.03125 0.046875 -0.078125 0.09375q-0.03125 0.046875 -0.125 0.078125q-0.078125 0.03125 -0.21875 0.03125q-0.125 0.015625 -0.34375 0.015625q-0.21875 0 -0.375 -0.015625q-0.140625 -0.015625 -0.203125 -0.0625q-0.0625 -0.0625 -0.0625 -0.125q0 -0.078125 0.078125 -0.1875l2.1875 -3.4375l-2.078125 -3.296875q-0.0625 -0.109375 -0.0625 -0.1875q0 -0.078125 0.0625 -0.125q0.078125 -0.046875 0.234375 -0.0625q0.15625 -0.015625 0.40625 -0.015625q0.21875 0 0.359375 0.015625q0.140625 0 0.21875 0.03125q0.078125 0.015625 0.109375 0.0625q0.046875 0.03125 0.078125 0.09375l1.59375 2.609375l1.625 -2.609375q0.03125 -0.046875 0.0625 -0.078125q0.046875 -0.046875 0.109375 -0.078125q0.078125 -0.03125 0.1875 -0.03125q0.125 -0.015625 0.34375 -0.015625q0.21875 0 0.359375 0.015625q0.15625 0.015625 0.21875 0.0625q0.078125 0.03125 0.0625 0.109375q0 0.078125 -0.078125 0.203125l-2.046875 3.265625l2.171875 3.46875zm7.6953125 -5.109375q0 0.65625 -0.078125 1.328125q-0.078125 0.671875 -0.265625 1.296875q-0.1875 0.609375 -0.5 1.15625q-0.3125 0.546875 -0.796875 0.953125q-0.484375 0.40625 -1.140625 0.640625q-0.65625 0.234375 -1.53125 0.234375q-0.34375 0 -0.65625 -0.046875q-0.3125 -0.046875 -0.578125 -0.109375q-0.25 -0.0625 -0.421875 -0.125q-0.171875 -0.078125 -0.25 -0.140625q-0.078125 -0.078125 -0.109375 -0.203125q-0.03125 -0.125 -0.03125 -0.328125q0 -0.171875 0 -0.265625q0.015625 -0.109375 0.03125 -0.15625q0.03125 -0.0625 0.078125 -0.078125q0.046875 -0.015625 0.109375 -0.015625q0.078125 0 0.234375 0.0625q0.15625 0.046875 0.390625 0.125q0.25 0.0625 0.5625 0.125q0.328125 0.0625 0.71875 0.0625q0.765625 0 1.296875 -0.296875q0.546875 -0.296875 0.890625 -0.78125q0.34375 -0.5 0.515625 -1.140625q0.171875 -0.65625 0.1875 -1.375q-0.40625 0.25 -0.984375 0.4375q-0.578125 0.1875 -1.328125 0.1875q-0.84375 0 -1.421875 -0.234375q-0.578125 -0.234375 -0.921875 -0.625q-0.34375 -0.40625 -0.5 -0.953125q-0.15625 -0.546875 -0.15625 -1.1875q0 -0.671875 0.1875 -1.28125q0.203125 -0.609375 0.609375 -1.0625q0.421875 -0.46875 1.0625 -0.734375q0.640625 -0.28125 1.53125 -0.28125q0.640625 0 1.125 0.171875q0.484375 0.15625 0.84375 0.453125q0.359375 0.296875 0.609375 0.734375q0.25 0.421875 0.40625 0.96875q0.15625 0.53125 0.21875 1.15625q0.0625 0.625 0.0625 1.328125zm-1.359375 -0.15625q0 -1.0 -0.140625 -1.671875q-0.125 -0.6875 -0.390625 -1.109375q-0.25 -0.421875 -0.625 -0.609375q-0.375 -0.1875 -0.875 -0.1875q-0.5 0 -0.859375 0.1875q-0.359375 0.171875 -0.59375 0.484375q-0.234375 0.3125 -0.34375 0.703125q-0.109375 0.390625 -0.109375 0.796875q0 0.46875 0.09375 0.859375q0.109375 0.375 0.328125 0.640625q0.21875 0.265625 0.5625 0.40625q0.359375 0.140625 0.875 0.140625q0.578125 0 1.125 -0.171875q0.546875 -0.171875 0.953125 -0.46875zm10.1875 2.703125q0 0.484375 -0.125 0.890625q-0.125 0.390625 -0.34375 0.71875q-0.21875 0.3125 -0.53125 0.5625q-0.296875 0.234375 -0.6875 0.40625q-0.390625 0.15625 -0.828125 0.25q-0.4375 0.078125 -1.015625 0.078125l-2.640625 0q-0.171875 0 -0.34375 -0.125q-0.15625 -0.125 -0.15625 -0.421875l0 -9.015625q0 -0.3125 0.15625 -0.421875q0.171875 -0.125 0.34375 -0.125l2.296875 0q0.90625 0 1.484375 0.171875q0.578125 0.171875 0.96875 0.5q0.390625 0.328125 0.578125 0.8125q0.203125 0.46875 0.203125 1.0625q0 0.359375 -0.09375 0.6875q-0.078125 0.328125 -0.25 0.609375q-0.171875 0.28125 -0.421875 0.5q-0.25 0.21875 -0.578125 0.359375q0.40625 0.078125 0.765625 0.28125q0.359375 0.203125 0.625 0.53125q0.28125 0.3125 0.4375 0.75q0.15625 0.421875 0.15625 0.9375zm-2.03125 -4.515625q0 -0.375 -0.109375 -0.671875q-0.09375 -0.296875 -0.3125 -0.5q-0.21875 -0.203125 -0.578125 -0.3125q-0.34375 -0.109375 -0.921875 -0.109375l-1.390625 0l0 3.265625l1.53125 0q0.53125 0 0.84375 -0.125q0.328125 -0.140625 0.53125 -0.375q0.21875 -0.234375 0.3125 -0.53125q0.09375 -0.3125 0.09375 -0.640625zm0.609375 4.59375q0 -0.453125 -0.140625 -0.796875q-0.140625 -0.34375 -0.421875 -0.578125q-0.28125 -0.234375 -0.703125 -0.34375q-0.40625 -0.125 -1.046875 -0.125l-1.609375 0l0 3.5625l1.953125 0q0.46875 0 0.8125 -0.109375q0.34375 -0.109375 0.59375 -0.328125q0.265625 -0.21875 0.40625 -0.53125q0.15625 -0.328125 0.15625 -0.75zm9.484375 -6.703125q0 0.140625 -0.015625 0.25q-0.015625 0.109375 -0.03125 0.21875q-0.015625 0.109375 -0.0625 0.203125q-0.03125 0.09375 -0.078125 0.203125l-3.640625 8.390625q-0.03125 0.09375 -0.09375 0.15625q-0.0625 0.0625 -0.15625 0.109375q-0.078125 0.03125 -0.21875 0.03125q-0.140625 0.015625 -0.34375 0.015625q-0.265625 0 -0.421875 -0.03125q-0.140625 -0.015625 -0.21875 -0.0625q-0.0625 -0.0625 -0.0625 -0.125q0.015625 -0.078125 0.0625 -0.1875l3.828125 -8.578125l-4.84375 0q-0.15625 0 -0.234375 -0.15625q-0.0625 -0.15625 -0.0625 -0.4375q0 -0.140625 0.015625 -0.25q0.015625 -0.109375 0.046875 -0.1875q0.046875 -0.078125 0.09375 -0.109375q0.0625 -0.03125 0.140625 -0.03125l5.890625 0q0.109375 0 0.1875 0.03125q0.078125 0.015625 0.125 0.09375q0.046875 0.0625 0.0625 0.171875q0.03125 0.109375 0.03125 0.28125zm8.296875 4.453125q0 1.15625 -0.1875 2.125q-0.1875 0.953125 -0.609375 1.65625q-0.421875 0.6875 -1.109375 1.078125q-0.6875 0.375 -1.703125 0.375q-0.953125 0 -1.609375 -0.34375q-0.640625 -0.34375 -1.046875 -1.0q-0.390625 -0.671875 -0.5625 -1.625q-0.171875 -0.96875 -0.171875 -2.21875q0 -1.15625 0.1875 -2.125q0.1875 -0.96875 0.609375 -1.65625q0.421875 -0.6875 1.109375 -1.0625q0.6875 -0.390625 1.6875 -0.390625q0.96875 0 1.609375 0.34375q0.65625 0.34375 1.046875 1.0q0.40625 0.65625 0.578125 1.625q0.171875 0.96875 0.171875 2.21875zm-1.375 0.09375q0 -0.765625 -0.0625 -1.359375q-0.046875 -0.609375 -0.15625 -1.0625q-0.109375 -0.46875 -0.28125 -0.796875q-0.15625 -0.328125 -0.390625 -0.546875q-0.234375 -0.21875 -0.546875 -0.3125q-0.296875 -0.09375 -0.671875 -0.09375q-0.65625 0 -1.078125 0.3125q-0.40625 0.3125 -0.65625 0.859375q-0.234375 0.546875 -0.328125 1.28125q-0.078125 0.734375 -0.078125 1.578125q0 1.125 0.109375 1.921875q0.125 0.796875 0.375 1.296875q0.265625 0.5 0.65625 0.734375q0.390625 0.21875 0.953125 0.21875q0.4375 0 0.765625 -0.140625q0.34375 -0.140625 0.578125 -0.40625q0.234375 -0.265625 0.390625 -0.625q0.15625 -0.375 0.25 -0.8125q0.09375 -0.453125 0.125 -0.96875q0.046875 -0.515625 0.046875 -1.078125z" fill-rule="nonzero"></path></g></svg>

